G75*
%MOIN*%
%OFA0B0*%
%FSLAX24Y24*%
%IPPOS*%
%LPD*%
%AMOC8*
5,1,8,0,0,1.08239X$1,22.5*
%
%ADD10C,0.0000*%
%ADD11C,0.0120*%
%ADD12C,0.0080*%
%ADD13C,0.0060*%
%ADD14C,0.0010*%
%ADD15C,0.0050*%
%ADD16C,0.0020*%
%ADD17C,0.0040*%
%ADD18R,0.0256X0.0551*%
%ADD19R,0.0551X0.0256*%
%ADD20R,0.0200X0.0050*%
%ADD21C,0.0070*%
D10*
X001443Y000680D02*
X001443Y021676D01*
X032939Y021676D01*
X032939Y000680D01*
X001443Y000680D01*
X028038Y016230D02*
X028040Y016260D01*
X028046Y016290D01*
X028055Y016319D01*
X028068Y016346D01*
X028085Y016371D01*
X028104Y016394D01*
X028127Y016415D01*
X028152Y016432D01*
X028178Y016446D01*
X028207Y016456D01*
X028236Y016463D01*
X028266Y016466D01*
X028297Y016465D01*
X028327Y016460D01*
X028356Y016451D01*
X028383Y016439D01*
X028409Y016424D01*
X028433Y016405D01*
X028454Y016383D01*
X028472Y016359D01*
X028487Y016332D01*
X028498Y016304D01*
X028506Y016275D01*
X028510Y016245D01*
X028510Y016215D01*
X028506Y016185D01*
X028498Y016156D01*
X028487Y016128D01*
X028472Y016101D01*
X028454Y016077D01*
X028433Y016055D01*
X028409Y016036D01*
X028383Y016021D01*
X028356Y016009D01*
X028327Y016000D01*
X028297Y015995D01*
X028266Y015994D01*
X028236Y015997D01*
X028207Y016004D01*
X028178Y016014D01*
X028152Y016028D01*
X028127Y016045D01*
X028104Y016066D01*
X028085Y016089D01*
X028068Y016114D01*
X028055Y016141D01*
X028046Y016170D01*
X028040Y016200D01*
X028038Y016230D01*
X030007Y018199D02*
X030009Y018229D01*
X030015Y018259D01*
X030024Y018288D01*
X030037Y018315D01*
X030054Y018340D01*
X030073Y018363D01*
X030096Y018384D01*
X030121Y018401D01*
X030147Y018415D01*
X030176Y018425D01*
X030205Y018432D01*
X030235Y018435D01*
X030266Y018434D01*
X030296Y018429D01*
X030325Y018420D01*
X030352Y018408D01*
X030378Y018393D01*
X030402Y018374D01*
X030423Y018352D01*
X030441Y018328D01*
X030456Y018301D01*
X030467Y018273D01*
X030475Y018244D01*
X030479Y018214D01*
X030479Y018184D01*
X030475Y018154D01*
X030467Y018125D01*
X030456Y018097D01*
X030441Y018070D01*
X030423Y018046D01*
X030402Y018024D01*
X030378Y018005D01*
X030352Y017990D01*
X030325Y017978D01*
X030296Y017969D01*
X030266Y017964D01*
X030235Y017963D01*
X030205Y017966D01*
X030176Y017973D01*
X030147Y017983D01*
X030121Y017997D01*
X030096Y018014D01*
X030073Y018035D01*
X030054Y018058D01*
X030037Y018083D01*
X030024Y018110D01*
X030015Y018139D01*
X030009Y018169D01*
X030007Y018199D01*
X030991Y018199D02*
X030993Y018229D01*
X030999Y018259D01*
X031008Y018288D01*
X031021Y018315D01*
X031038Y018340D01*
X031057Y018363D01*
X031080Y018384D01*
X031105Y018401D01*
X031131Y018415D01*
X031160Y018425D01*
X031189Y018432D01*
X031219Y018435D01*
X031250Y018434D01*
X031280Y018429D01*
X031309Y018420D01*
X031336Y018408D01*
X031362Y018393D01*
X031386Y018374D01*
X031407Y018352D01*
X031425Y018328D01*
X031440Y018301D01*
X031451Y018273D01*
X031459Y018244D01*
X031463Y018214D01*
X031463Y018184D01*
X031459Y018154D01*
X031451Y018125D01*
X031440Y018097D01*
X031425Y018070D01*
X031407Y018046D01*
X031386Y018024D01*
X031362Y018005D01*
X031336Y017990D01*
X031309Y017978D01*
X031280Y017969D01*
X031250Y017964D01*
X031219Y017963D01*
X031189Y017966D01*
X031160Y017973D01*
X031131Y017983D01*
X031105Y017997D01*
X031080Y018014D01*
X031057Y018035D01*
X031038Y018058D01*
X031021Y018083D01*
X031008Y018110D01*
X030999Y018139D01*
X030993Y018169D01*
X030991Y018199D01*
X030991Y014261D02*
X030993Y014291D01*
X030999Y014321D01*
X031008Y014350D01*
X031021Y014377D01*
X031038Y014402D01*
X031057Y014425D01*
X031080Y014446D01*
X031105Y014463D01*
X031131Y014477D01*
X031160Y014487D01*
X031189Y014494D01*
X031219Y014497D01*
X031250Y014496D01*
X031280Y014491D01*
X031309Y014482D01*
X031336Y014470D01*
X031362Y014455D01*
X031386Y014436D01*
X031407Y014414D01*
X031425Y014390D01*
X031440Y014363D01*
X031451Y014335D01*
X031459Y014306D01*
X031463Y014276D01*
X031463Y014246D01*
X031459Y014216D01*
X031451Y014187D01*
X031440Y014159D01*
X031425Y014132D01*
X031407Y014108D01*
X031386Y014086D01*
X031362Y014067D01*
X031336Y014052D01*
X031309Y014040D01*
X031280Y014031D01*
X031250Y014026D01*
X031219Y014025D01*
X031189Y014028D01*
X031160Y014035D01*
X031131Y014045D01*
X031105Y014059D01*
X031080Y014076D01*
X031057Y014097D01*
X031038Y014120D01*
X031021Y014145D01*
X031008Y014172D01*
X030999Y014201D01*
X030993Y014231D01*
X030991Y014261D01*
X030007Y014261D02*
X030009Y014291D01*
X030015Y014321D01*
X030024Y014350D01*
X030037Y014377D01*
X030054Y014402D01*
X030073Y014425D01*
X030096Y014446D01*
X030121Y014463D01*
X030147Y014477D01*
X030176Y014487D01*
X030205Y014494D01*
X030235Y014497D01*
X030266Y014496D01*
X030296Y014491D01*
X030325Y014482D01*
X030352Y014470D01*
X030378Y014455D01*
X030402Y014436D01*
X030423Y014414D01*
X030441Y014390D01*
X030456Y014363D01*
X030467Y014335D01*
X030475Y014306D01*
X030479Y014276D01*
X030479Y014246D01*
X030475Y014216D01*
X030467Y014187D01*
X030456Y014159D01*
X030441Y014132D01*
X030423Y014108D01*
X030402Y014086D01*
X030378Y014067D01*
X030352Y014052D01*
X030325Y014040D01*
X030296Y014031D01*
X030266Y014026D01*
X030235Y014025D01*
X030205Y014028D01*
X030176Y014035D01*
X030147Y014045D01*
X030121Y014059D01*
X030096Y014076D01*
X030073Y014097D01*
X030054Y014120D01*
X030037Y014145D01*
X030024Y014172D01*
X030015Y014201D01*
X030009Y014231D01*
X030007Y014261D01*
D11*
X024443Y005180D02*
X024443Y004180D01*
X024165Y004591D02*
X023443Y004591D01*
X023443Y004709D02*
X024272Y004709D01*
X024323Y004680D02*
X023443Y005180D01*
X023443Y004180D01*
X024323Y004680D01*
X024063Y004828D02*
X023443Y004828D01*
X023443Y004946D02*
X023855Y004946D01*
X023646Y005065D02*
X023443Y005065D01*
X023272Y004709D02*
X022443Y004709D01*
X022443Y004591D02*
X023165Y004591D01*
X023323Y004680D02*
X022443Y005180D01*
X022443Y004180D01*
X023323Y004680D01*
X023443Y004472D02*
X023957Y004472D01*
X023748Y004354D02*
X023443Y004354D01*
X023443Y004235D02*
X023540Y004235D01*
X022957Y004472D02*
X022443Y004472D01*
X022443Y004354D02*
X022748Y004354D01*
X022540Y004235D02*
X022443Y004235D01*
X022443Y004828D02*
X023063Y004828D01*
X022855Y004946D02*
X022443Y004946D01*
X022443Y005065D02*
X022646Y005065D01*
X019443Y005180D02*
X019443Y004180D01*
X019023Y004180D02*
X019023Y005180D01*
X018323Y004680D02*
X017443Y005180D01*
X017443Y004180D01*
X018323Y004680D01*
X018272Y004709D02*
X017443Y004709D01*
X017443Y004591D02*
X018165Y004591D01*
X017957Y004472D02*
X017443Y004472D01*
X017443Y004354D02*
X017748Y004354D01*
X017540Y004235D02*
X017443Y004235D01*
X017443Y004828D02*
X018063Y004828D01*
X017855Y004946D02*
X017443Y004946D01*
X017443Y005065D02*
X017646Y005065D01*
X014443Y005065D02*
X014240Y005065D01*
X014443Y005180D02*
X013563Y004680D01*
X014443Y004180D01*
X014443Y005180D01*
X014443Y004946D02*
X014031Y004946D01*
X013822Y004828D02*
X014443Y004828D01*
X014443Y004709D02*
X013614Y004709D01*
X013720Y004591D02*
X014443Y004591D01*
X014443Y004472D02*
X013929Y004472D01*
X014137Y004354D02*
X014443Y004354D01*
X014443Y004235D02*
X014346Y004235D01*
X013443Y004235D02*
X013346Y004235D01*
X013443Y004180D02*
X012563Y004680D01*
X013443Y005180D01*
X013443Y004180D01*
X013443Y004354D02*
X013137Y004354D01*
X012929Y004472D02*
X013443Y004472D01*
X013443Y004591D02*
X012720Y004591D01*
X012614Y004709D02*
X013443Y004709D01*
X013443Y004828D02*
X012822Y004828D01*
X013031Y004946D02*
X013443Y004946D01*
X013443Y005065D02*
X013240Y005065D01*
X012443Y005180D02*
X012443Y004180D01*
D12*
X006676Y008790D02*
X006678Y008805D01*
X006684Y008818D01*
X006693Y008830D01*
X006704Y008839D01*
X006718Y008845D01*
X006733Y008847D01*
X006748Y008845D01*
X006761Y008839D01*
X006773Y008830D01*
X006782Y008819D01*
X006788Y008805D01*
X006790Y008790D01*
X006788Y008775D01*
X006782Y008762D01*
X006773Y008750D01*
X006762Y008741D01*
X006748Y008735D01*
X006733Y008733D01*
X006718Y008735D01*
X006705Y008741D01*
X006693Y008750D01*
X006684Y008761D01*
X006678Y008775D01*
X006676Y008790D01*
X018274Y012620D02*
X018612Y012620D01*
X018762Y013074D02*
X018762Y013286D01*
X018612Y013740D02*
X018274Y013740D01*
X017415Y016196D02*
X016470Y016196D01*
X016470Y016786D01*
X017415Y016786D02*
X017415Y016196D01*
X017415Y017574D02*
X017415Y018007D01*
X017258Y018164D01*
X016628Y018164D01*
X016470Y018007D01*
X016470Y017574D01*
X013496Y018140D02*
X013498Y018155D01*
X013504Y018168D01*
X013513Y018180D01*
X013524Y018189D01*
X013538Y018195D01*
X013553Y018197D01*
X013568Y018195D01*
X013581Y018189D01*
X013593Y018180D01*
X013602Y018169D01*
X013608Y018155D01*
X013610Y018140D01*
X013608Y018125D01*
X013602Y018112D01*
X013593Y018100D01*
X013582Y018091D01*
X013568Y018085D01*
X013553Y018083D01*
X013538Y018085D01*
X013525Y018091D01*
X013513Y018100D01*
X013504Y018111D01*
X013498Y018125D01*
X013496Y018140D01*
X013342Y019680D02*
X013092Y019930D01*
X012842Y019680D01*
X012342Y019680D01*
X012092Y019930D01*
X011842Y019680D01*
X011342Y019680D01*
X011092Y019930D01*
X010842Y019680D01*
X010342Y019680D01*
X010092Y019930D01*
X009842Y019680D01*
X009342Y019680D01*
X009092Y019930D01*
X008842Y019680D01*
X008342Y019680D01*
X008092Y019930D01*
X007842Y019680D01*
X007342Y019680D01*
X007092Y019930D01*
X006842Y019680D01*
X006342Y019680D01*
X006092Y019930D01*
X005842Y019680D01*
X005342Y019680D01*
X005092Y019930D01*
X004842Y019680D01*
X004342Y019680D01*
X004092Y019930D01*
X004092Y020430D01*
X004342Y020680D01*
X004842Y020680D01*
X005092Y020430D01*
X005342Y020680D01*
X005842Y020680D01*
X006092Y020430D01*
X006342Y020680D01*
X006842Y020680D01*
X007092Y020430D01*
X007342Y020680D01*
X007842Y020680D01*
X008092Y020430D01*
X008342Y020680D01*
X008842Y020680D01*
X009092Y020430D01*
X009342Y020680D01*
X009842Y020680D01*
X010092Y020430D01*
X010342Y020680D01*
X010842Y020680D01*
X011092Y020430D01*
X011342Y020680D01*
X011842Y020680D01*
X012092Y020430D01*
X012342Y020680D01*
X012842Y020680D01*
X013092Y020430D01*
X013342Y020680D01*
X013842Y020680D01*
X014092Y020430D01*
X014342Y020680D01*
X014842Y020680D01*
X015092Y020430D01*
X015342Y020680D01*
X015842Y020680D01*
X016092Y020430D01*
X016342Y020680D01*
X016842Y020680D01*
X017092Y020430D01*
X017342Y020680D01*
X017842Y020680D01*
X018092Y020430D01*
X018342Y020680D01*
X018842Y020680D01*
X019092Y020430D01*
X019342Y020680D01*
X019842Y020680D01*
X020092Y020430D01*
X020092Y019930D01*
X019842Y019680D01*
X019342Y019680D01*
X019092Y019930D01*
X018842Y019680D01*
X018342Y019680D01*
X018092Y019930D01*
X017842Y019680D01*
X017342Y019680D01*
X017092Y019930D01*
X016842Y019680D01*
X016342Y019680D01*
X016092Y019930D01*
X015842Y019680D01*
X015342Y019680D01*
X015092Y019930D01*
X014842Y019680D01*
X014342Y019680D01*
X014092Y019930D01*
X013842Y019680D01*
X013342Y019680D01*
X020092Y019930D02*
X020092Y020430D01*
X023259Y018545D02*
X023259Y017915D01*
X023416Y017758D01*
X023849Y017758D01*
X024637Y017758D02*
X025227Y017758D01*
X025227Y018702D01*
X024637Y018702D01*
X023849Y018702D02*
X023416Y018702D01*
X023259Y018545D01*
X027290Y018592D02*
X027684Y018592D01*
X027290Y018592D02*
X027290Y013868D01*
X027684Y013868D01*
X028865Y013868D02*
X031621Y013868D01*
X031621Y018592D01*
X028865Y018592D01*
X025227Y014702D02*
X024637Y014702D01*
X025227Y014702D02*
X025227Y013758D01*
X024637Y013758D01*
X023849Y013758D02*
X023416Y013758D01*
X023259Y013915D01*
X023259Y014545D01*
X023416Y014702D01*
X023849Y014702D01*
X025733Y006391D02*
X025733Y005777D01*
X026040Y005470D01*
X026347Y005777D01*
X026347Y006391D01*
X026807Y006084D02*
X026654Y005930D01*
X026654Y005623D01*
X026807Y005470D01*
X027114Y005470D01*
X027267Y005623D01*
X027267Y005930D01*
X027114Y006084D01*
X026807Y006084D01*
X027574Y006391D02*
X027728Y006391D01*
X027728Y005470D01*
X027881Y005470D02*
X027574Y005470D01*
X028188Y005930D02*
X028802Y005930D01*
X028495Y006237D02*
X028495Y005623D01*
X027728Y002891D02*
X027728Y001970D01*
X027881Y001970D02*
X027574Y001970D01*
X027267Y002123D02*
X027267Y002430D01*
X027114Y002584D01*
X026807Y002584D01*
X026654Y002430D01*
X026654Y002123D01*
X026807Y001970D01*
X027114Y001970D01*
X027267Y002123D01*
X026347Y002277D02*
X026347Y002891D01*
X025733Y002891D02*
X025733Y002277D01*
X026040Y001970D01*
X026347Y002277D01*
X027574Y002891D02*
X027728Y002891D01*
X028143Y002560D02*
X028757Y002560D01*
X004092Y019930D02*
X004092Y020430D01*
D13*
X004193Y017680D02*
X004693Y017680D01*
X004943Y017430D01*
X005193Y017680D01*
X005693Y017680D01*
X005943Y017430D01*
X005943Y016930D01*
X005693Y016680D01*
X005943Y016430D01*
X005943Y015930D01*
X005693Y015680D01*
X005943Y015430D01*
X005943Y014930D01*
X005693Y014680D01*
X005943Y014430D01*
X005943Y013930D01*
X005693Y013680D01*
X005943Y013430D01*
X005943Y012930D01*
X005693Y012680D01*
X005943Y012430D01*
X005943Y011930D01*
X005693Y011680D01*
X005943Y011430D01*
X005943Y010930D01*
X005693Y010680D01*
X005943Y010430D01*
X005943Y009930D01*
X005693Y009680D01*
X005943Y009430D01*
X005943Y008930D01*
X005693Y008680D01*
X005943Y008430D01*
X005943Y007930D01*
X005693Y007680D01*
X005193Y007680D01*
X004943Y007930D01*
X004943Y008430D01*
X005193Y008680D01*
X004943Y008930D01*
X004943Y009430D01*
X005193Y009680D01*
X004943Y009930D01*
X004943Y010430D01*
X005193Y010680D01*
X004943Y010930D01*
X004943Y011430D01*
X005193Y011680D01*
X004943Y011930D01*
X004943Y012430D01*
X005193Y012680D01*
X004943Y012930D01*
X004943Y013430D01*
X005193Y013680D01*
X004943Y013930D01*
X004943Y014430D01*
X005193Y014680D01*
X004943Y014930D01*
X004943Y015430D01*
X005193Y015680D01*
X004943Y015930D01*
X004943Y016430D01*
X005193Y016680D01*
X004943Y016930D01*
X004943Y017430D01*
X004943Y016930D01*
X004693Y016680D01*
X004943Y016430D01*
X004943Y015930D01*
X004693Y015680D01*
X004943Y015430D01*
X004943Y014930D01*
X004693Y014680D01*
X004943Y014430D01*
X004943Y013930D01*
X004693Y013680D01*
X004943Y013430D01*
X004943Y012930D01*
X004693Y012680D01*
X004943Y012430D01*
X004943Y011930D01*
X004693Y011680D01*
X004943Y011430D01*
X004943Y010930D01*
X004693Y010680D01*
X004943Y010430D01*
X004943Y009930D01*
X004693Y009680D01*
X004943Y009430D01*
X004943Y008930D01*
X004693Y008680D01*
X004943Y008430D01*
X004943Y007930D01*
X004693Y007680D01*
X004193Y007680D01*
X003943Y007930D01*
X003943Y008430D01*
X004193Y008680D01*
X003943Y008930D01*
X003943Y009430D01*
X004193Y009680D01*
X003943Y009930D01*
X003943Y010430D01*
X004193Y010680D01*
X003943Y010930D01*
X003943Y011430D01*
X004193Y011680D01*
X003943Y011930D01*
X003943Y012430D01*
X004193Y012680D01*
X003943Y012930D01*
X003943Y013430D01*
X004193Y013680D01*
X003943Y013930D01*
X003943Y014430D01*
X004193Y014680D01*
X003943Y014930D01*
X003943Y015430D01*
X004193Y015680D01*
X003943Y015930D01*
X003943Y016430D01*
X004193Y016680D01*
X003943Y016930D01*
X003943Y017430D01*
X004193Y017680D01*
X009707Y014798D02*
X009707Y014562D01*
X010179Y014562D02*
X010179Y014798D01*
X010393Y014500D02*
X010393Y011860D01*
X010395Y011837D01*
X010400Y011814D01*
X010409Y011792D01*
X010422Y011772D01*
X010437Y011754D01*
X010455Y011739D01*
X010475Y011726D01*
X010497Y011717D01*
X010520Y011712D01*
X010543Y011710D01*
X017343Y011710D01*
X017366Y011712D01*
X017389Y011717D01*
X017411Y011726D01*
X017431Y011739D01*
X017449Y011754D01*
X017464Y011772D01*
X017477Y011792D01*
X017486Y011814D01*
X017491Y011837D01*
X017493Y011860D01*
X017493Y012680D01*
X017493Y013680D01*
X017493Y014500D01*
X017491Y014523D01*
X017486Y014546D01*
X017477Y014568D01*
X017464Y014588D01*
X017449Y014606D01*
X017431Y014621D01*
X017411Y014634D01*
X017389Y014643D01*
X017366Y014648D01*
X017343Y014650D01*
X010543Y014650D01*
X010520Y014648D01*
X010497Y014643D01*
X010475Y014634D01*
X010455Y014621D01*
X010437Y014606D01*
X010422Y014588D01*
X010409Y014568D01*
X010400Y014546D01*
X010395Y014523D01*
X010393Y014500D01*
X013233Y016500D02*
X014653Y016500D01*
X015707Y017812D02*
X015707Y018048D01*
X016179Y018048D02*
X016179Y017812D01*
X014653Y018360D02*
X013233Y018360D01*
X017707Y014798D02*
X017707Y014562D01*
X018179Y014562D02*
X018179Y014798D01*
X017493Y013680D02*
X017449Y013678D01*
X017406Y013672D01*
X017364Y013663D01*
X017322Y013650D01*
X017282Y013633D01*
X017243Y013613D01*
X017206Y013590D01*
X017172Y013563D01*
X017139Y013534D01*
X017110Y013501D01*
X017083Y013467D01*
X017060Y013430D01*
X017040Y013391D01*
X017023Y013351D01*
X017010Y013309D01*
X017001Y013267D01*
X016995Y013224D01*
X016993Y013180D01*
X016995Y013136D01*
X017001Y013093D01*
X017010Y013051D01*
X017023Y013009D01*
X017040Y012969D01*
X017060Y012930D01*
X017083Y012893D01*
X017110Y012859D01*
X017139Y012826D01*
X017172Y012797D01*
X017206Y012770D01*
X017243Y012747D01*
X017282Y012727D01*
X017322Y012710D01*
X017364Y012697D01*
X017406Y012688D01*
X017449Y012682D01*
X017493Y012680D01*
X020943Y012430D02*
X020943Y011930D01*
X021193Y011680D01*
X020943Y011430D01*
X020943Y010930D01*
X021193Y010680D01*
X020943Y010430D01*
X020943Y009930D01*
X021193Y009680D01*
X020943Y009430D01*
X020943Y008930D01*
X021193Y008680D01*
X020943Y008430D01*
X020943Y007930D01*
X021193Y007680D01*
X021693Y007680D01*
X021943Y007930D01*
X021943Y008430D01*
X021693Y008680D01*
X021943Y008930D01*
X021943Y009430D01*
X021693Y009680D01*
X021943Y009930D01*
X021943Y010430D01*
X021693Y010680D01*
X021943Y010930D01*
X021943Y011430D01*
X021693Y011680D01*
X021943Y011930D01*
X021943Y012430D01*
X021693Y012680D01*
X021943Y012930D01*
X021943Y013430D01*
X021693Y013680D01*
X021943Y013930D01*
X021943Y014430D01*
X021693Y014680D01*
X021943Y014930D01*
X021943Y015430D01*
X021693Y015680D01*
X021943Y015930D01*
X021943Y016430D01*
X021693Y016680D01*
X021943Y016930D01*
X021943Y017430D01*
X021693Y017680D01*
X021193Y017680D01*
X020943Y017430D01*
X020943Y016930D01*
X021193Y016680D01*
X020943Y016430D01*
X020943Y015930D01*
X021193Y015680D01*
X020943Y015430D01*
X020943Y014930D01*
X021193Y014680D01*
X020943Y014430D01*
X020943Y013930D01*
X021193Y013680D01*
X020943Y013430D01*
X020943Y012930D01*
X021193Y012680D01*
X020943Y012430D01*
X021943Y012430D02*
X021943Y011930D01*
X022193Y011680D01*
X021943Y011430D01*
X021943Y010930D01*
X022193Y010680D01*
X021943Y010430D01*
X021943Y009930D01*
X022193Y009680D01*
X021943Y009430D01*
X021943Y008930D01*
X022193Y008680D01*
X021943Y008430D01*
X021943Y007930D01*
X022193Y007680D01*
X022693Y007680D01*
X022943Y007930D01*
X022943Y008430D01*
X022693Y008680D01*
X022943Y008930D01*
X022943Y009430D01*
X022693Y009680D01*
X022943Y009930D01*
X022943Y010430D01*
X022693Y010680D01*
X022943Y010930D01*
X022943Y011430D01*
X022693Y011680D01*
X022943Y011930D01*
X022943Y012430D01*
X022693Y012680D01*
X022943Y012930D01*
X022943Y013430D01*
X022693Y013680D01*
X022943Y013930D01*
X022943Y014430D01*
X022693Y014680D01*
X022943Y014930D01*
X022943Y015430D01*
X022693Y015680D01*
X022943Y015930D01*
X022943Y016430D01*
X022693Y016680D01*
X022943Y016930D01*
X022943Y017430D01*
X022693Y017680D01*
X022193Y017680D01*
X021943Y017430D01*
X021943Y016930D01*
X022193Y016680D01*
X021943Y016430D01*
X021943Y015930D01*
X022193Y015680D01*
X021943Y015430D01*
X021943Y014930D01*
X022193Y014680D01*
X021943Y014430D01*
X021943Y013930D01*
X022193Y013680D01*
X021943Y013430D01*
X021943Y012930D01*
X022193Y012680D01*
X021943Y012430D01*
X026125Y013994D02*
X026361Y013994D01*
X026361Y014466D02*
X026125Y014466D01*
X026125Y017994D02*
X026361Y017994D01*
X026361Y018466D02*
X026125Y018466D01*
X016561Y009916D02*
X016325Y009916D01*
X016325Y009444D02*
X016561Y009444D01*
X015693Y009030D02*
X015693Y008630D01*
X015693Y009030D02*
X015691Y009047D01*
X015687Y009064D01*
X015680Y009080D01*
X015670Y009094D01*
X015657Y009107D01*
X015643Y009117D01*
X015627Y009124D01*
X015610Y009128D01*
X015593Y009130D01*
X011293Y009130D01*
X011276Y009128D01*
X011259Y009124D01*
X011243Y009117D01*
X011229Y009107D01*
X011216Y009094D01*
X011206Y009080D01*
X011199Y009064D01*
X011195Y009047D01*
X011193Y009030D01*
X011193Y008630D01*
X011825Y009444D02*
X012061Y009444D01*
X012061Y009916D02*
X011825Y009916D01*
X010561Y009916D02*
X010325Y009916D01*
X010325Y009444D02*
X010561Y009444D01*
X008373Y009890D02*
X008373Y008470D01*
X006513Y008470D02*
X006513Y009890D01*
X006925Y011044D02*
X007161Y011044D01*
X007161Y011516D02*
X006925Y011516D01*
X008957Y011298D02*
X008957Y011062D01*
X009429Y011062D02*
X009429Y011298D01*
X009707Y011298D02*
X009707Y011062D01*
X010179Y011062D02*
X010179Y011298D01*
X013193Y008430D02*
X013193Y008180D01*
X013193Y007930D01*
X013343Y007930D02*
X013543Y007930D01*
X013543Y008430D01*
X013343Y008430D01*
X013343Y007930D01*
X013693Y007930D02*
X013693Y008180D01*
X013693Y008430D01*
X014825Y009444D02*
X015061Y009444D01*
X015061Y009916D02*
X014825Y009916D01*
X015693Y007730D02*
X015693Y007330D01*
X015691Y007313D01*
X015687Y007296D01*
X015680Y007280D01*
X015670Y007266D01*
X015657Y007253D01*
X015643Y007243D01*
X015627Y007236D01*
X015610Y007232D01*
X015593Y007230D01*
X011293Y007230D01*
X011276Y007232D01*
X011259Y007236D01*
X011243Y007243D01*
X011229Y007253D01*
X011216Y007266D01*
X011206Y007280D01*
X011199Y007296D01*
X011195Y007313D01*
X011193Y007330D01*
X011193Y007730D01*
X012593Y003630D02*
X012943Y003630D01*
X013943Y003630D01*
X014293Y003630D01*
X014643Y002830D02*
X014643Y002730D01*
X014743Y002730D01*
X014743Y002130D01*
X014643Y002130D01*
X014643Y002030D01*
X014293Y001230D02*
X013893Y001230D01*
X012943Y001230D01*
X012593Y001230D01*
X012243Y002030D02*
X012243Y002130D01*
X012143Y002130D01*
X012143Y002730D01*
X012243Y002730D01*
X012243Y002830D01*
X013343Y002430D02*
X013345Y002450D01*
X013351Y002468D01*
X013360Y002486D01*
X013372Y002501D01*
X013387Y002513D01*
X013405Y002522D01*
X013423Y002528D01*
X013443Y002530D01*
X013463Y002528D01*
X013481Y002522D01*
X013499Y002513D01*
X013514Y002501D01*
X013526Y002486D01*
X013535Y002468D01*
X013541Y002450D01*
X013543Y002430D01*
X013541Y002410D01*
X013535Y002392D01*
X013526Y002374D01*
X013514Y002359D01*
X013499Y002347D01*
X013481Y002338D01*
X013463Y002332D01*
X013443Y002330D01*
X013423Y002332D01*
X013405Y002338D01*
X013387Y002347D01*
X013372Y002359D01*
X013360Y002374D01*
X013351Y002392D01*
X013345Y002410D01*
X013343Y002430D01*
X012743Y002430D02*
X012745Y002482D01*
X012751Y002534D01*
X012761Y002586D01*
X012774Y002636D01*
X012791Y002686D01*
X012812Y002734D01*
X012837Y002780D01*
X012865Y002824D01*
X012896Y002866D01*
X012930Y002906D01*
X012967Y002943D01*
X013007Y002977D01*
X013049Y003008D01*
X013093Y003036D01*
X013139Y003061D01*
X013187Y003082D01*
X013237Y003099D01*
X013287Y003112D01*
X013339Y003122D01*
X013391Y003128D01*
X013443Y003130D01*
X013495Y003128D01*
X013547Y003122D01*
X013599Y003112D01*
X013649Y003099D01*
X013699Y003082D01*
X013747Y003061D01*
X013793Y003036D01*
X013837Y003008D01*
X013879Y002977D01*
X013919Y002943D01*
X013956Y002906D01*
X013990Y002866D01*
X014021Y002824D01*
X014049Y002780D01*
X014074Y002734D01*
X014095Y002686D01*
X014112Y002636D01*
X014125Y002586D01*
X014135Y002534D01*
X014141Y002482D01*
X014143Y002430D01*
X014141Y002378D01*
X014135Y002326D01*
X014125Y002274D01*
X014112Y002224D01*
X014095Y002174D01*
X014074Y002126D01*
X014049Y002080D01*
X014021Y002036D01*
X013990Y001994D01*
X013956Y001954D01*
X013919Y001917D01*
X013879Y001883D01*
X013837Y001852D01*
X013793Y001824D01*
X013747Y001799D01*
X013699Y001778D01*
X013649Y001761D01*
X013599Y001748D01*
X013547Y001738D01*
X013495Y001732D01*
X013443Y001730D01*
X013391Y001732D01*
X013339Y001738D01*
X013287Y001748D01*
X013237Y001761D01*
X013187Y001778D01*
X013139Y001799D01*
X013093Y001824D01*
X013049Y001852D01*
X013007Y001883D01*
X012967Y001917D01*
X012930Y001954D01*
X012896Y001994D01*
X012865Y002036D01*
X012837Y002080D01*
X012812Y002126D01*
X012791Y002174D01*
X012774Y002224D01*
X012761Y002274D01*
X012751Y002326D01*
X012745Y002378D01*
X012743Y002430D01*
X008661Y002994D02*
X008425Y002994D01*
X008425Y003466D02*
X008661Y003466D01*
X017143Y002730D02*
X017143Y002130D01*
X017243Y002130D01*
X017243Y002030D01*
X017243Y002730D02*
X017143Y002730D01*
X017243Y002730D02*
X017243Y002830D01*
X017593Y003630D02*
X017943Y003630D01*
X018943Y003630D01*
X019293Y003630D01*
X019643Y002830D02*
X019643Y002730D01*
X019743Y002730D01*
X019743Y002130D01*
X019643Y002130D01*
X019643Y002030D01*
X019293Y001230D02*
X018893Y001230D01*
X017943Y001230D01*
X017593Y001230D01*
X018343Y002430D02*
X018345Y002450D01*
X018351Y002468D01*
X018360Y002486D01*
X018372Y002501D01*
X018387Y002513D01*
X018405Y002522D01*
X018423Y002528D01*
X018443Y002530D01*
X018463Y002528D01*
X018481Y002522D01*
X018499Y002513D01*
X018514Y002501D01*
X018526Y002486D01*
X018535Y002468D01*
X018541Y002450D01*
X018543Y002430D01*
X018541Y002410D01*
X018535Y002392D01*
X018526Y002374D01*
X018514Y002359D01*
X018499Y002347D01*
X018481Y002338D01*
X018463Y002332D01*
X018443Y002330D01*
X018423Y002332D01*
X018405Y002338D01*
X018387Y002347D01*
X018372Y002359D01*
X018360Y002374D01*
X018351Y002392D01*
X018345Y002410D01*
X018343Y002430D01*
X017743Y002430D02*
X017745Y002482D01*
X017751Y002534D01*
X017761Y002586D01*
X017774Y002636D01*
X017791Y002686D01*
X017812Y002734D01*
X017837Y002780D01*
X017865Y002824D01*
X017896Y002866D01*
X017930Y002906D01*
X017967Y002943D01*
X018007Y002977D01*
X018049Y003008D01*
X018093Y003036D01*
X018139Y003061D01*
X018187Y003082D01*
X018237Y003099D01*
X018287Y003112D01*
X018339Y003122D01*
X018391Y003128D01*
X018443Y003130D01*
X018495Y003128D01*
X018547Y003122D01*
X018599Y003112D01*
X018649Y003099D01*
X018699Y003082D01*
X018747Y003061D01*
X018793Y003036D01*
X018837Y003008D01*
X018879Y002977D01*
X018919Y002943D01*
X018956Y002906D01*
X018990Y002866D01*
X019021Y002824D01*
X019049Y002780D01*
X019074Y002734D01*
X019095Y002686D01*
X019112Y002636D01*
X019125Y002586D01*
X019135Y002534D01*
X019141Y002482D01*
X019143Y002430D01*
X019141Y002378D01*
X019135Y002326D01*
X019125Y002274D01*
X019112Y002224D01*
X019095Y002174D01*
X019074Y002126D01*
X019049Y002080D01*
X019021Y002036D01*
X018990Y001994D01*
X018956Y001954D01*
X018919Y001917D01*
X018879Y001883D01*
X018837Y001852D01*
X018793Y001824D01*
X018747Y001799D01*
X018699Y001778D01*
X018649Y001761D01*
X018599Y001748D01*
X018547Y001738D01*
X018495Y001732D01*
X018443Y001730D01*
X018391Y001732D01*
X018339Y001738D01*
X018287Y001748D01*
X018237Y001761D01*
X018187Y001778D01*
X018139Y001799D01*
X018093Y001824D01*
X018049Y001852D01*
X018007Y001883D01*
X017967Y001917D01*
X017930Y001954D01*
X017896Y001994D01*
X017865Y002036D01*
X017837Y002080D01*
X017812Y002126D01*
X017791Y002174D01*
X017774Y002224D01*
X017761Y002274D01*
X017751Y002326D01*
X017745Y002378D01*
X017743Y002430D01*
X022143Y002130D02*
X022243Y002130D01*
X022243Y002030D01*
X022143Y002130D02*
X022143Y002730D01*
X022243Y002730D01*
X022243Y002830D01*
X022593Y003630D02*
X022943Y003630D01*
X023943Y003630D01*
X024293Y003630D01*
X024643Y002830D02*
X024643Y002730D01*
X024743Y002730D01*
X024743Y002130D01*
X024643Y002130D01*
X024643Y002030D01*
X024293Y001230D02*
X023893Y001230D01*
X022943Y001230D01*
X022593Y001230D01*
X023343Y002430D02*
X023345Y002450D01*
X023351Y002468D01*
X023360Y002486D01*
X023372Y002501D01*
X023387Y002513D01*
X023405Y002522D01*
X023423Y002528D01*
X023443Y002530D01*
X023463Y002528D01*
X023481Y002522D01*
X023499Y002513D01*
X023514Y002501D01*
X023526Y002486D01*
X023535Y002468D01*
X023541Y002450D01*
X023543Y002430D01*
X023541Y002410D01*
X023535Y002392D01*
X023526Y002374D01*
X023514Y002359D01*
X023499Y002347D01*
X023481Y002338D01*
X023463Y002332D01*
X023443Y002330D01*
X023423Y002332D01*
X023405Y002338D01*
X023387Y002347D01*
X023372Y002359D01*
X023360Y002374D01*
X023351Y002392D01*
X023345Y002410D01*
X023343Y002430D01*
X022743Y002430D02*
X022745Y002482D01*
X022751Y002534D01*
X022761Y002586D01*
X022774Y002636D01*
X022791Y002686D01*
X022812Y002734D01*
X022837Y002780D01*
X022865Y002824D01*
X022896Y002866D01*
X022930Y002906D01*
X022967Y002943D01*
X023007Y002977D01*
X023049Y003008D01*
X023093Y003036D01*
X023139Y003061D01*
X023187Y003082D01*
X023237Y003099D01*
X023287Y003112D01*
X023339Y003122D01*
X023391Y003128D01*
X023443Y003130D01*
X023495Y003128D01*
X023547Y003122D01*
X023599Y003112D01*
X023649Y003099D01*
X023699Y003082D01*
X023747Y003061D01*
X023793Y003036D01*
X023837Y003008D01*
X023879Y002977D01*
X023919Y002943D01*
X023956Y002906D01*
X023990Y002866D01*
X024021Y002824D01*
X024049Y002780D01*
X024074Y002734D01*
X024095Y002686D01*
X024112Y002636D01*
X024125Y002586D01*
X024135Y002534D01*
X024141Y002482D01*
X024143Y002430D01*
X024141Y002378D01*
X024135Y002326D01*
X024125Y002274D01*
X024112Y002224D01*
X024095Y002174D01*
X024074Y002126D01*
X024049Y002080D01*
X024021Y002036D01*
X023990Y001994D01*
X023956Y001954D01*
X023919Y001917D01*
X023879Y001883D01*
X023837Y001852D01*
X023793Y001824D01*
X023747Y001799D01*
X023699Y001778D01*
X023649Y001761D01*
X023599Y001748D01*
X023547Y001738D01*
X023495Y001732D01*
X023443Y001730D01*
X023391Y001732D01*
X023339Y001738D01*
X023287Y001748D01*
X023237Y001761D01*
X023187Y001778D01*
X023139Y001799D01*
X023093Y001824D01*
X023049Y001852D01*
X023007Y001883D01*
X022967Y001917D01*
X022930Y001954D01*
X022896Y001994D01*
X022865Y002036D01*
X022837Y002080D01*
X022812Y002126D01*
X022791Y002174D01*
X022774Y002224D01*
X022761Y002274D01*
X022751Y002326D01*
X022745Y002378D01*
X022743Y002430D01*
X029143Y002130D02*
X029243Y002130D01*
X029243Y002030D01*
X029143Y002130D02*
X029143Y002730D01*
X029243Y002730D01*
X029243Y002830D01*
X029593Y003630D02*
X029943Y003630D01*
X030943Y003630D01*
X031293Y003630D01*
X031643Y002830D02*
X031643Y002730D01*
X031743Y002730D01*
X031743Y002130D01*
X031643Y002130D01*
X031643Y002030D01*
X031293Y001230D02*
X030893Y001230D01*
X029943Y001230D01*
X029593Y001230D01*
X030343Y002430D02*
X030345Y002450D01*
X030351Y002468D01*
X030360Y002486D01*
X030372Y002501D01*
X030387Y002513D01*
X030405Y002522D01*
X030423Y002528D01*
X030443Y002530D01*
X030463Y002528D01*
X030481Y002522D01*
X030499Y002513D01*
X030514Y002501D01*
X030526Y002486D01*
X030535Y002468D01*
X030541Y002450D01*
X030543Y002430D01*
X030541Y002410D01*
X030535Y002392D01*
X030526Y002374D01*
X030514Y002359D01*
X030499Y002347D01*
X030481Y002338D01*
X030463Y002332D01*
X030443Y002330D01*
X030423Y002332D01*
X030405Y002338D01*
X030387Y002347D01*
X030372Y002359D01*
X030360Y002374D01*
X030351Y002392D01*
X030345Y002410D01*
X030343Y002430D01*
X029743Y002430D02*
X029745Y002482D01*
X029751Y002534D01*
X029761Y002586D01*
X029774Y002636D01*
X029791Y002686D01*
X029812Y002734D01*
X029837Y002780D01*
X029865Y002824D01*
X029896Y002866D01*
X029930Y002906D01*
X029967Y002943D01*
X030007Y002977D01*
X030049Y003008D01*
X030093Y003036D01*
X030139Y003061D01*
X030187Y003082D01*
X030237Y003099D01*
X030287Y003112D01*
X030339Y003122D01*
X030391Y003128D01*
X030443Y003130D01*
X030495Y003128D01*
X030547Y003122D01*
X030599Y003112D01*
X030649Y003099D01*
X030699Y003082D01*
X030747Y003061D01*
X030793Y003036D01*
X030837Y003008D01*
X030879Y002977D01*
X030919Y002943D01*
X030956Y002906D01*
X030990Y002866D01*
X031021Y002824D01*
X031049Y002780D01*
X031074Y002734D01*
X031095Y002686D01*
X031112Y002636D01*
X031125Y002586D01*
X031135Y002534D01*
X031141Y002482D01*
X031143Y002430D01*
X031141Y002378D01*
X031135Y002326D01*
X031125Y002274D01*
X031112Y002224D01*
X031095Y002174D01*
X031074Y002126D01*
X031049Y002080D01*
X031021Y002036D01*
X030990Y001994D01*
X030956Y001954D01*
X030919Y001917D01*
X030879Y001883D01*
X030837Y001852D01*
X030793Y001824D01*
X030747Y001799D01*
X030699Y001778D01*
X030649Y001761D01*
X030599Y001748D01*
X030547Y001738D01*
X030495Y001732D01*
X030443Y001730D01*
X030391Y001732D01*
X030339Y001738D01*
X030287Y001748D01*
X030237Y001761D01*
X030187Y001778D01*
X030139Y001799D01*
X030093Y001824D01*
X030049Y001852D01*
X030007Y001883D01*
X029967Y001917D01*
X029930Y001954D01*
X029896Y001994D01*
X029865Y002036D01*
X029837Y002080D01*
X029812Y002126D01*
X029791Y002174D01*
X029774Y002224D01*
X029761Y002274D01*
X029751Y002326D01*
X029745Y002378D01*
X029743Y002430D01*
X029593Y004730D02*
X029943Y004730D01*
X030893Y004730D01*
X031293Y004730D01*
X031643Y005530D02*
X031643Y005630D01*
X031743Y005630D01*
X031743Y006230D01*
X031643Y006230D01*
X031643Y006330D01*
X031293Y007130D02*
X030943Y007130D01*
X029943Y007130D01*
X029593Y007130D01*
X029243Y006330D02*
X029243Y006230D01*
X029143Y006230D01*
X029143Y005630D01*
X029243Y005630D01*
X029243Y005530D01*
X030343Y005930D02*
X030345Y005950D01*
X030351Y005968D01*
X030360Y005986D01*
X030372Y006001D01*
X030387Y006013D01*
X030405Y006022D01*
X030423Y006028D01*
X030443Y006030D01*
X030463Y006028D01*
X030481Y006022D01*
X030499Y006013D01*
X030514Y006001D01*
X030526Y005986D01*
X030535Y005968D01*
X030541Y005950D01*
X030543Y005930D01*
X030541Y005910D01*
X030535Y005892D01*
X030526Y005874D01*
X030514Y005859D01*
X030499Y005847D01*
X030481Y005838D01*
X030463Y005832D01*
X030443Y005830D01*
X030423Y005832D01*
X030405Y005838D01*
X030387Y005847D01*
X030372Y005859D01*
X030360Y005874D01*
X030351Y005892D01*
X030345Y005910D01*
X030343Y005930D01*
X029743Y005930D02*
X029745Y005982D01*
X029751Y006034D01*
X029761Y006086D01*
X029774Y006136D01*
X029791Y006186D01*
X029812Y006234D01*
X029837Y006280D01*
X029865Y006324D01*
X029896Y006366D01*
X029930Y006406D01*
X029967Y006443D01*
X030007Y006477D01*
X030049Y006508D01*
X030093Y006536D01*
X030139Y006561D01*
X030187Y006582D01*
X030237Y006599D01*
X030287Y006612D01*
X030339Y006622D01*
X030391Y006628D01*
X030443Y006630D01*
X030495Y006628D01*
X030547Y006622D01*
X030599Y006612D01*
X030649Y006599D01*
X030699Y006582D01*
X030747Y006561D01*
X030793Y006536D01*
X030837Y006508D01*
X030879Y006477D01*
X030919Y006443D01*
X030956Y006406D01*
X030990Y006366D01*
X031021Y006324D01*
X031049Y006280D01*
X031074Y006234D01*
X031095Y006186D01*
X031112Y006136D01*
X031125Y006086D01*
X031135Y006034D01*
X031141Y005982D01*
X031143Y005930D01*
X031141Y005878D01*
X031135Y005826D01*
X031125Y005774D01*
X031112Y005724D01*
X031095Y005674D01*
X031074Y005626D01*
X031049Y005580D01*
X031021Y005536D01*
X030990Y005494D01*
X030956Y005454D01*
X030919Y005417D01*
X030879Y005383D01*
X030837Y005352D01*
X030793Y005324D01*
X030747Y005299D01*
X030699Y005278D01*
X030649Y005261D01*
X030599Y005248D01*
X030547Y005238D01*
X030495Y005232D01*
X030443Y005230D01*
X030391Y005232D01*
X030339Y005238D01*
X030287Y005248D01*
X030237Y005261D01*
X030187Y005278D01*
X030139Y005299D01*
X030093Y005324D01*
X030049Y005352D01*
X030007Y005383D01*
X029967Y005417D01*
X029930Y005454D01*
X029896Y005494D01*
X029865Y005536D01*
X029837Y005580D01*
X029812Y005626D01*
X029791Y005674D01*
X029774Y005724D01*
X029761Y005774D01*
X029751Y005826D01*
X029745Y005878D01*
X029743Y005930D01*
D14*
X019523Y012681D02*
X019373Y012681D01*
X019373Y012631D02*
X019373Y012731D01*
X019398Y012779D02*
X019373Y012804D01*
X019373Y012854D01*
X019398Y012879D01*
X019373Y012926D02*
X019373Y013026D01*
X019398Y013026D01*
X019498Y012926D01*
X019523Y012926D01*
X019498Y012879D02*
X019523Y012854D01*
X019523Y012804D01*
X019498Y012779D01*
X019398Y012779D01*
X019398Y013073D02*
X019373Y013098D01*
X019373Y013148D01*
X019398Y013173D01*
X019373Y013221D02*
X019498Y013221D01*
X019523Y013246D01*
X019523Y013296D01*
X019498Y013321D01*
X019373Y013321D01*
X019398Y013368D02*
X019373Y013393D01*
X019373Y013443D01*
X019398Y013468D01*
X019498Y013368D01*
X019523Y013393D01*
X019523Y013443D01*
X019498Y013468D01*
X019398Y013468D01*
X019448Y013515D02*
X019448Y013615D01*
X019448Y013663D02*
X019448Y013713D01*
X019523Y013663D02*
X019373Y013663D01*
X019373Y013763D01*
X019373Y013590D02*
X019448Y013515D01*
X019523Y013590D02*
X019373Y013590D01*
X019398Y013368D02*
X019498Y013368D01*
X019498Y013173D02*
X019523Y013148D01*
X019523Y013098D01*
X019498Y013073D01*
X019448Y013098D02*
X019448Y013148D01*
X019473Y013173D01*
X019498Y013173D01*
X019448Y013098D02*
X019423Y013073D01*
X019398Y013073D01*
X018573Y013190D02*
X018373Y013190D01*
X018398Y013165D02*
X018398Y013215D01*
X018423Y013240D01*
X018473Y013215D02*
X018473Y013165D01*
X018448Y013140D01*
X018423Y013140D01*
X018398Y013165D01*
X018398Y013093D02*
X018523Y013093D01*
X018548Y013068D01*
X018548Y013018D01*
X018523Y012993D01*
X018398Y012993D01*
X018523Y013140D02*
X018548Y013165D01*
X018548Y013215D01*
X018523Y013240D01*
X018498Y013240D01*
X018473Y013215D01*
X018473Y013288D02*
X018473Y013388D01*
X018548Y013363D02*
X018398Y013363D01*
X018473Y013288D01*
X018101Y013925D02*
X018101Y014075D01*
X018201Y014075D01*
X018151Y014000D02*
X018101Y014000D01*
X018053Y014025D02*
X018053Y013925D01*
X017978Y013925D01*
X017953Y013950D01*
X017953Y014025D01*
X017856Y014075D02*
X017856Y013925D01*
X017806Y013925D02*
X017906Y013925D01*
X017806Y014025D02*
X017856Y014075D01*
X017757Y013950D02*
X017757Y013925D01*
X017732Y013925D01*
X017732Y013950D01*
X017757Y013950D01*
X017685Y013950D02*
X017660Y013925D01*
X017610Y013925D01*
X017585Y013950D01*
X017685Y014050D01*
X017685Y013950D01*
X017685Y014050D02*
X017660Y014075D01*
X017610Y014075D01*
X017585Y014050D01*
X017585Y013950D01*
X017778Y015300D02*
X017828Y015300D01*
X017853Y015325D01*
X017901Y015375D02*
X018001Y015375D01*
X017976Y015300D02*
X017976Y015450D01*
X017901Y015375D01*
X017853Y015425D02*
X017828Y015450D01*
X017778Y015450D01*
X017753Y015425D01*
X017753Y015325D01*
X017778Y015300D01*
X017076Y015981D02*
X017026Y015981D01*
X017001Y016006D01*
X016953Y016006D02*
X016928Y015981D01*
X016878Y015981D01*
X016853Y016006D01*
X016853Y016106D01*
X016878Y016131D01*
X016928Y016131D01*
X016953Y016106D01*
X017001Y016106D02*
X017026Y016131D01*
X017076Y016131D01*
X017101Y016106D01*
X017101Y016081D01*
X017076Y016056D01*
X017101Y016031D01*
X017101Y016006D01*
X017076Y015981D01*
X017076Y016056D02*
X017051Y016056D01*
X016101Y017175D02*
X016101Y017325D01*
X016201Y017325D01*
X016151Y017250D02*
X016101Y017250D01*
X016053Y017275D02*
X016053Y017175D01*
X015978Y017175D01*
X015953Y017200D01*
X015953Y017275D01*
X015856Y017325D02*
X015856Y017175D01*
X015806Y017175D02*
X015906Y017175D01*
X015806Y017275D02*
X015856Y017325D01*
X015757Y017200D02*
X015757Y017175D01*
X015732Y017175D01*
X015732Y017200D01*
X015757Y017200D01*
X015685Y017200D02*
X015660Y017175D01*
X015610Y017175D01*
X015585Y017200D01*
X015685Y017300D01*
X015685Y017200D01*
X015685Y017300D02*
X015660Y017325D01*
X015610Y017325D01*
X015585Y017300D01*
X015585Y017200D01*
X014098Y017518D02*
X014098Y017568D01*
X014073Y017593D01*
X013948Y017593D01*
X013973Y017640D02*
X013948Y017665D01*
X013948Y017715D01*
X013973Y017740D01*
X013973Y017788D02*
X013948Y017813D01*
X013948Y017863D01*
X013973Y017888D01*
X013998Y017888D01*
X014098Y017788D01*
X014098Y017888D01*
X014073Y017740D02*
X014048Y017740D01*
X014023Y017715D01*
X014023Y017665D01*
X013998Y017640D01*
X013973Y017640D01*
X013923Y017690D02*
X014123Y017690D01*
X014098Y017665D02*
X014098Y017715D01*
X014073Y017740D01*
X014098Y017665D02*
X014073Y017640D01*
X014098Y017518D02*
X014073Y017493D01*
X013948Y017493D01*
X013848Y017518D02*
X013823Y017493D01*
X013848Y017518D02*
X013848Y017568D01*
X013823Y017593D01*
X013798Y017593D01*
X013773Y017568D01*
X013773Y017543D01*
X013773Y017568D02*
X013748Y017593D01*
X013723Y017593D01*
X013698Y017568D01*
X013698Y017518D01*
X013723Y017493D01*
X013773Y017446D02*
X013773Y017346D01*
X013698Y017421D01*
X013848Y017421D01*
X013823Y017298D02*
X013848Y017273D01*
X013848Y017223D01*
X013823Y017198D01*
X013823Y017151D02*
X013848Y017126D01*
X013848Y017076D01*
X013823Y017051D01*
X013723Y017051D01*
X013698Y017076D01*
X013698Y017126D01*
X013723Y017151D01*
X013723Y017198D02*
X013748Y017198D01*
X013773Y017223D01*
X013773Y017273D01*
X013798Y017298D01*
X013823Y017298D01*
X013723Y017298D02*
X013698Y017273D01*
X013698Y017223D01*
X013723Y017198D01*
X013723Y017640D02*
X013698Y017665D01*
X013698Y017715D01*
X013723Y017740D01*
X013748Y017740D01*
X013773Y017715D01*
X013798Y017740D01*
X013823Y017740D01*
X013848Y017715D01*
X013848Y017665D01*
X013823Y017640D01*
X013773Y017690D02*
X013773Y017715D01*
X013773Y017788D02*
X013773Y017888D01*
X013848Y017863D02*
X013698Y017863D01*
X013773Y017788D01*
X015753Y018525D02*
X015778Y018500D01*
X015828Y018500D01*
X015853Y018525D01*
X015901Y018500D02*
X016001Y018600D01*
X016001Y018625D01*
X015976Y018650D01*
X015926Y018650D01*
X015901Y018625D01*
X015853Y018625D02*
X015828Y018650D01*
X015778Y018650D01*
X015753Y018625D01*
X015753Y018525D01*
X015901Y018500D02*
X016001Y018500D01*
X016695Y018351D02*
X016745Y018401D01*
X016745Y018251D01*
X016695Y018251D02*
X016795Y018251D01*
X016843Y018276D02*
X016868Y018251D01*
X016943Y018251D01*
X016943Y018351D01*
X016990Y018326D02*
X017040Y018326D01*
X016990Y018401D02*
X017090Y018401D01*
X016990Y018401D02*
X016990Y018251D01*
X016843Y018276D02*
X016843Y018351D01*
X009533Y014323D02*
X009533Y014273D01*
X009508Y014248D01*
X009508Y014200D02*
X009533Y014175D01*
X009533Y014125D01*
X009508Y014100D01*
X009408Y014100D01*
X009383Y014125D01*
X009383Y014175D01*
X009408Y014200D01*
X009383Y014248D02*
X009458Y014248D01*
X009433Y014298D01*
X009433Y014323D01*
X009458Y014348D01*
X009508Y014348D01*
X009533Y014323D01*
X009383Y014348D02*
X009383Y014248D01*
X009383Y014612D02*
X009358Y014637D01*
X009358Y014687D01*
X009383Y014712D01*
X009483Y014612D01*
X009508Y014637D01*
X009508Y014687D01*
X009483Y014712D01*
X009383Y014712D01*
X009383Y014612D02*
X009483Y014612D01*
X009483Y014759D02*
X009483Y014784D01*
X009508Y014784D01*
X009508Y014759D01*
X009483Y014759D01*
X009508Y014833D02*
X009508Y014933D01*
X009508Y014883D02*
X009358Y014883D01*
X009408Y014833D01*
X009408Y014980D02*
X009483Y014980D01*
X009508Y015005D01*
X009508Y015080D01*
X009408Y015080D01*
X009433Y015128D02*
X009433Y015178D01*
X009508Y015128D02*
X009358Y015128D01*
X009358Y015228D01*
X009988Y012288D02*
X009988Y012188D01*
X010138Y012188D01*
X010138Y012140D02*
X010038Y012140D01*
X010063Y012188D02*
X010063Y012238D01*
X010138Y012140D02*
X010138Y012065D01*
X010113Y012040D01*
X010038Y012040D01*
X009988Y011943D02*
X010138Y011943D01*
X010138Y011893D02*
X010138Y011993D01*
X010038Y011893D02*
X009988Y011943D01*
X009863Y011943D02*
X009838Y011918D01*
X009813Y011918D01*
X009788Y011943D01*
X009788Y011993D01*
X009813Y012018D01*
X009838Y012018D01*
X009863Y011993D01*
X009863Y011943D01*
X009788Y011943D02*
X009763Y011918D01*
X009738Y011918D01*
X009713Y011943D01*
X009713Y011993D01*
X009738Y012018D01*
X009763Y012018D01*
X009788Y011993D01*
X009838Y011870D02*
X009863Y011845D01*
X009863Y011795D01*
X009838Y011770D01*
X009738Y011770D01*
X009713Y011795D01*
X009713Y011845D01*
X009738Y011870D01*
X009988Y011747D02*
X010013Y011772D01*
X010113Y011672D01*
X010138Y011697D01*
X010138Y011747D01*
X010113Y011772D01*
X010013Y011772D01*
X009988Y011747D02*
X009988Y011697D01*
X010013Y011672D01*
X010113Y011672D01*
X010113Y011819D02*
X010113Y011844D01*
X010138Y011844D01*
X010138Y011819D01*
X010113Y011819D01*
X009438Y011810D02*
X009338Y011810D01*
X009338Y011885D01*
X009363Y011910D01*
X009438Y011910D01*
X009438Y011958D02*
X009288Y011958D01*
X009288Y012058D01*
X009363Y012008D02*
X009363Y011958D01*
X009438Y011763D02*
X009438Y011663D01*
X009438Y011713D02*
X009288Y011713D01*
X009338Y011663D01*
X009133Y011698D02*
X009133Y011748D01*
X009108Y011773D01*
X009133Y011820D02*
X009133Y011920D01*
X009133Y011968D02*
X009133Y012068D01*
X009133Y012018D02*
X008983Y012018D01*
X009033Y011968D01*
X008983Y011870D02*
X009133Y011870D01*
X009033Y011820D02*
X008983Y011870D01*
X009008Y011773D02*
X008983Y011748D01*
X008983Y011698D01*
X009008Y011673D01*
X009108Y011673D01*
X009133Y011698D01*
X007143Y011710D02*
X007118Y011685D01*
X007068Y011685D01*
X007042Y011710D01*
X007042Y011735D01*
X007068Y011760D01*
X007118Y011760D01*
X007143Y011735D01*
X007143Y011710D01*
X007118Y011685D02*
X007143Y011660D01*
X007143Y011635D01*
X007118Y011610D01*
X007068Y011610D01*
X007042Y011635D01*
X007042Y011660D01*
X007068Y011685D01*
X006995Y011610D02*
X006895Y011610D01*
X006945Y011610D02*
X006945Y011760D01*
X006895Y011710D01*
X006848Y011735D02*
X006823Y011760D01*
X006773Y011760D01*
X006748Y011735D01*
X006748Y011635D01*
X006773Y011610D01*
X006823Y011610D01*
X006848Y011635D01*
X006919Y010885D02*
X006919Y010735D01*
X006869Y010735D02*
X006969Y010735D01*
X007016Y010760D02*
X007041Y010735D01*
X007116Y010735D01*
X007116Y010835D01*
X007163Y010810D02*
X007214Y010810D01*
X007163Y010885D02*
X007264Y010885D01*
X007163Y010885D02*
X007163Y010735D01*
X007016Y010760D02*
X007016Y010835D01*
X006919Y010885D02*
X006869Y010835D01*
X006820Y010760D02*
X006820Y010735D01*
X006795Y010735D01*
X006795Y010760D01*
X006820Y010760D01*
X006748Y010760D02*
X006723Y010735D01*
X006673Y010735D01*
X006648Y010760D01*
X006748Y010860D01*
X006748Y010760D01*
X006748Y010860D02*
X006723Y010885D01*
X006673Y010885D01*
X006648Y010860D01*
X006648Y010760D01*
X006948Y009335D02*
X006948Y009210D01*
X006973Y009185D01*
X007023Y009185D01*
X007048Y009210D01*
X007048Y009335D01*
X007095Y009285D02*
X007145Y009335D01*
X007145Y009185D01*
X007095Y009185D02*
X007195Y009185D01*
X007170Y009085D02*
X007095Y009010D01*
X007195Y009010D01*
X007170Y008935D02*
X007170Y009085D01*
X007242Y009085D02*
X007242Y008935D01*
X007343Y008935D01*
X007390Y008960D02*
X007415Y008935D01*
X007465Y008935D01*
X007490Y008960D01*
X007537Y008960D02*
X007562Y008935D01*
X007612Y008935D01*
X007637Y008960D01*
X007637Y009010D01*
X007612Y009035D01*
X007587Y009035D01*
X007537Y009010D01*
X007537Y009085D01*
X007637Y009085D01*
X007684Y009035D02*
X007735Y009085D01*
X007735Y008935D01*
X007785Y008935D02*
X007684Y008935D01*
X007832Y008935D02*
X007932Y009035D01*
X007932Y009060D01*
X007907Y009085D01*
X007857Y009085D01*
X007832Y009060D01*
X007832Y008935D02*
X007932Y008935D01*
X007490Y009060D02*
X007465Y009085D01*
X007415Y009085D01*
X007390Y009060D01*
X007390Y008960D01*
X007048Y008935D02*
X006948Y008935D01*
X007048Y009035D01*
X007048Y009060D01*
X007023Y009085D01*
X006973Y009085D01*
X006948Y009060D01*
X009853Y010125D02*
X009878Y010100D01*
X009928Y010100D01*
X009953Y010125D01*
X010001Y010125D02*
X010026Y010100D01*
X010076Y010100D01*
X010101Y010125D01*
X010101Y010150D01*
X010076Y010175D01*
X010001Y010175D01*
X010001Y010125D01*
X010001Y010175D02*
X010051Y010225D01*
X010101Y010250D01*
X009953Y010225D02*
X009928Y010250D01*
X009878Y010250D01*
X009853Y010225D01*
X009853Y010125D01*
X010285Y010120D02*
X010385Y010220D01*
X010385Y010120D01*
X010360Y010095D01*
X010310Y010095D01*
X010285Y010120D01*
X010285Y010220D01*
X010310Y010245D01*
X010360Y010245D01*
X010385Y010220D01*
X010432Y010120D02*
X010457Y010120D01*
X010457Y010095D01*
X010432Y010095D01*
X010432Y010120D01*
X010506Y010095D02*
X010606Y010095D01*
X010556Y010095D02*
X010556Y010245D01*
X010506Y010195D01*
X010653Y010195D02*
X010653Y010120D01*
X010678Y010095D01*
X010753Y010095D01*
X010753Y010195D01*
X010801Y010170D02*
X010851Y010170D01*
X010801Y010245D02*
X010901Y010245D01*
X010801Y010245D02*
X010801Y010095D01*
X011286Y010085D02*
X011286Y010185D01*
X011311Y010210D01*
X011361Y010210D01*
X011386Y010185D01*
X011433Y010160D02*
X011483Y010210D01*
X011483Y010060D01*
X011433Y010060D02*
X011533Y010060D01*
X011581Y010085D02*
X011606Y010060D01*
X011656Y010060D01*
X011681Y010085D01*
X011681Y010110D01*
X011656Y010135D01*
X011631Y010135D01*
X011656Y010135D02*
X011681Y010160D01*
X011681Y010185D01*
X011656Y010210D01*
X011606Y010210D01*
X011581Y010185D01*
X011386Y010085D02*
X011361Y010060D01*
X011311Y010060D01*
X011286Y010085D01*
X011859Y010100D02*
X011884Y010075D01*
X011934Y010075D01*
X011959Y010100D01*
X011959Y010125D01*
X011934Y010150D01*
X011909Y010150D01*
X011934Y010150D02*
X011959Y010175D01*
X011959Y010200D01*
X011934Y010225D01*
X011884Y010225D01*
X011859Y010200D01*
X012006Y010200D02*
X012031Y010225D01*
X012081Y010225D01*
X012106Y010200D01*
X012106Y010175D01*
X012081Y010150D01*
X012106Y010125D01*
X012106Y010100D01*
X012081Y010075D01*
X012031Y010075D01*
X012006Y010100D01*
X012056Y010150D02*
X012081Y010150D01*
X012153Y010175D02*
X012153Y010025D01*
X012153Y010075D02*
X012228Y010075D01*
X012253Y010100D01*
X012253Y010150D01*
X012228Y010175D01*
X012153Y010175D01*
X012301Y010150D02*
X012351Y010150D01*
X012301Y010225D02*
X012401Y010225D01*
X012301Y010225D02*
X012301Y010075D01*
X014448Y010095D02*
X014473Y010070D01*
X014523Y010070D01*
X014548Y010095D01*
X014595Y010070D02*
X014695Y010070D01*
X014742Y010070D02*
X014843Y010170D01*
X014843Y010195D01*
X014818Y010220D01*
X014768Y010220D01*
X014742Y010195D01*
X014645Y010220D02*
X014645Y010070D01*
X014742Y010070D02*
X014843Y010070D01*
X015008Y010120D02*
X015033Y010095D01*
X015083Y010095D01*
X015108Y010120D01*
X015108Y010145D01*
X015083Y010170D01*
X015058Y010170D01*
X015083Y010170D02*
X015108Y010195D01*
X015108Y010220D01*
X015083Y010245D01*
X015033Y010245D01*
X015008Y010220D01*
X015155Y010220D02*
X015180Y010245D01*
X015230Y010245D01*
X015255Y010220D01*
X015255Y010195D01*
X015230Y010170D01*
X015255Y010145D01*
X015255Y010120D01*
X015230Y010095D01*
X015180Y010095D01*
X015155Y010120D01*
X015205Y010170D02*
X015230Y010170D01*
X015302Y010195D02*
X015302Y010045D01*
X015302Y010095D02*
X015378Y010095D01*
X015403Y010120D01*
X015403Y010170D01*
X015378Y010195D01*
X015302Y010195D01*
X015450Y010170D02*
X015500Y010170D01*
X015450Y010245D02*
X015550Y010245D01*
X015450Y010245D02*
X015450Y010095D01*
X015948Y010115D02*
X015948Y010215D01*
X015973Y010240D01*
X016023Y010240D01*
X016048Y010215D01*
X016095Y010240D02*
X016195Y010240D01*
X016195Y010215D01*
X016095Y010115D01*
X016095Y010090D01*
X016048Y010115D02*
X016023Y010090D01*
X015973Y010090D01*
X015948Y010115D01*
X016408Y010120D02*
X016408Y010220D01*
X016433Y010245D01*
X016483Y010245D01*
X016508Y010220D01*
X016408Y010120D01*
X016433Y010095D01*
X016483Y010095D01*
X016508Y010120D01*
X016508Y010220D01*
X016555Y010120D02*
X016580Y010120D01*
X016580Y010095D01*
X016555Y010095D01*
X016555Y010120D01*
X016629Y010095D02*
X016729Y010095D01*
X016679Y010095D02*
X016679Y010245D01*
X016629Y010195D01*
X016776Y010195D02*
X016776Y010120D01*
X016801Y010095D01*
X016876Y010095D01*
X016876Y010195D01*
X016923Y010170D02*
X016974Y010170D01*
X016923Y010245D02*
X017024Y010245D01*
X016923Y010245D02*
X016923Y010095D01*
X014645Y010220D02*
X014595Y010170D01*
X014548Y010195D02*
X014523Y010220D01*
X014473Y010220D01*
X014448Y010195D01*
X014448Y010095D01*
X009495Y003510D02*
X009495Y003360D01*
X009445Y003360D02*
X009545Y003360D01*
X009445Y003460D02*
X009495Y003510D01*
X009398Y003485D02*
X009373Y003510D01*
X009323Y003510D01*
X009298Y003485D01*
X009298Y003385D01*
X009323Y003360D01*
X009373Y003360D01*
X009398Y003385D01*
X009373Y003135D02*
X009398Y003110D01*
X009298Y003010D01*
X009323Y002985D01*
X009373Y002985D01*
X009398Y003010D01*
X009398Y003110D01*
X009373Y003135D02*
X009323Y003135D01*
X009298Y003110D01*
X009298Y003010D01*
X009445Y003010D02*
X009470Y003010D01*
X009470Y002985D01*
X009445Y002985D01*
X009445Y003010D01*
X009519Y002985D02*
X009619Y002985D01*
X009569Y002985D02*
X009569Y003135D01*
X009519Y003085D01*
X009666Y003085D02*
X009666Y003010D01*
X009691Y002985D01*
X009766Y002985D01*
X009766Y003085D01*
X009813Y003060D02*
X009864Y003060D01*
X009813Y003135D02*
X009914Y003135D01*
X009813Y003135D02*
X009813Y002985D01*
X024806Y013556D02*
X024831Y013531D01*
X024881Y013531D01*
X024906Y013556D01*
X024953Y013531D02*
X025053Y013531D01*
X025003Y013531D02*
X025003Y013681D01*
X024953Y013631D01*
X024906Y013656D02*
X024881Y013681D01*
X024831Y013681D01*
X024806Y013656D01*
X024806Y013556D01*
X025101Y013556D02*
X025126Y013531D01*
X025176Y013531D01*
X025201Y013556D01*
X025201Y013606D01*
X025176Y013631D01*
X025151Y013631D01*
X025101Y013606D01*
X025101Y013681D01*
X025201Y013681D01*
X026106Y013775D02*
X026131Y013750D01*
X026181Y013750D01*
X026206Y013775D01*
X026253Y013750D02*
X026353Y013750D01*
X026401Y013750D02*
X026401Y013775D01*
X026501Y013875D01*
X026501Y013900D01*
X026401Y013900D01*
X026303Y013900D02*
X026303Y013750D01*
X026253Y013850D02*
X026303Y013900D01*
X026206Y013875D02*
X026181Y013900D01*
X026131Y013900D01*
X026106Y013875D01*
X026106Y013775D01*
X029766Y015075D02*
X029866Y015075D01*
X029913Y015075D02*
X029963Y015075D01*
X029938Y015075D02*
X029938Y015225D01*
X029913Y015225D02*
X029963Y015225D01*
X030011Y015225D02*
X030111Y015075D01*
X030111Y015225D01*
X030159Y015225D02*
X030159Y015075D01*
X030259Y015075D01*
X030306Y015100D02*
X030331Y015075D01*
X030381Y015075D01*
X030406Y015100D01*
X030406Y015200D01*
X030381Y015225D01*
X030331Y015225D01*
X030306Y015200D01*
X030306Y015100D01*
X030209Y015150D02*
X030159Y015150D01*
X030159Y015225D02*
X030259Y015225D01*
X030453Y015225D02*
X030453Y015100D01*
X030478Y015075D01*
X030528Y015075D01*
X030553Y015100D01*
X030553Y015225D01*
X030601Y015225D02*
X030701Y015225D01*
X030651Y015225D02*
X030651Y015075D01*
X030011Y015075D02*
X030011Y015225D01*
X029766Y015225D02*
X029766Y015075D01*
X026501Y017775D02*
X026501Y017800D01*
X026476Y017825D01*
X026401Y017825D01*
X026401Y017775D01*
X026426Y017750D01*
X026476Y017750D01*
X026501Y017775D01*
X026451Y017875D02*
X026401Y017825D01*
X026451Y017875D02*
X026501Y017900D01*
X026303Y017900D02*
X026303Y017750D01*
X026253Y017750D02*
X026353Y017750D01*
X026253Y017850D02*
X026303Y017900D01*
X026206Y017875D02*
X026181Y017900D01*
X026131Y017900D01*
X026106Y017875D01*
X026106Y017775D01*
X026131Y017750D01*
X026181Y017750D01*
X026206Y017775D01*
X025201Y017606D02*
X025101Y017606D01*
X025176Y017681D01*
X025176Y017531D01*
X025053Y017531D02*
X024953Y017531D01*
X025003Y017531D02*
X025003Y017681D01*
X024953Y017631D01*
X024906Y017656D02*
X024881Y017681D01*
X024831Y017681D01*
X024806Y017656D01*
X024806Y017556D01*
X024831Y017531D01*
X024881Y017531D01*
X024906Y017556D01*
D15*
X024093Y017830D02*
X024093Y018630D01*
X022828Y017855D02*
X022528Y017855D01*
X022678Y017855D02*
X022678Y018305D01*
X022528Y018155D01*
X022368Y018305D02*
X022218Y018305D01*
X022293Y018305D02*
X022293Y017930D01*
X022218Y017855D01*
X022143Y017855D01*
X022068Y017930D01*
X021878Y017930D02*
X021803Y017855D01*
X021653Y017855D01*
X021578Y017930D01*
X021728Y018080D02*
X021803Y018080D01*
X021878Y018005D01*
X021878Y017930D01*
X021803Y018080D02*
X021878Y018155D01*
X021878Y018230D01*
X021803Y018305D01*
X021653Y018305D01*
X021578Y018230D01*
X021418Y018305D02*
X021268Y018305D01*
X021343Y018305D02*
X021343Y017930D01*
X021268Y017855D01*
X021193Y017855D01*
X021118Y017930D01*
X021393Y017716D02*
X021693Y017415D01*
X021768Y017490D01*
X021768Y017641D01*
X021693Y017716D01*
X021393Y017716D01*
X021317Y017641D01*
X021317Y017490D01*
X021393Y017415D01*
X021693Y017415D01*
X021768Y017255D02*
X021768Y016955D01*
X021768Y017105D02*
X021317Y017105D01*
X021468Y016955D01*
X020768Y016955D02*
X020768Y017255D01*
X020768Y017105D02*
X020317Y017105D01*
X020468Y016955D01*
X020393Y017415D02*
X020317Y017490D01*
X020317Y017641D01*
X020393Y017716D01*
X020693Y017415D01*
X020768Y017490D01*
X020768Y017641D01*
X020693Y017716D01*
X020393Y017716D01*
X020393Y017415D02*
X020693Y017415D01*
X017343Y017330D02*
X016543Y017330D01*
X024093Y014630D02*
X024093Y013830D01*
X023568Y008305D02*
X023568Y008005D01*
X023568Y008155D02*
X023117Y008155D01*
X023268Y008005D01*
X022568Y008005D02*
X022568Y008305D01*
X022568Y008155D02*
X022117Y008155D01*
X022268Y008005D01*
X015058Y012080D02*
X014983Y012005D01*
X014833Y012005D01*
X014757Y012080D01*
X014597Y012005D02*
X014297Y012005D01*
X014447Y012005D02*
X014447Y012455D01*
X014297Y012305D01*
X014137Y012380D02*
X014137Y012080D01*
X014062Y012005D01*
X013912Y012005D01*
X013837Y012080D01*
X014137Y012380D01*
X014062Y012455D01*
X013912Y012455D01*
X013837Y012380D01*
X013837Y012080D01*
X013677Y012005D02*
X013677Y012305D01*
X013526Y012455D01*
X013376Y012305D01*
X013376Y012005D01*
X013376Y012230D02*
X013677Y012230D01*
X013216Y012455D02*
X012916Y012455D01*
X013066Y012455D02*
X013066Y012005D01*
X012756Y012080D02*
X012681Y012005D01*
X012531Y012005D01*
X012455Y012080D01*
X012531Y012230D02*
X012681Y012230D01*
X012756Y012155D01*
X012756Y012080D01*
X012531Y012230D02*
X012455Y012305D01*
X012455Y012380D01*
X012531Y012455D01*
X012681Y012455D01*
X012756Y012380D01*
X014757Y012380D02*
X014833Y012455D01*
X014983Y012455D01*
X015058Y012380D01*
X015058Y012305D01*
X014983Y012230D01*
X015058Y012155D01*
X015058Y012080D01*
X014983Y012230D02*
X014908Y012230D01*
X006568Y008305D02*
X006568Y008005D01*
X006568Y008155D02*
X006117Y008155D01*
X006268Y008005D01*
X005568Y008005D02*
X005568Y008305D01*
X005568Y008155D02*
X005117Y008155D01*
X005268Y008005D01*
X007607Y006430D02*
X001938Y006430D01*
X001938Y006036D01*
X001971Y006038D01*
X002004Y006037D01*
X002037Y006032D01*
X002069Y006024D01*
X002100Y006013D01*
X002130Y005999D01*
X002158Y005981D01*
X002184Y005961D01*
X002208Y005938D01*
X002230Y005912D01*
X002248Y005885D01*
X002264Y005856D01*
X002277Y005825D01*
X002286Y005793D01*
X002292Y005760D01*
X002292Y005761D02*
X002292Y001942D01*
X002290Y001893D01*
X002284Y001843D01*
X002275Y001795D01*
X002261Y001747D01*
X002244Y001701D01*
X002223Y001656D01*
X002199Y001613D01*
X002172Y001572D01*
X002141Y001533D01*
X002107Y001497D01*
X002071Y001463D01*
X002032Y001432D01*
X001991Y001405D01*
X001948Y001381D01*
X001903Y001360D01*
X001857Y001343D01*
X001809Y001329D01*
X001761Y001320D01*
X001711Y001314D01*
X001662Y001312D01*
X001662Y000918D01*
X007607Y000918D01*
X007607Y006430D01*
X004768Y016955D02*
X004768Y017255D01*
X004768Y017105D02*
X004317Y017105D01*
X004468Y016955D01*
X004393Y017415D02*
X004317Y017490D01*
X004317Y017641D01*
X004393Y017716D01*
X004693Y017415D01*
X004768Y017490D01*
X004768Y017641D01*
X004693Y017716D01*
X004393Y017716D01*
X004318Y017855D02*
X004393Y017930D01*
X004393Y018305D01*
X004318Y018305D02*
X004468Y018305D01*
X004628Y018230D02*
X004703Y018305D01*
X004853Y018305D01*
X004928Y018230D01*
X004928Y018155D01*
X004628Y017855D01*
X004928Y017855D01*
X005118Y017930D02*
X005193Y017855D01*
X005268Y017855D01*
X005343Y017930D01*
X005343Y018305D01*
X005268Y018305D02*
X005418Y018305D01*
X005578Y018080D02*
X005878Y018080D01*
X005803Y017855D02*
X005803Y018305D01*
X005578Y018080D01*
X004693Y017415D02*
X004393Y017415D01*
X004318Y017855D02*
X004243Y017855D01*
X004168Y017930D01*
X003768Y017641D02*
X003768Y017490D01*
X003693Y017415D01*
X003393Y017716D01*
X003693Y017716D01*
X003768Y017641D01*
X003693Y017415D02*
X003393Y017415D01*
X003317Y017490D01*
X003317Y017641D01*
X003393Y017716D01*
X003768Y017255D02*
X003768Y016955D01*
X003768Y017105D02*
X003317Y017105D01*
X003468Y016955D01*
X004087Y020925D02*
X004388Y020925D01*
X004548Y021000D02*
X004623Y020925D01*
X004773Y020925D01*
X004848Y021000D01*
X005008Y020925D02*
X005233Y020925D01*
X005308Y021000D01*
X005308Y021300D01*
X005233Y021375D01*
X005008Y021375D01*
X005008Y020925D01*
X004548Y021000D02*
X004548Y021300D01*
X004623Y021375D01*
X004773Y021375D01*
X004848Y021300D01*
X004087Y021375D02*
X004087Y020925D01*
X029792Y021046D02*
X030225Y021046D01*
X030225Y019353D01*
X029792Y019353D01*
X029792Y019314D01*
X031681Y020062D02*
X032823Y020062D01*
X032823Y020298D02*
X031681Y020298D01*
X031681Y020062D01*
D16*
X026579Y018770D02*
X026432Y018770D01*
X026432Y018550D01*
X026358Y018550D02*
X026358Y018660D01*
X026321Y018697D01*
X026211Y018697D01*
X026211Y018550D01*
X026137Y018587D02*
X026100Y018550D01*
X026027Y018550D01*
X025990Y018587D01*
X025916Y018587D02*
X025916Y018550D01*
X025879Y018550D01*
X025879Y018587D01*
X025916Y018587D01*
X025805Y018587D02*
X025768Y018550D01*
X025695Y018550D01*
X025658Y018587D01*
X025732Y018660D02*
X025768Y018660D01*
X025805Y018623D01*
X025805Y018587D01*
X025768Y018660D02*
X025805Y018697D01*
X025805Y018733D01*
X025768Y018770D01*
X025695Y018770D01*
X025658Y018733D01*
X025990Y018733D02*
X026027Y018770D01*
X026100Y018770D01*
X026137Y018733D01*
X026137Y018697D01*
X026100Y018660D01*
X026137Y018623D01*
X026137Y018587D01*
X026100Y018660D02*
X026063Y018660D01*
X026432Y018660D02*
X026505Y018660D01*
X024679Y018750D02*
X024569Y018823D01*
X024679Y018897D01*
X024569Y018970D02*
X024569Y018750D01*
X024494Y018787D02*
X024458Y018750D01*
X024384Y018750D01*
X024348Y018787D01*
X024494Y018933D01*
X024494Y018787D01*
X024348Y018787D02*
X024348Y018933D01*
X024384Y018970D01*
X024458Y018970D01*
X024494Y018933D01*
X024274Y018933D02*
X024127Y018787D01*
X024127Y018750D01*
X024053Y018750D02*
X023906Y018750D01*
X024053Y018897D01*
X024053Y018933D01*
X024016Y018970D01*
X023942Y018970D01*
X023906Y018933D01*
X024127Y018970D02*
X024274Y018970D01*
X024274Y018933D01*
X024261Y019950D02*
X024408Y019950D01*
X024334Y019950D02*
X024334Y020170D01*
X024261Y020097D01*
X024187Y020133D02*
X024187Y020060D01*
X024150Y020023D01*
X024040Y020023D01*
X024040Y019950D02*
X024040Y020170D01*
X024150Y020170D01*
X024187Y020133D01*
X024113Y020023D02*
X024187Y019950D01*
X024482Y019950D02*
X024629Y019950D01*
X024555Y019950D02*
X024555Y020170D01*
X024482Y020097D01*
X024018Y017696D02*
X023871Y017696D01*
X023871Y017476D01*
X023797Y017476D02*
X023797Y017622D01*
X023871Y017586D02*
X023945Y017586D01*
X023797Y017476D02*
X023687Y017476D01*
X023650Y017512D01*
X023650Y017622D01*
X023576Y017622D02*
X023539Y017586D01*
X023576Y017549D01*
X023576Y017512D01*
X023539Y017476D01*
X023466Y017476D01*
X023429Y017512D01*
X023355Y017512D02*
X023355Y017476D01*
X023319Y017476D01*
X023319Y017512D01*
X023355Y017512D01*
X023245Y017512D02*
X023208Y017476D01*
X023134Y017476D01*
X023098Y017512D01*
X023171Y017586D02*
X023208Y017586D01*
X023245Y017549D01*
X023245Y017512D01*
X023208Y017586D02*
X023245Y017622D01*
X023245Y017659D01*
X023208Y017696D01*
X023134Y017696D01*
X023098Y017659D01*
X023429Y017659D02*
X023466Y017696D01*
X023539Y017696D01*
X023576Y017659D01*
X023576Y017622D01*
X023539Y017586D02*
X023503Y017586D01*
X023453Y016510D02*
X023563Y016510D01*
X023600Y016473D01*
X023600Y016400D01*
X023563Y016363D01*
X023453Y016363D01*
X023453Y016290D02*
X023453Y016510D01*
X023526Y016363D02*
X023600Y016290D01*
X023674Y016290D02*
X023821Y016290D01*
X023747Y016290D02*
X023747Y016510D01*
X023674Y016437D01*
X023895Y016473D02*
X023932Y016510D01*
X024005Y016510D01*
X024042Y016473D01*
X024042Y016437D01*
X024005Y016400D01*
X024042Y016363D01*
X024042Y016327D01*
X024005Y016290D01*
X023932Y016290D01*
X023895Y016327D01*
X023968Y016400D02*
X024005Y016400D01*
X024005Y016110D02*
X023895Y016000D01*
X024042Y016000D01*
X024005Y015890D02*
X024005Y016110D01*
X023747Y016110D02*
X023747Y015890D01*
X023674Y015890D02*
X023821Y015890D01*
X023674Y016037D02*
X023747Y016110D01*
X023600Y016073D02*
X023600Y016000D01*
X023563Y015963D01*
X023453Y015963D01*
X023453Y015890D02*
X023453Y016110D01*
X023563Y016110D01*
X023600Y016073D01*
X023526Y015963D02*
X023600Y015890D01*
X024503Y015940D02*
X024650Y015940D01*
X024576Y015940D02*
X024576Y016160D01*
X024503Y016087D01*
X024503Y016290D02*
X024650Y016290D01*
X024576Y016290D02*
X024576Y016510D01*
X024503Y016437D01*
X024724Y016473D02*
X024724Y016327D01*
X024871Y016473D01*
X024871Y016327D01*
X024834Y016290D01*
X024761Y016290D01*
X024724Y016327D01*
X024724Y016473D02*
X024761Y016510D01*
X024834Y016510D01*
X024871Y016473D01*
X024945Y016510D02*
X024945Y016290D01*
X024945Y016363D02*
X025055Y016437D01*
X024945Y016363D02*
X025055Y016290D01*
X024945Y016160D02*
X024945Y015940D01*
X024945Y016013D02*
X025055Y015940D01*
X024945Y016013D02*
X025055Y016087D01*
X024871Y016123D02*
X024724Y015977D01*
X024761Y015940D01*
X024834Y015940D01*
X024871Y015977D01*
X024871Y016123D01*
X024834Y016160D01*
X024761Y016160D01*
X024724Y016123D01*
X024724Y015977D01*
X025390Y015973D02*
X025500Y015973D01*
X025537Y016010D01*
X025537Y016083D01*
X025500Y016120D01*
X025390Y016120D01*
X025390Y015900D01*
X025463Y015973D02*
X025537Y015900D01*
X025611Y015900D02*
X025758Y015900D01*
X025684Y015900D02*
X025684Y016120D01*
X025611Y016047D01*
X025832Y016010D02*
X025942Y016010D01*
X025979Y015973D01*
X025979Y015937D01*
X025942Y015900D01*
X025869Y015900D01*
X025832Y015937D01*
X025832Y016010D01*
X025905Y016083D01*
X025979Y016120D01*
X025942Y016300D02*
X025869Y016300D01*
X025832Y016337D01*
X025832Y016410D02*
X025905Y016447D01*
X025942Y016447D01*
X025979Y016410D01*
X025979Y016337D01*
X025942Y016300D01*
X025832Y016410D02*
X025832Y016520D01*
X025979Y016520D01*
X025684Y016520D02*
X025684Y016300D01*
X025611Y016300D02*
X025758Y016300D01*
X025611Y016447D02*
X025684Y016520D01*
X025537Y016483D02*
X025537Y016410D01*
X025500Y016373D01*
X025390Y016373D01*
X025390Y016300D02*
X025390Y016520D01*
X025500Y016520D01*
X025537Y016483D01*
X025463Y016373D02*
X025537Y016300D01*
X026290Y016337D02*
X026327Y016300D01*
X026400Y016300D01*
X026437Y016337D01*
X026437Y016410D01*
X026400Y016447D01*
X026363Y016447D01*
X026290Y016410D01*
X026290Y016520D01*
X026437Y016520D01*
X026511Y016410D02*
X026584Y016483D01*
X026658Y016520D01*
X026732Y016483D02*
X026732Y016337D01*
X026879Y016483D01*
X026879Y016337D01*
X026842Y016300D01*
X026769Y016300D01*
X026732Y016337D01*
X026658Y016337D02*
X026658Y016373D01*
X026621Y016410D01*
X026511Y016410D01*
X026511Y016337D01*
X026548Y016300D01*
X026621Y016300D01*
X026658Y016337D01*
X026732Y016483D02*
X026769Y016520D01*
X026842Y016520D01*
X026879Y016483D01*
X026842Y016120D02*
X026879Y016083D01*
X026732Y015937D01*
X026769Y015900D01*
X026842Y015900D01*
X026879Y015937D01*
X026879Y016083D01*
X026842Y016120D02*
X026769Y016120D01*
X026732Y016083D01*
X026732Y015937D01*
X026658Y015937D02*
X026658Y015973D01*
X026621Y016010D01*
X026511Y016010D01*
X026511Y015937D01*
X026548Y015900D01*
X026621Y015900D01*
X026658Y015937D01*
X026584Y016083D02*
X026511Y016010D01*
X026437Y016010D02*
X026437Y015937D01*
X026400Y015900D01*
X026327Y015900D01*
X026290Y015937D01*
X026290Y016010D02*
X026363Y016047D01*
X026400Y016047D01*
X026437Y016010D01*
X026437Y016120D02*
X026290Y016120D01*
X026290Y016010D01*
X026584Y016083D02*
X026658Y016120D01*
X026579Y014770D02*
X026432Y014770D01*
X026432Y014550D01*
X026358Y014550D02*
X026358Y014660D01*
X026321Y014697D01*
X026211Y014697D01*
X026211Y014550D01*
X026137Y014587D02*
X026100Y014550D01*
X026027Y014550D01*
X025990Y014587D01*
X025916Y014587D02*
X025916Y014550D01*
X025879Y014550D01*
X025879Y014587D01*
X025916Y014587D01*
X025805Y014587D02*
X025768Y014550D01*
X025695Y014550D01*
X025658Y014587D01*
X025732Y014660D02*
X025768Y014660D01*
X025805Y014623D01*
X025805Y014587D01*
X025768Y014660D02*
X025805Y014697D01*
X025805Y014733D01*
X025768Y014770D01*
X025695Y014770D01*
X025658Y014733D01*
X025990Y014733D02*
X026027Y014770D01*
X026100Y014770D01*
X026137Y014733D01*
X026137Y014697D01*
X026100Y014660D01*
X026137Y014623D01*
X026137Y014587D01*
X026100Y014660D02*
X026063Y014660D01*
X026432Y014660D02*
X026505Y014660D01*
X024679Y013533D02*
X024642Y013570D01*
X024569Y013570D01*
X024532Y013533D01*
X024679Y013533D02*
X024679Y013497D01*
X024532Y013350D01*
X024679Y013350D01*
X024458Y013350D02*
X024311Y013350D01*
X024384Y013350D02*
X024384Y013570D01*
X024311Y013497D01*
X024237Y013533D02*
X024237Y013460D01*
X024200Y013423D01*
X024090Y013423D01*
X024090Y013350D02*
X024090Y013570D01*
X024200Y013570D01*
X024237Y013533D01*
X024163Y013423D02*
X024237Y013350D01*
X023945Y013586D02*
X023871Y013586D01*
X023797Y013622D02*
X023797Y013476D01*
X023687Y013476D01*
X023650Y013512D01*
X023650Y013622D01*
X023576Y013622D02*
X023539Y013586D01*
X023576Y013549D01*
X023576Y013512D01*
X023539Y013476D01*
X023466Y013476D01*
X023429Y013512D01*
X023355Y013512D02*
X023355Y013476D01*
X023319Y013476D01*
X023319Y013512D01*
X023355Y013512D01*
X023245Y013512D02*
X023208Y013476D01*
X023134Y013476D01*
X023098Y013512D01*
X023171Y013586D02*
X023208Y013586D01*
X023245Y013549D01*
X023245Y013512D01*
X023208Y013586D02*
X023245Y013622D01*
X023245Y013659D01*
X023208Y013696D01*
X023134Y013696D01*
X023098Y013659D01*
X023429Y013659D02*
X023466Y013696D01*
X023539Y013696D01*
X023576Y013659D01*
X023576Y013622D01*
X023539Y013586D02*
X023503Y013586D01*
X023871Y013696D02*
X024018Y013696D01*
X023871Y013696D02*
X023871Y013476D01*
X023992Y012470D02*
X023956Y012433D01*
X023992Y012470D02*
X024066Y012470D01*
X024103Y012433D01*
X024103Y012397D01*
X023956Y012250D01*
X024103Y012250D01*
X024177Y012250D02*
X024177Y012287D01*
X024324Y012433D01*
X024324Y012470D01*
X024177Y012470D01*
X024398Y012433D02*
X024434Y012470D01*
X024508Y012470D01*
X024544Y012433D01*
X024398Y012287D01*
X024434Y012250D01*
X024508Y012250D01*
X024544Y012287D01*
X024544Y012433D01*
X024619Y012470D02*
X024619Y012250D01*
X024619Y012323D02*
X024729Y012250D01*
X024619Y012323D02*
X024729Y012397D01*
X024398Y012433D02*
X024398Y012287D01*
X020179Y012450D02*
X020069Y012523D01*
X020179Y012597D01*
X020069Y012670D02*
X020069Y012450D01*
X019994Y012633D02*
X019848Y012487D01*
X019848Y012450D01*
X019774Y012450D02*
X019737Y012450D01*
X019737Y012487D01*
X019774Y012487D01*
X019774Y012450D01*
X019626Y012450D02*
X019626Y012670D01*
X019516Y012560D01*
X019663Y012560D01*
X019848Y012670D02*
X019994Y012670D01*
X019994Y012633D01*
X019994Y011670D02*
X019994Y011633D01*
X019848Y011487D01*
X019848Y011450D01*
X019884Y011420D02*
X019884Y011200D01*
X019811Y011200D02*
X019958Y011200D01*
X020032Y011237D02*
X020032Y011273D01*
X020069Y011310D01*
X020142Y011310D01*
X020179Y011273D01*
X020179Y011237D01*
X020142Y011200D01*
X020069Y011200D01*
X020032Y011237D01*
X020069Y011310D02*
X020032Y011347D01*
X020032Y011383D01*
X020069Y011420D01*
X020142Y011420D01*
X020179Y011383D01*
X020179Y011347D01*
X020142Y011310D01*
X020179Y011450D02*
X020069Y011523D01*
X020179Y011597D01*
X020069Y011670D02*
X020069Y011450D01*
X019884Y011420D02*
X019811Y011347D01*
X019737Y011383D02*
X019737Y011310D01*
X019700Y011273D01*
X019590Y011273D01*
X019590Y011200D02*
X019590Y011420D01*
X019700Y011420D01*
X019737Y011383D01*
X019737Y011450D02*
X019774Y011450D01*
X019774Y011487D01*
X019737Y011487D01*
X019737Y011450D01*
X019626Y011450D02*
X019626Y011670D01*
X019516Y011560D01*
X019663Y011560D01*
X019848Y011670D02*
X019994Y011670D01*
X019663Y011273D02*
X019737Y011200D01*
X019700Y010370D02*
X019737Y010333D01*
X019737Y010260D01*
X019700Y010223D01*
X019590Y010223D01*
X019590Y010150D02*
X019590Y010370D01*
X019700Y010370D01*
X019811Y010297D02*
X019884Y010370D01*
X019884Y010150D01*
X019811Y010150D02*
X019958Y010150D01*
X020032Y010187D02*
X020069Y010150D01*
X020142Y010150D01*
X020179Y010187D01*
X020179Y010333D01*
X020142Y010370D01*
X020069Y010370D01*
X020032Y010333D01*
X020032Y010297D01*
X020069Y010260D01*
X020179Y010260D01*
X019737Y010150D02*
X019663Y010223D01*
X014793Y008980D02*
X012093Y008980D01*
X012093Y008680D02*
X014793Y008680D01*
X014831Y008679D01*
X014868Y008674D01*
X014905Y008667D01*
X014941Y008658D01*
X014977Y008645D01*
X015011Y008630D01*
X014793Y008980D02*
X014849Y008978D01*
X014904Y008972D01*
X014959Y008963D01*
X015013Y008949D01*
X015066Y008932D01*
X015117Y008911D01*
X015167Y008887D01*
X015215Y008859D01*
X015262Y008828D01*
X015305Y008794D01*
X015347Y008757D01*
X015386Y008717D01*
X015422Y008675D01*
X015454Y008630D01*
X015011Y007730D02*
X014977Y007715D01*
X014941Y007702D01*
X014905Y007693D01*
X014868Y007686D01*
X014831Y007681D01*
X014793Y007680D01*
X012093Y007680D01*
X012093Y007380D02*
X014793Y007380D01*
X014129Y006747D02*
X013982Y006600D01*
X014129Y006600D01*
X014129Y006747D02*
X013982Y006747D01*
X013908Y006710D02*
X013761Y006710D01*
X013761Y006600D02*
X013761Y006820D01*
X013687Y006820D02*
X013687Y006600D01*
X013540Y006600D02*
X013540Y006820D01*
X013613Y006747D01*
X013687Y006820D01*
X013908Y006820D02*
X013908Y006600D01*
X013466Y006637D02*
X013466Y006673D01*
X013429Y006710D01*
X013319Y006710D01*
X013319Y006637D01*
X013356Y006600D01*
X013429Y006600D01*
X013466Y006637D01*
X013392Y006783D02*
X013319Y006710D01*
X013245Y006710D02*
X013245Y006637D01*
X013208Y006600D01*
X013135Y006600D01*
X013098Y006637D01*
X013098Y006710D02*
X013171Y006747D01*
X013208Y006747D01*
X013245Y006710D01*
X013245Y006820D02*
X013098Y006820D01*
X013098Y006710D01*
X013024Y006710D02*
X012877Y006710D01*
X012987Y006820D01*
X012987Y006600D01*
X012803Y006783D02*
X012656Y006637D01*
X012656Y006600D01*
X012582Y006600D02*
X012545Y006600D01*
X012545Y006637D01*
X012582Y006637D01*
X012582Y006600D01*
X012435Y006600D02*
X012435Y006820D01*
X012324Y006710D01*
X012471Y006710D01*
X012656Y006820D02*
X012803Y006820D01*
X012803Y006783D01*
X012250Y006600D02*
X012103Y006600D01*
X012177Y006600D02*
X012177Y006820D01*
X012103Y006747D01*
X011129Y006747D02*
X010982Y006600D01*
X011129Y006600D01*
X011129Y006747D02*
X011129Y006783D01*
X011092Y006820D01*
X011019Y006820D01*
X010982Y006783D01*
X010908Y006783D02*
X010908Y006637D01*
X010871Y006600D01*
X010798Y006600D01*
X010761Y006637D01*
X010761Y006783D01*
X010798Y006820D01*
X010871Y006820D01*
X010908Y006783D01*
X010834Y006673D02*
X010908Y006600D01*
X010171Y005973D02*
X010171Y005937D01*
X010134Y005900D01*
X010171Y005863D01*
X010171Y005827D01*
X010134Y005790D01*
X010061Y005790D01*
X010024Y005827D01*
X009950Y005827D02*
X009913Y005790D01*
X009840Y005790D01*
X009803Y005827D01*
X009876Y005900D02*
X009913Y005900D01*
X009950Y005863D01*
X009950Y005827D01*
X009913Y005900D02*
X009950Y005937D01*
X009950Y005973D01*
X009913Y006010D01*
X009840Y006010D01*
X009803Y005973D01*
X010024Y005973D02*
X010061Y006010D01*
X010134Y006010D01*
X010171Y005973D01*
X010134Y005900D02*
X010097Y005900D01*
X010111Y005010D02*
X010184Y005010D01*
X010221Y004973D01*
X010074Y004827D01*
X010111Y004790D01*
X010184Y004790D01*
X010221Y004827D01*
X010221Y004973D01*
X010295Y005010D02*
X010295Y004790D01*
X010295Y004863D02*
X010405Y004790D01*
X010295Y004863D02*
X010405Y004937D01*
X010111Y005010D02*
X010074Y004973D01*
X010074Y004827D01*
X010000Y004827D02*
X009963Y004790D01*
X009890Y004790D01*
X009853Y004827D01*
X009853Y004900D02*
X009926Y004937D01*
X009963Y004937D01*
X010000Y004900D01*
X010000Y004827D01*
X009853Y004900D02*
X009853Y005010D01*
X010000Y005010D01*
X009950Y004010D02*
X009803Y004010D01*
X009803Y003900D01*
X009876Y003937D01*
X009913Y003937D01*
X009950Y003900D01*
X009950Y003827D01*
X009913Y003790D01*
X009840Y003790D01*
X009803Y003827D01*
X010024Y003827D02*
X010171Y003973D01*
X010171Y003827D01*
X010134Y003790D01*
X010061Y003790D01*
X010024Y003827D01*
X010024Y003973D01*
X010061Y004010D01*
X010134Y004010D01*
X010171Y003973D01*
X010245Y004010D02*
X010245Y003790D01*
X010245Y003863D02*
X010392Y004010D01*
X010282Y003900D02*
X010392Y003790D01*
X008121Y004077D02*
X008084Y004040D01*
X008011Y004040D01*
X007974Y004077D01*
X007974Y004150D02*
X008047Y004187D01*
X008084Y004187D01*
X008121Y004150D01*
X008121Y004077D01*
X007974Y004150D02*
X007974Y004260D01*
X008121Y004260D01*
X007900Y004223D02*
X007900Y004150D01*
X007863Y004113D01*
X007753Y004113D01*
X007753Y004040D02*
X007753Y004260D01*
X007863Y004260D01*
X007900Y004223D01*
X007826Y004113D02*
X007900Y004040D01*
X007900Y005040D02*
X007826Y005113D01*
X007863Y005113D02*
X007753Y005113D01*
X007753Y005040D02*
X007753Y005260D01*
X007863Y005260D01*
X007900Y005223D01*
X007900Y005150D01*
X007863Y005113D01*
X007974Y005077D02*
X008011Y005040D01*
X008084Y005040D01*
X008121Y005077D01*
X008121Y005113D01*
X008084Y005150D01*
X008047Y005150D01*
X008084Y005150D02*
X008121Y005187D01*
X008121Y005223D01*
X008084Y005260D01*
X008011Y005260D01*
X007974Y005223D01*
X007974Y006140D02*
X008121Y006287D01*
X008121Y006323D01*
X008084Y006360D01*
X008011Y006360D01*
X007974Y006323D01*
X007900Y006323D02*
X007900Y006250D01*
X007863Y006213D01*
X007753Y006213D01*
X007753Y006140D02*
X007753Y006360D01*
X007863Y006360D01*
X007900Y006323D01*
X007826Y006213D02*
X007900Y006140D01*
X007974Y006140D02*
X008121Y006140D01*
X009743Y008430D02*
X009743Y008577D01*
X009816Y008651D02*
X009816Y008688D01*
X009853Y008688D01*
X009853Y008651D01*
X009816Y008651D01*
X009816Y008761D02*
X009853Y008761D01*
X009816Y008761D02*
X009669Y008908D01*
X009633Y008908D01*
X009633Y008761D01*
X009633Y008540D02*
X009743Y008430D01*
X009853Y008540D02*
X009633Y008540D01*
X009643Y009530D02*
X009643Y009640D01*
X009679Y009677D01*
X009753Y009677D01*
X009789Y009640D01*
X009789Y009530D01*
X009789Y009603D02*
X009863Y009677D01*
X009826Y009751D02*
X009789Y009751D01*
X009753Y009788D01*
X009753Y009861D01*
X009789Y009898D01*
X009826Y009898D01*
X009863Y009861D01*
X009863Y009788D01*
X009826Y009751D01*
X009753Y009788D02*
X009716Y009751D01*
X009679Y009751D01*
X009643Y009788D01*
X009643Y009861D01*
X009679Y009898D01*
X009716Y009898D01*
X009753Y009861D01*
X009863Y009530D02*
X009643Y009530D01*
X011432Y007730D02*
X011464Y007685D01*
X011500Y007643D01*
X011539Y007603D01*
X011581Y007566D01*
X011624Y007532D01*
X011671Y007501D01*
X011719Y007473D01*
X011769Y007449D01*
X011820Y007428D01*
X011873Y007411D01*
X011927Y007397D01*
X011982Y007388D01*
X012037Y007382D01*
X012093Y007380D01*
X013392Y006783D02*
X013466Y006820D01*
X013693Y008180D02*
X013843Y008180D01*
X013193Y008180D02*
X013043Y008180D01*
X012093Y008980D02*
X012037Y008978D01*
X011982Y008972D01*
X011927Y008963D01*
X011873Y008949D01*
X011820Y008932D01*
X011769Y008911D01*
X011719Y008887D01*
X011671Y008859D01*
X011624Y008828D01*
X011580Y008794D01*
X011539Y008757D01*
X011500Y008717D01*
X011464Y008675D01*
X011432Y008630D01*
X011875Y008630D02*
X011909Y008645D01*
X011945Y008658D01*
X011981Y008667D01*
X012018Y008674D01*
X012055Y008679D01*
X012093Y008680D01*
X011875Y007730D02*
X011909Y007715D01*
X011945Y007702D01*
X011981Y007693D01*
X012018Y007686D01*
X012055Y007681D01*
X012093Y007680D01*
X014793Y007380D02*
X014849Y007382D01*
X014904Y007388D01*
X014959Y007397D01*
X015013Y007411D01*
X015066Y007428D01*
X015117Y007449D01*
X015167Y007473D01*
X015215Y007501D01*
X015262Y007532D01*
X015306Y007566D01*
X015347Y007603D01*
X015386Y007643D01*
X015422Y007685D01*
X015454Y007730D01*
X014179Y010150D02*
X014179Y010370D01*
X014105Y010297D01*
X014032Y010370D01*
X014032Y010150D01*
X013958Y010150D02*
X013811Y010150D01*
X013884Y010150D02*
X013884Y010370D01*
X013811Y010297D01*
X013179Y010333D02*
X013032Y010187D01*
X013069Y010150D01*
X013142Y010150D01*
X013179Y010187D01*
X013179Y010333D01*
X013142Y010370D01*
X013069Y010370D01*
X013032Y010333D01*
X013032Y010187D01*
X012958Y010150D02*
X012811Y010150D01*
X012884Y010150D02*
X012884Y010370D01*
X012811Y010297D01*
X012737Y010333D02*
X012737Y010260D01*
X012700Y010223D01*
X012590Y010223D01*
X012590Y010150D02*
X012590Y010370D01*
X012700Y010370D01*
X012737Y010333D01*
X012663Y010223D02*
X012737Y010150D01*
X009853Y012448D02*
X009633Y012448D01*
X009743Y012338D01*
X009743Y012484D01*
X009816Y012559D02*
X009816Y012595D01*
X009853Y012595D01*
X009853Y012559D01*
X009816Y012559D01*
X009816Y012669D02*
X009853Y012669D01*
X009816Y012669D02*
X009669Y012816D01*
X009633Y012816D01*
X009633Y012669D01*
X009603Y013548D02*
X009603Y013658D01*
X009639Y013695D01*
X009713Y013695D01*
X009749Y013658D01*
X009749Y013548D01*
X009749Y013621D02*
X009823Y013695D01*
X009823Y013769D02*
X009786Y013769D01*
X009639Y013916D01*
X009603Y013916D01*
X009603Y013769D01*
X009603Y013548D02*
X009823Y013548D01*
X010393Y014510D02*
X017493Y014510D01*
X019240Y016690D02*
X019203Y016727D01*
X019203Y016873D01*
X019240Y016910D01*
X019313Y016910D01*
X019350Y016873D01*
X019350Y016727D01*
X019313Y016690D01*
X019240Y016690D01*
X019276Y016763D02*
X019350Y016690D01*
X019424Y016690D02*
X019571Y016690D01*
X019497Y016690D02*
X019497Y016910D01*
X019424Y016837D01*
X018521Y018340D02*
X018374Y018340D01*
X018447Y018340D02*
X018447Y018560D01*
X018374Y018487D01*
X018300Y018523D02*
X018300Y018450D01*
X018263Y018413D01*
X018153Y018413D01*
X018153Y018340D02*
X018153Y018560D01*
X018263Y018560D01*
X018300Y018523D01*
X018226Y018413D02*
X018300Y018340D01*
X029943Y007130D02*
X029943Y007030D01*
X030943Y007030D01*
X030943Y007130D01*
X032272Y006001D02*
X032308Y006038D01*
X032382Y006038D01*
X032419Y006001D01*
X032493Y006001D02*
X032529Y006038D01*
X032603Y006038D01*
X032640Y006001D01*
X032640Y005965D01*
X032493Y005818D01*
X032640Y005818D01*
X032419Y005855D02*
X032382Y005818D01*
X032308Y005818D01*
X032272Y005855D01*
X032308Y005928D02*
X032382Y005928D01*
X032419Y005891D01*
X032419Y005855D01*
X032308Y005928D02*
X032272Y005965D01*
X032272Y006001D01*
X030893Y004830D02*
X030893Y004730D01*
X030893Y004830D02*
X029943Y004830D01*
X029943Y004730D01*
X029943Y003630D02*
X029943Y003530D01*
X030943Y003530D01*
X030943Y003630D01*
X032272Y002501D02*
X032272Y002465D01*
X032308Y002428D01*
X032382Y002428D01*
X032419Y002391D01*
X032419Y002355D01*
X032382Y002318D01*
X032308Y002318D01*
X032272Y002355D01*
X032272Y002501D02*
X032308Y002538D01*
X032382Y002538D01*
X032419Y002501D01*
X032493Y002465D02*
X032566Y002538D01*
X032566Y002318D01*
X032493Y002318D02*
X032640Y002318D01*
X030893Y001330D02*
X030893Y001230D01*
X030893Y001330D02*
X029943Y001330D01*
X029943Y001230D01*
X025640Y002355D02*
X025603Y002318D01*
X025529Y002318D01*
X025493Y002355D01*
X025419Y002355D02*
X025382Y002318D01*
X025308Y002318D01*
X025272Y002355D01*
X025308Y002428D02*
X025382Y002428D01*
X025419Y002391D01*
X025419Y002355D01*
X025308Y002428D02*
X025272Y002465D01*
X025272Y002501D01*
X025308Y002538D01*
X025382Y002538D01*
X025419Y002501D01*
X025493Y002501D02*
X025529Y002538D01*
X025603Y002538D01*
X025640Y002501D01*
X025640Y002465D01*
X025603Y002428D01*
X025640Y002391D01*
X025640Y002355D01*
X025603Y002428D02*
X025566Y002428D01*
X023943Y003530D02*
X023943Y003630D01*
X023943Y003530D02*
X022943Y003530D01*
X022943Y003630D01*
X020603Y002538D02*
X020493Y002428D01*
X020640Y002428D01*
X020603Y002318D02*
X020603Y002538D01*
X020419Y002501D02*
X020382Y002538D01*
X020308Y002538D01*
X020272Y002501D01*
X020272Y002465D01*
X020308Y002428D01*
X020382Y002428D01*
X020419Y002391D01*
X020419Y002355D01*
X020382Y002318D01*
X020308Y002318D01*
X020272Y002355D01*
X018893Y001330D02*
X018893Y001230D01*
X018893Y001330D02*
X017943Y001330D01*
X017943Y001230D01*
X015640Y002355D02*
X015603Y002318D01*
X015529Y002318D01*
X015493Y002355D01*
X015493Y002428D02*
X015566Y002465D01*
X015603Y002465D01*
X015640Y002428D01*
X015640Y002355D01*
X015493Y002428D02*
X015493Y002538D01*
X015640Y002538D01*
X015419Y002501D02*
X015382Y002538D01*
X015308Y002538D01*
X015272Y002501D01*
X015272Y002465D01*
X015308Y002428D01*
X015382Y002428D01*
X015419Y002391D01*
X015419Y002355D01*
X015382Y002318D01*
X015308Y002318D01*
X015272Y002355D01*
X013893Y001330D02*
X013893Y001230D01*
X013893Y001330D02*
X012943Y001330D01*
X012943Y001230D01*
X010392Y001310D02*
X010245Y001163D01*
X010282Y001200D02*
X010392Y001090D01*
X010245Y001090D02*
X010245Y001310D01*
X010171Y001273D02*
X010024Y001127D01*
X010061Y001090D01*
X010134Y001090D01*
X010171Y001127D01*
X010171Y001273D01*
X010134Y001310D01*
X010061Y001310D01*
X010024Y001273D01*
X010024Y001127D01*
X009950Y001127D02*
X009913Y001090D01*
X009840Y001090D01*
X009803Y001127D01*
X009803Y001200D02*
X009876Y001237D01*
X009913Y001237D01*
X009950Y001200D01*
X009950Y001127D01*
X009803Y001200D02*
X009803Y001310D01*
X009950Y001310D01*
X009913Y002090D02*
X009840Y002090D01*
X009803Y002127D01*
X009803Y002200D02*
X009876Y002237D01*
X009913Y002237D01*
X009950Y002200D01*
X009950Y002127D01*
X009913Y002090D01*
X010024Y002127D02*
X010171Y002273D01*
X010171Y002127D01*
X010134Y002090D01*
X010061Y002090D01*
X010024Y002127D01*
X010024Y002273D01*
X010061Y002310D01*
X010134Y002310D01*
X010171Y002273D01*
X010245Y002310D02*
X010245Y002090D01*
X010245Y002163D02*
X010392Y002310D01*
X010282Y002200D02*
X010392Y002090D01*
X009950Y002310D02*
X009803Y002310D01*
X009803Y002200D01*
X008121Y002450D02*
X007974Y002450D01*
X008084Y002560D01*
X008084Y002340D01*
X007900Y002340D02*
X007826Y002413D01*
X007863Y002413D02*
X007753Y002413D01*
X007753Y002340D02*
X007753Y002560D01*
X007863Y002560D01*
X007900Y002523D01*
X007900Y002450D01*
X007863Y002413D01*
X007863Y001560D02*
X007900Y001523D01*
X007900Y001450D01*
X007863Y001413D01*
X007753Y001413D01*
X007753Y001340D02*
X007753Y001560D01*
X007863Y001560D01*
X007826Y001413D02*
X007900Y001340D01*
X007974Y001377D02*
X008011Y001340D01*
X008084Y001340D01*
X008121Y001377D01*
X008121Y001413D01*
X008084Y001450D01*
X007974Y001450D01*
X007974Y001377D01*
X007974Y001450D02*
X008047Y001523D01*
X008121Y001560D01*
X012943Y003530D02*
X013943Y003530D01*
X013943Y003630D01*
X012943Y003630D02*
X012943Y003530D01*
X017943Y003530D02*
X018943Y003530D01*
X018943Y003630D01*
X017943Y003630D02*
X017943Y003530D01*
X022943Y001330D02*
X022943Y001230D01*
X022943Y001330D02*
X023893Y001330D01*
X023893Y001230D01*
D17*
X006628Y004226D02*
X006015Y004226D01*
X006091Y004303D02*
X006168Y004379D01*
X006091Y004303D02*
X006091Y004149D01*
X006168Y004073D01*
X006245Y004073D01*
X006321Y004149D01*
X006321Y004303D01*
X006398Y004379D01*
X006475Y004379D01*
X006552Y004303D01*
X006552Y004149D01*
X006475Y004073D01*
X006475Y003919D02*
X006091Y003919D01*
X006091Y003612D02*
X006475Y003612D01*
X006552Y003689D01*
X006552Y003842D01*
X006475Y003919D01*
X006552Y004533D02*
X006552Y004840D01*
X006552Y004686D02*
X006091Y004686D01*
X006245Y004533D01*
X006107Y018950D02*
X006107Y019410D01*
X005954Y019410D02*
X006261Y019410D01*
X006414Y019410D02*
X006414Y018950D01*
X006414Y019180D02*
X006721Y019180D01*
X006721Y019410D02*
X006721Y018950D01*
X005801Y019180D02*
X005724Y019103D01*
X005494Y019103D01*
X005494Y018950D02*
X005494Y019410D01*
X005724Y019410D01*
X005801Y019334D01*
X005801Y019180D01*
X005340Y019103D02*
X005263Y019180D01*
X005033Y019180D01*
X005033Y019027D01*
X005110Y018950D01*
X005263Y018950D01*
X005340Y019027D01*
X005340Y019103D01*
X005187Y019334D02*
X005033Y019180D01*
X005187Y019334D02*
X005340Y019410D01*
X004726Y019410D02*
X004726Y018950D01*
X004573Y018950D02*
X004880Y018950D01*
X004419Y018950D02*
X004419Y019410D01*
X004266Y019257D01*
X004112Y019410D01*
X004112Y018950D01*
X004573Y019257D02*
X004726Y019410D01*
X028866Y019755D02*
X029020Y019909D01*
X029327Y019909D01*
X029327Y020062D02*
X028866Y020062D01*
X029020Y020216D01*
X028866Y020369D01*
X029327Y020369D01*
X029327Y020523D02*
X028866Y020523D01*
X028866Y020753D01*
X028943Y020830D01*
X029097Y020830D01*
X029173Y020753D01*
X029173Y020523D01*
X029097Y019909D02*
X029097Y019602D01*
X029020Y019602D02*
X028866Y019755D01*
X029020Y019602D02*
X029327Y019602D01*
D18*
X026535Y016979D03*
X025955Y016979D03*
X024531Y016981D03*
X023951Y016981D03*
X023951Y015481D03*
X024531Y015481D03*
X025955Y015479D03*
X026535Y015479D03*
X024735Y012929D03*
X024155Y012929D03*
X020235Y011929D03*
X019655Y011929D03*
X019655Y010929D03*
X020235Y010929D03*
X013735Y009729D03*
X013155Y009729D03*
X009231Y006181D03*
X008651Y006181D03*
X008651Y005131D03*
X009231Y005131D03*
X009231Y004131D03*
X008651Y004131D03*
X008651Y002431D03*
X009231Y002431D03*
X009231Y001431D03*
X008651Y001431D03*
X018151Y017931D03*
X018731Y017931D03*
X024155Y019429D03*
X024735Y019429D03*
D19*
X009193Y013472D03*
X009193Y012892D03*
X009192Y009468D03*
X009192Y008888D03*
D20*
X010693Y011685D03*
X011193Y011685D03*
X011693Y011685D03*
X012193Y011685D03*
X012693Y011685D03*
X013193Y011685D03*
X013693Y011685D03*
X014193Y011685D03*
X014693Y011685D03*
X015193Y011685D03*
X015693Y011685D03*
X016193Y011685D03*
X016693Y011685D03*
X017193Y011685D03*
X017193Y014675D03*
X016693Y014675D03*
X016193Y014675D03*
X015693Y014675D03*
X015193Y014675D03*
X014693Y014675D03*
X014193Y014675D03*
X013693Y014675D03*
X013193Y014675D03*
X012693Y014675D03*
X012193Y014675D03*
X011693Y014675D03*
X011193Y014675D03*
X010693Y014675D03*
D21*
X029634Y019671D02*
X029961Y019671D01*
X029797Y019508D02*
X029797Y019835D01*
X029876Y020262D02*
X029876Y020589D01*
M02*
