G75*
%MOIN*%
%OFA0B0*%
%FSLAX24Y24*%
%IPPOS*%
%LPD*%
%AMOC8*
5,1,8,0,0,1.08239X$1,22.5*
%
%ADD10C,0.0000*%
%ADD11R,0.0315X0.0472*%
%ADD12C,0.0760*%
%ADD13C,0.0740*%
%ADD14C,0.0860*%
%ADD15R,0.0551X0.0433*%
%ADD16C,0.0600*%
%ADD17C,0.0560*%
%ADD18C,0.0160*%
%ADD19C,0.0240*%
%ADD20C,0.0080*%
D10*
X001443Y000680D02*
X001443Y021676D01*
X032939Y021676D01*
X032939Y000680D01*
X001443Y000680D01*
X028038Y016230D02*
X028040Y016260D01*
X028046Y016290D01*
X028055Y016319D01*
X028068Y016346D01*
X028085Y016371D01*
X028104Y016394D01*
X028127Y016415D01*
X028152Y016432D01*
X028178Y016446D01*
X028207Y016456D01*
X028236Y016463D01*
X028266Y016466D01*
X028297Y016465D01*
X028327Y016460D01*
X028356Y016451D01*
X028383Y016439D01*
X028409Y016424D01*
X028433Y016405D01*
X028454Y016383D01*
X028472Y016359D01*
X028487Y016332D01*
X028498Y016304D01*
X028506Y016275D01*
X028510Y016245D01*
X028510Y016215D01*
X028506Y016185D01*
X028498Y016156D01*
X028487Y016128D01*
X028472Y016101D01*
X028454Y016077D01*
X028433Y016055D01*
X028409Y016036D01*
X028383Y016021D01*
X028356Y016009D01*
X028327Y016000D01*
X028297Y015995D01*
X028266Y015994D01*
X028236Y015997D01*
X028207Y016004D01*
X028178Y016014D01*
X028152Y016028D01*
X028127Y016045D01*
X028104Y016066D01*
X028085Y016089D01*
X028068Y016114D01*
X028055Y016141D01*
X028046Y016170D01*
X028040Y016200D01*
X028038Y016230D01*
X030007Y018199D02*
X030009Y018229D01*
X030015Y018259D01*
X030024Y018288D01*
X030037Y018315D01*
X030054Y018340D01*
X030073Y018363D01*
X030096Y018384D01*
X030121Y018401D01*
X030147Y018415D01*
X030176Y018425D01*
X030205Y018432D01*
X030235Y018435D01*
X030266Y018434D01*
X030296Y018429D01*
X030325Y018420D01*
X030352Y018408D01*
X030378Y018393D01*
X030402Y018374D01*
X030423Y018352D01*
X030441Y018328D01*
X030456Y018301D01*
X030467Y018273D01*
X030475Y018244D01*
X030479Y018214D01*
X030479Y018184D01*
X030475Y018154D01*
X030467Y018125D01*
X030456Y018097D01*
X030441Y018070D01*
X030423Y018046D01*
X030402Y018024D01*
X030378Y018005D01*
X030352Y017990D01*
X030325Y017978D01*
X030296Y017969D01*
X030266Y017964D01*
X030235Y017963D01*
X030205Y017966D01*
X030176Y017973D01*
X030147Y017983D01*
X030121Y017997D01*
X030096Y018014D01*
X030073Y018035D01*
X030054Y018058D01*
X030037Y018083D01*
X030024Y018110D01*
X030015Y018139D01*
X030009Y018169D01*
X030007Y018199D01*
X030991Y018199D02*
X030993Y018229D01*
X030999Y018259D01*
X031008Y018288D01*
X031021Y018315D01*
X031038Y018340D01*
X031057Y018363D01*
X031080Y018384D01*
X031105Y018401D01*
X031131Y018415D01*
X031160Y018425D01*
X031189Y018432D01*
X031219Y018435D01*
X031250Y018434D01*
X031280Y018429D01*
X031309Y018420D01*
X031336Y018408D01*
X031362Y018393D01*
X031386Y018374D01*
X031407Y018352D01*
X031425Y018328D01*
X031440Y018301D01*
X031451Y018273D01*
X031459Y018244D01*
X031463Y018214D01*
X031463Y018184D01*
X031459Y018154D01*
X031451Y018125D01*
X031440Y018097D01*
X031425Y018070D01*
X031407Y018046D01*
X031386Y018024D01*
X031362Y018005D01*
X031336Y017990D01*
X031309Y017978D01*
X031280Y017969D01*
X031250Y017964D01*
X031219Y017963D01*
X031189Y017966D01*
X031160Y017973D01*
X031131Y017983D01*
X031105Y017997D01*
X031080Y018014D01*
X031057Y018035D01*
X031038Y018058D01*
X031021Y018083D01*
X031008Y018110D01*
X030999Y018139D01*
X030993Y018169D01*
X030991Y018199D01*
X030991Y014261D02*
X030993Y014291D01*
X030999Y014321D01*
X031008Y014350D01*
X031021Y014377D01*
X031038Y014402D01*
X031057Y014425D01*
X031080Y014446D01*
X031105Y014463D01*
X031131Y014477D01*
X031160Y014487D01*
X031189Y014494D01*
X031219Y014497D01*
X031250Y014496D01*
X031280Y014491D01*
X031309Y014482D01*
X031336Y014470D01*
X031362Y014455D01*
X031386Y014436D01*
X031407Y014414D01*
X031425Y014390D01*
X031440Y014363D01*
X031451Y014335D01*
X031459Y014306D01*
X031463Y014276D01*
X031463Y014246D01*
X031459Y014216D01*
X031451Y014187D01*
X031440Y014159D01*
X031425Y014132D01*
X031407Y014108D01*
X031386Y014086D01*
X031362Y014067D01*
X031336Y014052D01*
X031309Y014040D01*
X031280Y014031D01*
X031250Y014026D01*
X031219Y014025D01*
X031189Y014028D01*
X031160Y014035D01*
X031131Y014045D01*
X031105Y014059D01*
X031080Y014076D01*
X031057Y014097D01*
X031038Y014120D01*
X031021Y014145D01*
X031008Y014172D01*
X030999Y014201D01*
X030993Y014231D01*
X030991Y014261D01*
X030007Y014261D02*
X030009Y014291D01*
X030015Y014321D01*
X030024Y014350D01*
X030037Y014377D01*
X030054Y014402D01*
X030073Y014425D01*
X030096Y014446D01*
X030121Y014463D01*
X030147Y014477D01*
X030176Y014487D01*
X030205Y014494D01*
X030235Y014497D01*
X030266Y014496D01*
X030296Y014491D01*
X030325Y014482D01*
X030352Y014470D01*
X030378Y014455D01*
X030402Y014436D01*
X030423Y014414D01*
X030441Y014390D01*
X030456Y014363D01*
X030467Y014335D01*
X030475Y014306D01*
X030479Y014276D01*
X030479Y014246D01*
X030475Y014216D01*
X030467Y014187D01*
X030456Y014159D01*
X030441Y014132D01*
X030423Y014108D01*
X030402Y014086D01*
X030378Y014067D01*
X030352Y014052D01*
X030325Y014040D01*
X030296Y014031D01*
X030266Y014026D01*
X030235Y014025D01*
X030205Y014028D01*
X030176Y014035D01*
X030147Y014045D01*
X030121Y014059D01*
X030096Y014076D01*
X030073Y014097D01*
X030054Y014120D01*
X030037Y014145D01*
X030024Y014172D01*
X030015Y014201D01*
X030009Y014231D01*
X030007Y014261D01*
D11*
X011797Y013430D03*
X011089Y013430D03*
X011089Y012430D03*
X011797Y012430D03*
D12*
X005443Y012180D03*
X004443Y012180D03*
X004443Y011180D03*
X005443Y011180D03*
X005443Y010180D03*
X004443Y010180D03*
X004443Y009180D03*
X005443Y009180D03*
X005443Y008180D03*
X004443Y008180D03*
X004443Y013180D03*
X005443Y013180D03*
X005443Y014180D03*
X004443Y014180D03*
X004443Y015180D03*
X005443Y015180D03*
X005443Y016180D03*
X004443Y016180D03*
X004443Y017180D03*
X005443Y017180D03*
X021443Y017180D03*
X022443Y017180D03*
X022443Y016180D03*
X021443Y016180D03*
X021443Y015180D03*
X022443Y015180D03*
X022443Y014180D03*
X021443Y014180D03*
X021443Y013180D03*
X022443Y013180D03*
X022443Y012180D03*
X021443Y012180D03*
X021443Y011180D03*
X022443Y011180D03*
X022443Y010180D03*
X021443Y010180D03*
X021443Y009180D03*
X022443Y009180D03*
X022443Y008180D03*
X021443Y008180D03*
D13*
X019592Y020180D03*
X018592Y020180D03*
X017592Y020180D03*
X016592Y020180D03*
X015592Y020180D03*
X014592Y020180D03*
X013592Y020180D03*
X012592Y020180D03*
X011592Y020180D03*
X010592Y020180D03*
X009592Y020180D03*
X008592Y020180D03*
X007592Y020180D03*
X006592Y020180D03*
X005592Y020180D03*
X004592Y020180D03*
D14*
X028274Y018199D03*
X028274Y017214D03*
X030243Y016230D03*
X028274Y015246D03*
X028274Y014261D03*
D15*
X012443Y013324D03*
X012443Y012536D03*
D16*
X012463Y003320D02*
X011863Y003320D01*
X014423Y003320D02*
X015023Y003320D01*
X016863Y003320D02*
X017463Y003320D01*
X019423Y003320D02*
X020023Y003320D01*
X021863Y003320D02*
X022463Y003320D01*
X024423Y003320D02*
X025023Y003320D01*
X025023Y001540D02*
X024423Y001540D01*
X022463Y001540D02*
X021863Y001540D01*
X020023Y001540D02*
X019423Y001540D01*
X017463Y001540D02*
X016863Y001540D01*
X015023Y001540D02*
X014423Y001540D01*
X012463Y001540D02*
X011863Y001540D01*
X028863Y001540D02*
X029463Y001540D01*
X031423Y001540D02*
X032023Y001540D01*
X032023Y003320D02*
X031423Y003320D01*
X029463Y003320D02*
X028863Y003320D01*
X028863Y005040D02*
X029463Y005040D01*
X031423Y005040D02*
X032023Y005040D01*
X032023Y006820D02*
X031423Y006820D01*
X029463Y006820D02*
X028863Y006820D01*
D17*
X030343Y019786D03*
X030343Y020574D03*
D18*
X030490Y020180D02*
X030581Y020218D01*
X030699Y020336D01*
X030763Y020490D01*
X030763Y020657D01*
X030699Y020812D01*
X030581Y020930D01*
X030426Y020994D01*
X030259Y020994D01*
X030105Y020930D01*
X029987Y020812D01*
X029923Y020657D01*
X029923Y020490D01*
X029987Y020336D01*
X030105Y020218D01*
X030196Y020180D01*
X030105Y020142D01*
X029987Y020024D01*
X029923Y019870D01*
X029923Y019703D01*
X029987Y019548D01*
X030105Y019430D01*
X030259Y019366D01*
X030426Y019366D01*
X030581Y019430D01*
X030699Y019548D01*
X030763Y019703D01*
X030763Y019870D01*
X030699Y020024D01*
X030581Y020142D01*
X030490Y020180D01*
X030501Y020176D02*
X032759Y020176D01*
X032759Y020334D02*
X030697Y020334D01*
X030763Y020493D02*
X032759Y020493D01*
X032759Y020651D02*
X030763Y020651D01*
X030700Y020810D02*
X032759Y020810D01*
X032759Y020968D02*
X030488Y020968D01*
X030197Y020968D02*
X018273Y020968D01*
X018250Y020990D02*
X018155Y021030D01*
X018051Y021030D01*
X017956Y020990D01*
X017882Y020917D01*
X017843Y020822D01*
X017843Y020718D01*
X017882Y020623D01*
X017956Y020550D01*
X018051Y020510D01*
X018108Y020510D01*
X018157Y020461D01*
X018092Y020306D01*
X018025Y020469D01*
X017881Y020612D01*
X017694Y020690D01*
X017491Y020690D01*
X017304Y020612D01*
X017160Y020469D01*
X017092Y020306D01*
X017025Y020469D01*
X016881Y020612D01*
X016694Y020690D01*
X016491Y020690D01*
X016304Y020612D01*
X016160Y020469D01*
X016092Y020306D01*
X016025Y020469D01*
X015881Y020612D01*
X015694Y020690D01*
X015491Y020690D01*
X015304Y020612D01*
X015160Y020469D01*
X015092Y020306D01*
X015025Y020469D01*
X014881Y020612D01*
X014694Y020690D01*
X014491Y020690D01*
X014304Y020612D01*
X014160Y020469D01*
X014092Y020306D01*
X014025Y020469D01*
X013881Y020612D01*
X013694Y020690D01*
X013491Y020690D01*
X013304Y020612D01*
X013160Y020469D01*
X013092Y020306D01*
X013025Y020469D01*
X012881Y020612D01*
X012694Y020690D01*
X012491Y020690D01*
X012304Y020612D01*
X012160Y020469D01*
X012092Y020306D01*
X012025Y020469D01*
X011881Y020612D01*
X011694Y020690D01*
X011491Y020690D01*
X011304Y020612D01*
X011160Y020469D01*
X011092Y020306D01*
X011025Y020469D01*
X010881Y020612D01*
X010694Y020690D01*
X010491Y020690D01*
X010304Y020612D01*
X010160Y020469D01*
X010092Y020306D01*
X010025Y020469D01*
X009881Y020612D01*
X009694Y020690D01*
X009491Y020690D01*
X009304Y020612D01*
X009160Y020469D01*
X009092Y020306D01*
X009025Y020469D01*
X008881Y020612D01*
X008694Y020690D01*
X008491Y020690D01*
X008304Y020612D01*
X008160Y020469D01*
X008092Y020306D01*
X008025Y020469D01*
X007881Y020612D01*
X007694Y020690D01*
X007491Y020690D01*
X007304Y020612D01*
X007160Y020469D01*
X007092Y020306D01*
X007025Y020469D01*
X006881Y020612D01*
X006694Y020690D01*
X006491Y020690D01*
X006304Y020612D01*
X006160Y020469D01*
X006092Y020306D01*
X006025Y020469D01*
X005881Y020612D01*
X005694Y020690D01*
X005491Y020690D01*
X005304Y020612D01*
X005160Y020469D01*
X005113Y020356D01*
X005102Y020391D01*
X005063Y020468D01*
X005012Y020538D01*
X004951Y020600D01*
X004881Y020650D01*
X004804Y020690D01*
X004721Y020716D01*
X004636Y020730D01*
X004612Y020730D01*
X004612Y020200D01*
X004572Y020200D01*
X004572Y020160D01*
X004042Y020160D01*
X004042Y020137D01*
X004056Y020051D01*
X004083Y019969D01*
X004122Y019892D01*
X004173Y019822D01*
X004234Y019760D01*
X004304Y019710D01*
X004381Y019670D01*
X004464Y019644D01*
X004549Y019630D01*
X004572Y019630D01*
X004572Y020160D01*
X004612Y020160D01*
X004612Y019630D01*
X004636Y019630D01*
X004721Y019644D01*
X004804Y019670D01*
X004881Y019710D01*
X004951Y019760D01*
X005012Y019822D01*
X005063Y019892D01*
X005102Y019969D01*
X005113Y020004D01*
X005160Y019891D01*
X005304Y019748D01*
X005491Y019670D01*
X005694Y019670D01*
X005711Y019677D01*
X006683Y018705D01*
X006683Y018648D01*
X006722Y018553D01*
X006796Y018480D01*
X006891Y018440D01*
X006995Y018440D01*
X007090Y018480D01*
X007163Y018553D01*
X007203Y018648D01*
X007203Y018752D01*
X007163Y018847D01*
X007090Y018920D01*
X006995Y018960D01*
X006937Y018960D01*
X006016Y019882D01*
X006025Y019891D01*
X006092Y020054D01*
X006160Y019891D01*
X006304Y019748D01*
X006491Y019670D01*
X006694Y019670D01*
X006881Y019748D01*
X007025Y019891D01*
X007092Y020054D01*
X007160Y019891D01*
X007304Y019748D01*
X007491Y019670D01*
X007694Y019670D01*
X007881Y019748D01*
X008025Y019891D01*
X008092Y020054D01*
X008160Y019891D01*
X008304Y019748D01*
X008491Y019670D01*
X008694Y019670D01*
X008881Y019748D01*
X009025Y019891D01*
X009092Y020054D01*
X009160Y019891D01*
X009304Y019748D01*
X009491Y019670D01*
X009694Y019670D01*
X009881Y019748D01*
X010025Y019891D01*
X010092Y020054D01*
X010160Y019891D01*
X010304Y019748D01*
X010491Y019670D01*
X010694Y019670D01*
X010881Y019748D01*
X011025Y019891D01*
X011092Y020054D01*
X011160Y019891D01*
X011304Y019748D01*
X011491Y019670D01*
X011694Y019670D01*
X011881Y019748D01*
X012025Y019891D01*
X012092Y020054D01*
X012160Y019891D01*
X012304Y019748D01*
X012491Y019670D01*
X012694Y019670D01*
X012881Y019748D01*
X013025Y019891D01*
X013092Y020054D01*
X013160Y019891D01*
X013304Y019748D01*
X013491Y019670D01*
X013694Y019670D01*
X013881Y019748D01*
X014025Y019891D01*
X014092Y020054D01*
X014160Y019891D01*
X014304Y019748D01*
X014491Y019670D01*
X014694Y019670D01*
X014881Y019748D01*
X015025Y019891D01*
X015092Y020054D01*
X015160Y019891D01*
X015225Y019826D01*
X009768Y014370D01*
X007528Y014370D01*
X005758Y012600D01*
X005737Y012621D01*
X005595Y012680D01*
X005737Y012739D01*
X005884Y012885D01*
X005963Y013077D01*
X005963Y013283D01*
X005945Y013327D01*
X010023Y017405D01*
X010023Y017572D01*
X010063Y017613D01*
X010103Y017708D01*
X010103Y017812D01*
X010063Y017907D01*
X009990Y017980D01*
X009895Y018020D01*
X009791Y018020D01*
X009696Y017980D01*
X009622Y017907D01*
X009583Y017812D01*
X009583Y017708D01*
X009622Y017613D01*
X009663Y017572D01*
X009663Y017555D01*
X005732Y013623D01*
X005595Y013680D01*
X005737Y013739D01*
X005884Y013885D01*
X005963Y014077D01*
X005963Y014283D01*
X005884Y014475D01*
X005737Y014621D01*
X005595Y014680D01*
X005737Y014739D01*
X005884Y014885D01*
X005963Y015077D01*
X005963Y015283D01*
X005884Y015475D01*
X005737Y015621D01*
X005595Y015680D01*
X005737Y015739D01*
X005884Y015885D01*
X005963Y016077D01*
X005963Y016283D01*
X005884Y016475D01*
X005737Y016621D01*
X005595Y016680D01*
X005737Y016739D01*
X005884Y016885D01*
X005963Y017077D01*
X005963Y017283D01*
X005884Y017475D01*
X005737Y017621D01*
X005546Y017700D01*
X005339Y017700D01*
X005148Y017621D01*
X005002Y017475D01*
X004943Y017332D01*
X004884Y017475D01*
X004737Y017621D01*
X004546Y017700D01*
X004339Y017700D01*
X004148Y017621D01*
X004002Y017475D01*
X003923Y017283D01*
X003923Y017077D01*
X004002Y016885D01*
X004148Y016739D01*
X004291Y016680D01*
X004148Y016621D01*
X004002Y016475D01*
X003923Y016283D01*
X003923Y016077D01*
X003941Y016033D01*
X003503Y015595D01*
X003503Y012155D01*
X003608Y012050D01*
X004093Y011565D01*
X004002Y011475D01*
X003923Y011283D01*
X003923Y011077D01*
X004002Y010885D01*
X004148Y010739D01*
X004291Y010680D01*
X004148Y010621D01*
X004002Y010475D01*
X003923Y010283D01*
X003923Y010077D01*
X004002Y009885D01*
X004148Y009739D01*
X004291Y009680D01*
X004148Y009621D01*
X004002Y009475D01*
X003923Y009283D01*
X003923Y009077D01*
X004002Y008885D01*
X004148Y008739D01*
X004238Y008702D01*
X004228Y008699D01*
X004149Y008659D01*
X004078Y008607D01*
X004016Y008545D01*
X003964Y008474D01*
X003924Y008395D01*
X003897Y008311D01*
X003883Y008224D01*
X003883Y008200D01*
X004423Y008200D01*
X004423Y008160D01*
X004463Y008160D01*
X004463Y007620D01*
X004487Y007620D01*
X004574Y007634D01*
X004658Y007661D01*
X004736Y007701D01*
X004808Y007753D01*
X004870Y007815D01*
X004922Y007886D01*
X004962Y007965D01*
X004965Y007975D01*
X005002Y007885D01*
X005148Y007739D01*
X005339Y007660D01*
X005546Y007660D01*
X005737Y007739D01*
X005884Y007885D01*
X005963Y008077D01*
X005963Y008283D01*
X005913Y008404D01*
X006000Y008440D01*
X006041Y008480D01*
X007038Y008480D01*
X008582Y006936D01*
X008525Y006960D01*
X008421Y006960D01*
X008326Y006920D01*
X008252Y006847D01*
X008213Y006752D01*
X008213Y006648D01*
X008252Y006553D01*
X008326Y006480D01*
X008421Y006440D01*
X008525Y006440D01*
X008620Y006480D01*
X008661Y006520D01*
X015657Y006520D01*
X018275Y009138D01*
X018302Y009073D01*
X018343Y009032D01*
X018343Y008498D01*
X018302Y008457D01*
X018263Y008362D01*
X018263Y008258D01*
X018302Y008163D01*
X018376Y008090D01*
X018471Y008050D01*
X018575Y008050D01*
X018670Y008090D01*
X018743Y008163D01*
X018783Y008258D01*
X018783Y008362D01*
X018743Y008457D01*
X018703Y008498D01*
X018703Y009032D01*
X018743Y009073D01*
X018783Y009168D01*
X018783Y009272D01*
X018743Y009367D01*
X018670Y009440D01*
X018605Y009467D01*
X018903Y009765D01*
X018903Y009495D01*
X019008Y009390D01*
X019533Y008865D01*
X019533Y003760D01*
X019335Y003760D01*
X019174Y003693D01*
X019050Y003569D01*
X018983Y003408D01*
X018983Y003232D01*
X019050Y003071D01*
X019174Y002947D01*
X019335Y002880D01*
X020110Y002880D01*
X020272Y002947D01*
X020396Y003071D01*
X020463Y003232D01*
X020463Y003408D01*
X020396Y003569D01*
X020272Y003693D01*
X020110Y003760D01*
X019893Y003760D01*
X019893Y009015D01*
X019451Y009456D01*
X019460Y009460D01*
X019501Y009500D01*
X020983Y009500D01*
X020964Y009474D01*
X020924Y009395D01*
X020897Y009311D01*
X020883Y009224D01*
X020883Y009200D01*
X021423Y009200D01*
X021423Y009160D01*
X020883Y009160D01*
X020883Y009136D01*
X020897Y009049D01*
X020924Y008965D01*
X020964Y008886D01*
X021016Y008815D01*
X021078Y008753D01*
X021149Y008701D01*
X021228Y008661D01*
X021238Y008658D01*
X021148Y008621D01*
X021002Y008475D01*
X020923Y008283D01*
X020923Y008077D01*
X021002Y007885D01*
X021148Y007739D01*
X021339Y007660D01*
X021546Y007660D01*
X021569Y007669D01*
X021843Y007395D01*
X021948Y007290D01*
X022867Y007290D01*
X023427Y007850D01*
X023453Y007875D01*
X023453Y006414D01*
X020118Y002350D01*
X016682Y002350D01*
X015411Y003106D01*
X015463Y003232D01*
X015463Y003408D01*
X015396Y003569D01*
X015272Y003693D01*
X015110Y003760D01*
X014335Y003760D01*
X014174Y003693D01*
X014050Y003569D01*
X013983Y003408D01*
X013983Y003232D01*
X014050Y003071D01*
X014174Y002947D01*
X014335Y002880D01*
X015087Y002880D01*
X016521Y002027D01*
X016558Y001990D01*
X016583Y001990D01*
X016605Y001977D01*
X016655Y001990D01*
X016694Y001990D01*
X016679Y001985D01*
X016611Y001951D01*
X016550Y001906D01*
X016497Y001853D01*
X016452Y001792D01*
X016418Y001724D01*
X016395Y001652D01*
X016383Y001578D01*
X016383Y001560D01*
X017143Y001560D01*
X017143Y001520D01*
X017183Y001520D01*
X017183Y001560D01*
X017943Y001560D01*
X017943Y001578D01*
X017931Y001652D01*
X017908Y001724D01*
X017873Y001792D01*
X017829Y001853D01*
X017776Y001906D01*
X017714Y001951D01*
X017647Y001985D01*
X017631Y001990D01*
X019254Y001990D01*
X019239Y001985D01*
X019171Y001951D01*
X019110Y001906D01*
X019057Y001853D01*
X019012Y001792D01*
X018978Y001724D01*
X018955Y001652D01*
X018943Y001578D01*
X018943Y001560D01*
X019703Y001560D01*
X019703Y001520D01*
X019743Y001520D01*
X019743Y001560D01*
X020503Y001560D01*
X020503Y001578D01*
X020491Y001652D01*
X020468Y001724D01*
X020433Y001792D01*
X020389Y001853D01*
X020336Y001906D01*
X020274Y001951D01*
X020207Y001985D01*
X020196Y001988D01*
X020212Y001990D01*
X020277Y001990D01*
X020285Y001997D01*
X020295Y001998D01*
X020336Y002049D01*
X020383Y002095D01*
X020383Y002106D01*
X021423Y003373D01*
X021423Y003232D01*
X021490Y003071D01*
X021614Y002947D01*
X021775Y002880D01*
X022550Y002880D01*
X022712Y002947D01*
X022836Y003071D01*
X022903Y003232D01*
X022903Y003408D01*
X022836Y003569D01*
X022712Y003693D01*
X022550Y003760D01*
X021775Y003760D01*
X021722Y003738D01*
X023766Y006229D01*
X023813Y006275D01*
X023813Y006286D01*
X023819Y006293D01*
X023813Y006359D01*
X023813Y011762D01*
X023853Y011803D01*
X023893Y011898D01*
X023893Y012002D01*
X023853Y012097D01*
X023780Y012170D01*
X023685Y012210D01*
X023581Y012210D01*
X023533Y012190D01*
X023533Y017415D01*
X021433Y019515D01*
X021327Y019620D01*
X019297Y019620D01*
X019025Y019892D01*
X019092Y020054D01*
X019160Y019891D01*
X019304Y019748D01*
X019491Y019670D01*
X019694Y019670D01*
X019881Y019748D01*
X020025Y019891D01*
X020102Y020079D01*
X020102Y020281D01*
X020025Y020469D01*
X019881Y020612D01*
X019694Y020690D01*
X019491Y020690D01*
X019304Y020612D01*
X019160Y020469D01*
X019092Y020306D01*
X019025Y020469D01*
X018881Y020612D01*
X018694Y020690D01*
X018491Y020690D01*
X018453Y020674D01*
X018363Y020765D01*
X018363Y020822D01*
X018323Y020917D01*
X018250Y020990D01*
X018363Y020810D02*
X029986Y020810D01*
X029923Y020651D02*
X019788Y020651D01*
X020001Y020493D02*
X029923Y020493D01*
X029989Y020334D02*
X020081Y020334D01*
X020102Y020176D02*
X030185Y020176D01*
X029984Y020017D02*
X020077Y020017D01*
X019992Y019859D02*
X029923Y019859D01*
X029924Y019700D02*
X019766Y019700D01*
X019419Y019700D02*
X019217Y019700D01*
X019193Y019859D02*
X019059Y019859D01*
X019077Y020017D02*
X019108Y020017D01*
X019104Y020334D02*
X019081Y020334D01*
X019001Y020493D02*
X019184Y020493D01*
X019397Y020651D02*
X018788Y020651D01*
X018126Y020493D02*
X018001Y020493D01*
X018081Y020334D02*
X018104Y020334D01*
X018092Y020054D02*
X018160Y019891D01*
X018304Y019748D01*
X018491Y019670D01*
X018694Y019670D01*
X018725Y019683D01*
X019148Y019260D01*
X021178Y019260D01*
X023173Y017265D01*
X023173Y015815D01*
X022948Y016040D01*
X022963Y016077D01*
X022963Y016283D01*
X022884Y016475D01*
X022737Y016621D01*
X022595Y016680D01*
X022737Y016739D01*
X022884Y016885D01*
X022963Y017077D01*
X022963Y017283D01*
X022884Y017475D01*
X022737Y017621D01*
X022546Y017700D01*
X022339Y017700D01*
X022148Y017621D01*
X022002Y017475D01*
X021943Y017332D01*
X021884Y017475D01*
X021737Y017621D01*
X021546Y017700D01*
X021339Y017700D01*
X021148Y017621D01*
X021002Y017475D01*
X020923Y017283D01*
X020923Y017077D01*
X021002Y016885D01*
X021148Y016739D01*
X021291Y016680D01*
X021148Y016621D01*
X021002Y016475D01*
X020923Y016283D01*
X020923Y016077D01*
X021002Y015885D01*
X021148Y015739D01*
X021291Y015680D01*
X021148Y015621D01*
X021002Y015475D01*
X020923Y015283D01*
X020923Y015077D01*
X021002Y014885D01*
X021148Y014739D01*
X021291Y014680D01*
X021148Y014621D01*
X021002Y014475D01*
X020923Y014283D01*
X020923Y014077D01*
X021002Y013885D01*
X021007Y013880D01*
X020898Y013880D01*
X020793Y013775D01*
X020343Y013325D01*
X019297Y014370D01*
X017311Y014370D01*
X017270Y014410D01*
X017175Y014450D01*
X017071Y014450D01*
X016976Y014410D01*
X016902Y014337D01*
X016863Y014242D01*
X016863Y014185D01*
X014668Y011990D01*
X012873Y011990D01*
X012893Y012038D01*
X012893Y012142D01*
X012853Y012237D01*
X012844Y012247D01*
X012858Y012262D01*
X012858Y012811D01*
X012776Y012893D01*
X012109Y012893D01*
X012027Y012811D01*
X012027Y012792D01*
X012013Y012806D01*
X011582Y012806D01*
X011500Y012724D01*
X011500Y012136D01*
X011582Y012054D01*
X012013Y012054D01*
X012095Y012136D01*
X012095Y012194D01*
X012109Y012180D01*
X012336Y012180D01*
X012373Y012132D01*
X012373Y012038D01*
X012393Y011990D01*
X010818Y011990D01*
X010713Y011885D01*
X009418Y010590D01*
X009401Y010590D01*
X009360Y010630D01*
X009265Y010670D01*
X009161Y010670D01*
X009066Y010630D01*
X008992Y010557D01*
X008953Y010462D01*
X008953Y010358D01*
X008992Y010263D01*
X009020Y010235D01*
X008992Y010207D01*
X008953Y010112D01*
X008953Y010008D01*
X008973Y009960D01*
X008307Y009960D01*
X006513Y011755D01*
X006407Y011860D01*
X006076Y011860D01*
X006067Y011867D01*
X006003Y011860D01*
X005938Y011860D01*
X005930Y011852D01*
X005913Y011850D01*
X005848Y011850D01*
X005884Y011885D01*
X005963Y012077D01*
X005963Y012283D01*
X005959Y012292D01*
X007333Y013665D01*
X007333Y013608D01*
X007372Y013513D01*
X007446Y013440D01*
X007541Y013400D01*
X007645Y013400D01*
X007740Y013440D01*
X007813Y013513D01*
X007853Y013608D01*
X007853Y013665D01*
X008057Y013870D01*
X011807Y013870D01*
X011913Y013975D01*
X013477Y015540D01*
X013535Y015540D01*
X013630Y015580D01*
X013703Y015653D01*
X013743Y015748D01*
X013743Y015852D01*
X013703Y015947D01*
X013630Y016020D01*
X013535Y016060D01*
X013431Y016060D01*
X013336Y016020D01*
X013262Y015947D01*
X013223Y015852D01*
X013223Y015795D01*
X011658Y014230D01*
X010137Y014230D01*
X015577Y019670D01*
X015694Y019670D01*
X015881Y019748D01*
X016025Y019891D01*
X016092Y020054D01*
X016160Y019891D01*
X016304Y019748D01*
X016491Y019670D01*
X016694Y019670D01*
X016881Y019748D01*
X017025Y019891D01*
X017092Y020054D01*
X017160Y019891D01*
X017304Y019748D01*
X017491Y019670D01*
X017694Y019670D01*
X017881Y019748D01*
X018025Y019891D01*
X018092Y020054D01*
X018077Y020017D02*
X018108Y020017D01*
X018193Y019859D02*
X017992Y019859D01*
X017766Y019700D02*
X018419Y019700D01*
X018867Y019542D02*
X015449Y019542D01*
X015290Y019383D02*
X019025Y019383D01*
X017419Y019700D02*
X016766Y019700D01*
X016992Y019859D02*
X017193Y019859D01*
X017108Y020017D02*
X017077Y020017D01*
X017081Y020334D02*
X017104Y020334D01*
X017184Y020493D02*
X017001Y020493D01*
X016788Y020651D02*
X017397Y020651D01*
X017788Y020651D02*
X017871Y020651D01*
X017843Y020810D02*
X001623Y020810D01*
X001623Y020968D02*
X017933Y020968D01*
X016397Y020651D02*
X015788Y020651D01*
X016001Y020493D02*
X016184Y020493D01*
X016104Y020334D02*
X016081Y020334D01*
X016077Y020017D02*
X016108Y020017D01*
X016193Y019859D02*
X015992Y019859D01*
X015766Y019700D02*
X016419Y019700D01*
X015193Y019859D02*
X014992Y019859D01*
X015077Y020017D02*
X015108Y020017D01*
X015104Y020334D02*
X015081Y020334D01*
X015001Y020493D02*
X015184Y020493D01*
X015397Y020651D02*
X014788Y020651D01*
X014397Y020651D02*
X013788Y020651D01*
X014001Y020493D02*
X014184Y020493D01*
X014104Y020334D02*
X014081Y020334D01*
X014077Y020017D02*
X014108Y020017D01*
X014193Y019859D02*
X013992Y019859D01*
X013766Y019700D02*
X014419Y019700D01*
X014766Y019700D02*
X015098Y019700D01*
X014940Y019542D02*
X006356Y019542D01*
X006419Y019700D02*
X006197Y019700D01*
X006193Y019859D02*
X006039Y019859D01*
X006077Y020017D02*
X006108Y020017D01*
X006104Y020334D02*
X006081Y020334D01*
X006001Y020493D02*
X006184Y020493D01*
X006397Y020651D02*
X005788Y020651D01*
X005397Y020651D02*
X004879Y020651D01*
X005045Y020493D02*
X005184Y020493D01*
X004612Y020493D02*
X004572Y020493D01*
X004572Y020651D02*
X004612Y020651D01*
X004572Y020730D02*
X004549Y020730D01*
X004464Y020716D01*
X004381Y020690D01*
X004304Y020650D01*
X004234Y020600D01*
X004173Y020538D01*
X004122Y020468D01*
X004083Y020391D01*
X004056Y020309D01*
X004042Y020223D01*
X004042Y020200D01*
X004572Y020200D01*
X004572Y020730D01*
X004305Y020651D02*
X001623Y020651D01*
X001623Y020493D02*
X004140Y020493D01*
X004064Y020334D02*
X001623Y020334D01*
X001623Y020176D02*
X004572Y020176D01*
X004572Y020334D02*
X004612Y020334D01*
X004612Y020017D02*
X004572Y020017D01*
X004572Y019859D02*
X004612Y019859D01*
X004612Y019700D02*
X004572Y019700D01*
X004323Y019700D02*
X001623Y019700D01*
X001623Y019542D02*
X005847Y019542D01*
X006005Y019383D02*
X001623Y019383D01*
X001623Y019225D02*
X006164Y019225D01*
X006322Y019066D02*
X001623Y019066D01*
X001623Y018908D02*
X006481Y018908D01*
X006639Y018749D02*
X001623Y018749D01*
X001623Y018591D02*
X006707Y018591D01*
X007179Y018591D02*
X013989Y018591D01*
X014147Y018749D02*
X007203Y018749D01*
X007103Y018908D02*
X014306Y018908D01*
X014464Y019066D02*
X006831Y019066D01*
X006673Y019225D02*
X014623Y019225D01*
X014781Y019383D02*
X006514Y019383D01*
X006766Y019700D02*
X007419Y019700D01*
X007193Y019859D02*
X006992Y019859D01*
X007077Y020017D02*
X007108Y020017D01*
X007104Y020334D02*
X007081Y020334D01*
X007001Y020493D02*
X007184Y020493D01*
X007397Y020651D02*
X006788Y020651D01*
X007788Y020651D02*
X008397Y020651D01*
X008184Y020493D02*
X008001Y020493D01*
X008081Y020334D02*
X008104Y020334D01*
X008108Y020017D02*
X008077Y020017D01*
X007992Y019859D02*
X008193Y019859D01*
X008419Y019700D02*
X007766Y019700D01*
X008766Y019700D02*
X009419Y019700D01*
X009193Y019859D02*
X008992Y019859D01*
X009077Y020017D02*
X009108Y020017D01*
X009104Y020334D02*
X009081Y020334D01*
X009001Y020493D02*
X009184Y020493D01*
X009397Y020651D02*
X008788Y020651D01*
X009788Y020651D02*
X010397Y020651D01*
X010184Y020493D02*
X010001Y020493D01*
X010081Y020334D02*
X010104Y020334D01*
X010108Y020017D02*
X010077Y020017D01*
X009992Y019859D02*
X010193Y019859D01*
X010419Y019700D02*
X009766Y019700D01*
X010766Y019700D02*
X011419Y019700D01*
X011193Y019859D02*
X010992Y019859D01*
X011077Y020017D02*
X011108Y020017D01*
X011104Y020334D02*
X011081Y020334D01*
X011001Y020493D02*
X011184Y020493D01*
X011397Y020651D02*
X010788Y020651D01*
X011788Y020651D02*
X012397Y020651D01*
X012184Y020493D02*
X012001Y020493D01*
X012081Y020334D02*
X012104Y020334D01*
X012108Y020017D02*
X012077Y020017D01*
X011992Y019859D02*
X012193Y019859D01*
X012419Y019700D02*
X011766Y019700D01*
X012766Y019700D02*
X013419Y019700D01*
X013193Y019859D02*
X012992Y019859D01*
X013077Y020017D02*
X013108Y020017D01*
X013104Y020334D02*
X013081Y020334D01*
X013001Y020493D02*
X013184Y020493D01*
X013397Y020651D02*
X012788Y020651D01*
X014973Y019066D02*
X021372Y019066D01*
X021214Y019225D02*
X015132Y019225D01*
X014815Y018908D02*
X021531Y018908D01*
X021689Y018749D02*
X014656Y018749D01*
X014498Y018591D02*
X021848Y018591D01*
X022006Y018432D02*
X014339Y018432D01*
X014181Y018274D02*
X022165Y018274D01*
X022323Y018115D02*
X014022Y018115D01*
X013864Y017957D02*
X022482Y017957D01*
X022640Y017798D02*
X013705Y017798D01*
X013547Y017640D02*
X021193Y017640D01*
X021008Y017481D02*
X013388Y017481D01*
X013230Y017323D02*
X020939Y017323D01*
X020923Y017164D02*
X013071Y017164D01*
X012913Y017006D02*
X015921Y017006D01*
X015936Y017020D02*
X015862Y016947D01*
X015823Y016852D01*
X015823Y016748D01*
X015862Y016653D01*
X015936Y016580D01*
X016031Y016540D01*
X016135Y016540D01*
X016230Y016580D01*
X016271Y016620D01*
X020186Y016620D01*
X020222Y016533D01*
X020296Y016460D01*
X020391Y016420D01*
X020495Y016420D01*
X020590Y016460D01*
X020663Y016533D01*
X020703Y016628D01*
X020703Y016732D01*
X020663Y016827D01*
X020590Y016900D01*
X020495Y016940D01*
X020437Y016940D01*
X020397Y016980D01*
X016271Y016980D01*
X016230Y017020D01*
X016135Y017060D01*
X016031Y017060D01*
X015936Y017020D01*
X015823Y016847D02*
X012754Y016847D01*
X012596Y016689D02*
X015848Y016689D01*
X016245Y017006D02*
X020952Y017006D01*
X021040Y016847D02*
X020644Y016847D01*
X020703Y016689D02*
X021271Y016689D01*
X021057Y016530D02*
X020661Y016530D01*
X020959Y016372D02*
X012279Y016372D01*
X012437Y016530D02*
X020225Y016530D01*
X020923Y016213D02*
X012120Y016213D01*
X011962Y016055D02*
X013418Y016055D01*
X013548Y016055D02*
X014713Y016055D01*
X014722Y016077D02*
X014683Y015982D01*
X014683Y015878D01*
X014722Y015783D01*
X014796Y015710D01*
X014891Y015670D01*
X014948Y015670D01*
X016013Y014605D01*
X016118Y014500D01*
X020255Y014500D01*
X020296Y014460D01*
X020391Y014420D01*
X020495Y014420D01*
X020590Y014460D01*
X020663Y014533D01*
X020703Y014628D01*
X021166Y014628D01*
X021101Y014787D02*
X020680Y014787D01*
X020663Y014827D02*
X020703Y014732D01*
X020703Y014628D01*
X020600Y014470D02*
X021000Y014470D01*
X020934Y014311D02*
X019356Y014311D01*
X019515Y014153D02*
X020923Y014153D01*
X020957Y013994D02*
X019673Y013994D01*
X019832Y013836D02*
X020854Y013836D01*
X020695Y013677D02*
X019990Y013677D01*
X020149Y013519D02*
X020537Y013519D01*
X020378Y013360D02*
X020307Y013360D01*
X018951Y013367D02*
X018936Y013360D01*
X018862Y013287D01*
X018823Y013192D01*
X018823Y013088D01*
X018862Y012993D01*
X018903Y012952D01*
X018903Y010275D01*
X017653Y009025D01*
X017653Y009032D01*
X017693Y009073D01*
X017733Y009168D01*
X017733Y009272D01*
X017693Y009367D01*
X017620Y009440D01*
X017525Y009480D01*
X017421Y009480D01*
X017326Y009440D01*
X017252Y009367D01*
X017213Y009272D01*
X017213Y009168D01*
X017252Y009073D01*
X017293Y009032D01*
X017293Y008875D01*
X015508Y007090D01*
X008937Y007090D01*
X007293Y008735D01*
X007187Y008840D01*
X006041Y008840D01*
X006000Y008880D01*
X005905Y008920D01*
X005898Y008920D01*
X005963Y009077D01*
X005963Y009283D01*
X005884Y009475D01*
X005737Y009621D01*
X005595Y009680D01*
X005737Y009739D01*
X005884Y009885D01*
X005963Y010077D01*
X005963Y010283D01*
X005927Y010370D01*
X005988Y010370D01*
X006898Y009460D01*
X009427Y009460D01*
X009533Y009565D01*
X010757Y010790D01*
X015508Y010790D01*
X016138Y010160D01*
X017127Y010160D01*
X017233Y010265D01*
X018237Y011270D01*
X018295Y011270D01*
X018390Y011310D01*
X018463Y011383D01*
X018503Y011478D01*
X018503Y011582D01*
X018463Y011677D01*
X018390Y011750D01*
X018295Y011790D01*
X018191Y011790D01*
X018096Y011750D01*
X018022Y011677D01*
X017983Y011582D01*
X017983Y011525D01*
X017210Y010752D01*
X017203Y010767D01*
X017130Y010840D01*
X017035Y010880D01*
X016977Y010880D01*
X016673Y011185D01*
X016567Y011290D01*
X010837Y011290D01*
X011037Y011490D01*
X016007Y011490D01*
X018167Y013650D01*
X018225Y013650D01*
X018320Y013690D01*
X018361Y013730D01*
X018588Y013730D01*
X018951Y013367D01*
X018935Y013360D02*
X017877Y013360D01*
X017719Y013202D02*
X018827Y013202D01*
X018842Y013043D02*
X017560Y013043D01*
X017402Y012885D02*
X018903Y012885D01*
X018903Y012726D02*
X017243Y012726D01*
X017085Y012568D02*
X018903Y012568D01*
X018903Y012409D02*
X016926Y012409D01*
X016768Y012251D02*
X018903Y012251D01*
X018903Y012092D02*
X016609Y012092D01*
X016451Y011934D02*
X018903Y011934D01*
X018903Y011775D02*
X018331Y011775D01*
X018155Y011775D02*
X016292Y011775D01*
X016134Y011617D02*
X017997Y011617D01*
X017916Y011458D02*
X011005Y011458D01*
X010847Y011300D02*
X017758Y011300D01*
X017599Y011141D02*
X016716Y011141D01*
X016875Y010983D02*
X017441Y010983D01*
X017282Y010824D02*
X017147Y010824D01*
X017474Y010507D02*
X018903Y010507D01*
X018903Y010349D02*
X017316Y010349D01*
X017157Y010190D02*
X018818Y010190D01*
X018660Y010032D02*
X015523Y010032D01*
X015523Y010190D02*
X016108Y010190D01*
X015950Y010349D02*
X015523Y010349D01*
X015523Y010507D02*
X015791Y010507D01*
X015633Y010666D02*
X015523Y010666D01*
X015523Y010713D02*
X015476Y010760D01*
X011410Y010760D01*
X011363Y010713D01*
X011363Y007147D01*
X011410Y007100D01*
X015476Y007100D01*
X015523Y007147D01*
X015523Y010713D01*
X015523Y009873D02*
X018501Y009873D01*
X018343Y009715D02*
X015523Y009715D01*
X015523Y009556D02*
X018184Y009556D01*
X018026Y009398D02*
X017663Y009398D01*
X017733Y009239D02*
X017867Y009239D01*
X017709Y009081D02*
X017696Y009081D01*
X018059Y008922D02*
X018343Y008922D01*
X018343Y008764D02*
X017901Y008764D01*
X017742Y008605D02*
X018343Y008605D01*
X018298Y008447D02*
X017584Y008447D01*
X017425Y008288D02*
X018263Y008288D01*
X018336Y008130D02*
X017267Y008130D01*
X017108Y007971D02*
X019533Y007971D01*
X019533Y007813D02*
X016950Y007813D01*
X016791Y007654D02*
X019533Y007654D01*
X019533Y007496D02*
X016633Y007496D01*
X016474Y007337D02*
X019533Y007337D01*
X019533Y007179D02*
X016316Y007179D01*
X016157Y007020D02*
X019533Y007020D01*
X019533Y006862D02*
X015999Y006862D01*
X015840Y006703D02*
X019533Y006703D01*
X019533Y006545D02*
X015682Y006545D01*
X015597Y007179D02*
X015523Y007179D01*
X015523Y007337D02*
X015755Y007337D01*
X015914Y007496D02*
X015523Y007496D01*
X015523Y007654D02*
X016072Y007654D01*
X016231Y007813D02*
X015523Y007813D01*
X015523Y007971D02*
X016389Y007971D01*
X016548Y008130D02*
X015523Y008130D01*
X015523Y008288D02*
X016706Y008288D01*
X016865Y008447D02*
X015523Y008447D01*
X015523Y008605D02*
X017023Y008605D01*
X017182Y008764D02*
X015523Y008764D01*
X015523Y008922D02*
X017293Y008922D01*
X017249Y009081D02*
X015523Y009081D01*
X015523Y009239D02*
X017213Y009239D01*
X017283Y009398D02*
X015523Y009398D01*
X017633Y010666D02*
X018903Y010666D01*
X018903Y010824D02*
X017791Y010824D01*
X017950Y010983D02*
X018903Y010983D01*
X018903Y011141D02*
X018108Y011141D01*
X018366Y011300D02*
X018903Y011300D01*
X018903Y011458D02*
X018494Y011458D01*
X018488Y011617D02*
X018903Y011617D01*
X018852Y009715D02*
X018903Y009715D01*
X018903Y009556D02*
X018693Y009556D01*
X018713Y009398D02*
X019001Y009398D01*
X019159Y009239D02*
X018783Y009239D01*
X018746Y009081D02*
X019318Y009081D01*
X019476Y008922D02*
X018703Y008922D01*
X018703Y008764D02*
X019533Y008764D01*
X019533Y008605D02*
X018703Y008605D01*
X018748Y008447D02*
X019533Y008447D01*
X019533Y008288D02*
X018783Y008288D01*
X018710Y008130D02*
X019533Y008130D01*
X019893Y008130D02*
X020923Y008130D01*
X020925Y008288D02*
X019893Y008288D01*
X019893Y008447D02*
X020990Y008447D01*
X021132Y008605D02*
X019893Y008605D01*
X019893Y008764D02*
X021067Y008764D01*
X020946Y008922D02*
X019893Y008922D01*
X019827Y009081D02*
X020892Y009081D01*
X020885Y009239D02*
X019668Y009239D01*
X019510Y009398D02*
X020925Y009398D01*
X020967Y007971D02*
X019893Y007971D01*
X019893Y007813D02*
X021075Y007813D01*
X021584Y007654D02*
X019893Y007654D01*
X019893Y007496D02*
X021743Y007496D01*
X021901Y007337D02*
X019893Y007337D01*
X019893Y007179D02*
X023453Y007179D01*
X023453Y007337D02*
X022914Y007337D01*
X023073Y007496D02*
X023453Y007496D01*
X023453Y007654D02*
X023231Y007654D01*
X023390Y007813D02*
X023453Y007813D01*
X023813Y007813D02*
X032759Y007813D01*
X032759Y007971D02*
X023813Y007971D01*
X023813Y008130D02*
X032759Y008130D01*
X032759Y008288D02*
X023813Y008288D01*
X023813Y008447D02*
X032759Y008447D01*
X032759Y008605D02*
X023813Y008605D01*
X023813Y008764D02*
X032759Y008764D01*
X032759Y008922D02*
X023813Y008922D01*
X023813Y009081D02*
X032759Y009081D01*
X032759Y009239D02*
X023813Y009239D01*
X023813Y009398D02*
X032759Y009398D01*
X032759Y009556D02*
X023813Y009556D01*
X023813Y009715D02*
X032759Y009715D01*
X032759Y009873D02*
X023813Y009873D01*
X023813Y010032D02*
X032759Y010032D01*
X032759Y010190D02*
X023813Y010190D01*
X023813Y010349D02*
X032759Y010349D01*
X032759Y010507D02*
X023813Y010507D01*
X023813Y010666D02*
X032759Y010666D01*
X032759Y010824D02*
X023813Y010824D01*
X023813Y010983D02*
X032759Y010983D01*
X032759Y011141D02*
X023813Y011141D01*
X023813Y011300D02*
X032759Y011300D01*
X032759Y011458D02*
X023813Y011458D01*
X023813Y011617D02*
X032759Y011617D01*
X032759Y011775D02*
X023826Y011775D01*
X023893Y011934D02*
X032759Y011934D01*
X032759Y012092D02*
X023855Y012092D01*
X023533Y012251D02*
X032759Y012251D01*
X032759Y012409D02*
X023533Y012409D01*
X023533Y012568D02*
X032759Y012568D01*
X032759Y012726D02*
X023533Y012726D01*
X023533Y012885D02*
X032759Y012885D01*
X032759Y013043D02*
X023533Y013043D01*
X023533Y013202D02*
X032759Y013202D01*
X032759Y013360D02*
X023533Y013360D01*
X023533Y013519D02*
X032759Y013519D01*
X032759Y013677D02*
X023533Y013677D01*
X023533Y013836D02*
X027894Y013836D01*
X027951Y013778D02*
X028161Y013691D01*
X028388Y013691D01*
X028597Y013778D01*
X028758Y013939D01*
X028844Y014148D01*
X028844Y014375D01*
X028758Y014584D01*
X028597Y014745D01*
X028576Y014754D01*
X028597Y014763D01*
X028758Y014923D01*
X028844Y015132D01*
X028844Y015359D01*
X028758Y015569D01*
X028597Y015729D01*
X028388Y015816D01*
X028362Y015816D01*
X028510Y015877D01*
X028627Y015994D01*
X028691Y016147D01*
X028691Y016313D01*
X028627Y016466D01*
X028510Y016583D01*
X028362Y016644D01*
X028388Y016644D01*
X028597Y016731D01*
X028758Y016891D01*
X028844Y017101D01*
X028844Y017328D01*
X028758Y017537D01*
X028597Y017697D01*
X028576Y017706D01*
X028597Y017715D01*
X028758Y017876D01*
X028844Y018085D01*
X028844Y018312D01*
X028758Y018521D01*
X028597Y018682D01*
X028388Y018769D01*
X028161Y018769D01*
X027951Y018682D01*
X027791Y018521D01*
X027704Y018312D01*
X027704Y018085D01*
X027791Y017876D01*
X027951Y017715D01*
X027973Y017706D01*
X027951Y017697D01*
X027791Y017537D01*
X027704Y017328D01*
X027704Y017101D01*
X027791Y016891D01*
X027951Y016731D01*
X028161Y016644D01*
X028187Y016644D01*
X028039Y016583D01*
X027921Y016466D01*
X027858Y016313D01*
X027858Y016147D01*
X027921Y015994D01*
X028039Y015877D01*
X028187Y015816D01*
X028161Y015816D01*
X027951Y015729D01*
X027791Y015569D01*
X027704Y015359D01*
X027704Y015132D01*
X027791Y014923D01*
X027951Y014763D01*
X027973Y014754D01*
X027951Y014745D01*
X027791Y014584D01*
X027704Y014375D01*
X027704Y014148D01*
X027791Y013939D01*
X027951Y013778D01*
X027768Y013994D02*
X023533Y013994D01*
X023533Y014153D02*
X027704Y014153D01*
X027704Y014311D02*
X023533Y014311D01*
X023533Y014470D02*
X027744Y014470D01*
X027835Y014628D02*
X023533Y014628D01*
X023533Y014787D02*
X027927Y014787D01*
X027782Y014945D02*
X023533Y014945D01*
X023533Y015104D02*
X027716Y015104D01*
X027704Y015262D02*
X023533Y015262D01*
X023533Y015421D02*
X027730Y015421D01*
X027802Y015579D02*
X023533Y015579D01*
X023533Y015738D02*
X027972Y015738D01*
X028020Y015896D02*
X023533Y015896D01*
X023533Y016055D02*
X027897Y016055D01*
X027858Y016213D02*
X023533Y016213D01*
X023533Y016372D02*
X027882Y016372D01*
X027986Y016530D02*
X023533Y016530D01*
X023533Y016689D02*
X028054Y016689D01*
X027835Y016847D02*
X023533Y016847D01*
X023533Y017006D02*
X027744Y017006D01*
X027704Y017164D02*
X023533Y017164D01*
X023533Y017323D02*
X027704Y017323D01*
X027768Y017481D02*
X023466Y017481D01*
X023308Y017640D02*
X027894Y017640D01*
X027869Y017798D02*
X023149Y017798D01*
X022991Y017957D02*
X027758Y017957D01*
X027704Y018115D02*
X022832Y018115D01*
X022674Y018274D02*
X027704Y018274D01*
X027754Y018432D02*
X022515Y018432D01*
X022357Y018591D02*
X027860Y018591D01*
X028114Y018749D02*
X022198Y018749D01*
X022040Y018908D02*
X032759Y018908D01*
X032759Y019066D02*
X021881Y019066D01*
X021723Y019225D02*
X032759Y019225D01*
X032759Y019383D02*
X030467Y019383D01*
X030219Y019383D02*
X021564Y019383D01*
X021406Y019542D02*
X029994Y019542D01*
X030692Y019542D02*
X032759Y019542D01*
X032759Y019700D02*
X030762Y019700D01*
X030763Y019859D02*
X032759Y019859D01*
X032759Y020017D02*
X030702Y020017D01*
X030326Y018615D02*
X030160Y018615D01*
X030007Y018551D01*
X029890Y018434D01*
X029827Y018281D01*
X029827Y018116D01*
X029890Y017963D01*
X030007Y017846D01*
X030160Y017782D01*
X030326Y017782D01*
X030479Y017846D01*
X030596Y017963D01*
X030659Y018116D01*
X030659Y018281D01*
X030596Y018434D01*
X030479Y018551D01*
X030326Y018615D01*
X030384Y018591D02*
X031086Y018591D01*
X031144Y018615D02*
X030991Y018551D01*
X030874Y018434D01*
X030811Y018281D01*
X030811Y018116D01*
X030874Y017963D01*
X030991Y017846D01*
X031144Y017782D01*
X031310Y017782D01*
X031463Y017846D01*
X031580Y017963D01*
X031643Y018116D01*
X031643Y018281D01*
X031580Y018434D01*
X031463Y018551D01*
X031310Y018615D01*
X031144Y018615D01*
X031368Y018591D02*
X032759Y018591D01*
X032759Y018749D02*
X028435Y018749D01*
X028688Y018591D02*
X030102Y018591D01*
X029889Y018432D02*
X028795Y018432D01*
X028844Y018274D02*
X029827Y018274D01*
X029827Y018115D02*
X028844Y018115D01*
X028791Y017957D02*
X029896Y017957D01*
X030122Y017798D02*
X028680Y017798D01*
X028655Y017640D02*
X032759Y017640D01*
X032759Y017798D02*
X031348Y017798D01*
X031106Y017798D02*
X030364Y017798D01*
X030589Y017957D02*
X030880Y017957D01*
X030811Y018115D02*
X030659Y018115D01*
X030659Y018274D02*
X030811Y018274D01*
X030873Y018432D02*
X030597Y018432D01*
X031581Y018432D02*
X032759Y018432D01*
X032759Y018274D02*
X031643Y018274D01*
X031643Y018115D02*
X032759Y018115D01*
X032759Y017957D02*
X031574Y017957D01*
X032759Y017481D02*
X028781Y017481D01*
X028844Y017323D02*
X032759Y017323D01*
X032759Y017164D02*
X028844Y017164D01*
X028805Y017006D02*
X032759Y017006D01*
X032759Y016847D02*
X028713Y016847D01*
X028495Y016689D02*
X029839Y016689D01*
X029845Y016695D02*
X029778Y016627D01*
X029721Y016550D01*
X029678Y016464D01*
X029648Y016373D01*
X029633Y016278D01*
X029633Y016278D01*
X030195Y016278D01*
X030195Y016840D01*
X030195Y016840D01*
X030100Y016825D01*
X030009Y016795D01*
X029923Y016752D01*
X029845Y016695D01*
X029711Y016530D02*
X028563Y016530D01*
X028666Y016372D02*
X029648Y016372D01*
X029633Y016182D02*
X029633Y016182D01*
X029648Y016087D01*
X029678Y015996D01*
X029721Y015910D01*
X029778Y015833D01*
X029845Y015765D01*
X029923Y015708D01*
X030009Y015665D01*
X030100Y015635D01*
X030195Y015620D01*
X030195Y016182D01*
X030291Y016182D01*
X030291Y016278D01*
X030853Y016278D01*
X030838Y016373D01*
X030808Y016464D01*
X030765Y016550D01*
X030708Y016627D01*
X030640Y016695D01*
X030563Y016752D01*
X030477Y016795D01*
X030386Y016825D01*
X030291Y016840D01*
X030291Y016840D01*
X030291Y016278D01*
X030195Y016278D01*
X030195Y016182D01*
X029633Y016182D01*
X029658Y016055D02*
X028652Y016055D01*
X028691Y016213D02*
X030195Y016213D01*
X030291Y016213D02*
X032759Y016213D01*
X032759Y016055D02*
X030827Y016055D01*
X030838Y016087D02*
X030853Y016182D01*
X030853Y016182D01*
X030291Y016182D01*
X030291Y015620D01*
X030386Y015635D01*
X030477Y015665D01*
X030563Y015708D01*
X030640Y015765D01*
X030708Y015833D01*
X030765Y015910D01*
X030808Y015996D01*
X030838Y016087D01*
X030853Y016278D02*
X030853Y016278D01*
X030838Y016372D02*
X032759Y016372D01*
X032759Y016530D02*
X030775Y016530D01*
X030647Y016689D02*
X032759Y016689D01*
X032759Y015896D02*
X030754Y015896D01*
X030603Y015738D02*
X032759Y015738D01*
X032759Y015579D02*
X028747Y015579D01*
X028819Y015421D02*
X032759Y015421D01*
X032759Y015262D02*
X028844Y015262D01*
X028832Y015104D02*
X032759Y015104D01*
X032759Y014945D02*
X028767Y014945D01*
X028621Y014787D02*
X032759Y014787D01*
X032759Y014628D02*
X031430Y014628D01*
X031463Y014614D02*
X031310Y014678D01*
X031144Y014678D01*
X030991Y014614D01*
X030874Y014497D01*
X030811Y014344D01*
X030811Y014179D01*
X030874Y014026D01*
X030991Y013909D01*
X031144Y013845D01*
X031310Y013845D01*
X031463Y013909D01*
X031580Y014026D01*
X031643Y014179D01*
X031643Y014344D01*
X031580Y014497D01*
X031463Y014614D01*
X031591Y014470D02*
X032759Y014470D01*
X032759Y014311D02*
X031643Y014311D01*
X031632Y014153D02*
X032759Y014153D01*
X032759Y013994D02*
X031548Y013994D01*
X030906Y013994D02*
X030564Y013994D01*
X030596Y014026D02*
X030659Y014179D01*
X030659Y014344D01*
X030596Y014497D01*
X030479Y014614D01*
X030326Y014678D01*
X030160Y014678D01*
X030007Y014614D01*
X029890Y014497D01*
X029827Y014344D01*
X029827Y014179D01*
X029890Y014026D01*
X030007Y013909D01*
X030160Y013845D01*
X030326Y013845D01*
X030479Y013909D01*
X030596Y014026D01*
X030648Y014153D02*
X030822Y014153D01*
X030811Y014311D02*
X030659Y014311D01*
X030607Y014470D02*
X030863Y014470D01*
X031024Y014628D02*
X030446Y014628D01*
X030040Y014628D02*
X028714Y014628D01*
X028805Y014470D02*
X029879Y014470D01*
X029827Y014311D02*
X028844Y014311D01*
X028844Y014153D02*
X029837Y014153D01*
X029922Y013994D02*
X028781Y013994D01*
X028654Y013836D02*
X032759Y013836D01*
X030291Y015620D02*
X030291Y015620D01*
X030195Y015620D02*
X030195Y015620D01*
X030195Y015738D02*
X030291Y015738D01*
X030291Y015896D02*
X030195Y015896D01*
X030195Y016055D02*
X030291Y016055D01*
X030291Y016372D02*
X030195Y016372D01*
X030195Y016530D02*
X030291Y016530D01*
X030291Y016689D02*
X030195Y016689D01*
X029731Y015896D02*
X028529Y015896D01*
X028577Y015738D02*
X029883Y015738D01*
X023173Y015896D02*
X023091Y015896D01*
X023173Y016055D02*
X022954Y016055D01*
X022963Y016213D02*
X023173Y016213D01*
X023173Y016372D02*
X022926Y016372D01*
X022828Y016530D02*
X023173Y016530D01*
X023173Y016689D02*
X022615Y016689D01*
X022845Y016847D02*
X023173Y016847D01*
X023173Y017006D02*
X022933Y017006D01*
X022963Y017164D02*
X023173Y017164D01*
X023116Y017323D02*
X022947Y017323D01*
X022957Y017481D02*
X022877Y017481D01*
X022799Y017640D02*
X022692Y017640D01*
X022193Y017640D02*
X021692Y017640D01*
X021877Y017481D02*
X022008Y017481D01*
X020932Y016055D02*
X016208Y016055D01*
X016195Y016060D02*
X016091Y016060D01*
X015996Y016020D01*
X015922Y015947D01*
X015883Y015852D01*
X015883Y015748D01*
X015922Y015653D01*
X015996Y015580D01*
X016091Y015540D01*
X016195Y015540D01*
X016290Y015580D01*
X016331Y015620D01*
X017248Y015620D01*
X017618Y015250D01*
X020255Y015250D01*
X020296Y015210D01*
X020391Y015170D01*
X020495Y015170D01*
X020590Y015210D01*
X020663Y015283D01*
X020703Y015378D01*
X020703Y015482D01*
X020663Y015577D01*
X020590Y015650D01*
X020495Y015690D01*
X020391Y015690D01*
X020296Y015650D01*
X020255Y015610D01*
X017767Y015610D01*
X017397Y015980D01*
X016331Y015980D01*
X016290Y016020D01*
X016195Y016060D01*
X016078Y016055D02*
X015173Y016055D01*
X015163Y016077D02*
X015090Y016150D01*
X014995Y016190D01*
X014891Y016190D01*
X014796Y016150D01*
X014722Y016077D01*
X014683Y015896D02*
X013724Y015896D01*
X013738Y015738D02*
X014768Y015738D01*
X015039Y015579D02*
X013629Y015579D01*
X013358Y015421D02*
X015198Y015421D01*
X015356Y015262D02*
X013199Y015262D01*
X013041Y015104D02*
X015515Y015104D01*
X015673Y014945D02*
X012882Y014945D01*
X012724Y014787D02*
X015832Y014787D01*
X015990Y014628D02*
X012565Y014628D01*
X012407Y014470D02*
X020286Y014470D01*
X020255Y014860D02*
X016267Y014860D01*
X015203Y015925D01*
X015203Y015982D01*
X015163Y016077D01*
X015231Y015896D02*
X015901Y015896D01*
X015887Y015738D02*
X015390Y015738D01*
X015548Y015579D02*
X015997Y015579D01*
X016289Y015579D02*
X017289Y015579D01*
X017448Y015421D02*
X015707Y015421D01*
X015865Y015262D02*
X017606Y015262D01*
X017640Y015738D02*
X021152Y015738D01*
X021106Y015579D02*
X020662Y015579D01*
X020703Y015421D02*
X020980Y015421D01*
X020923Y015262D02*
X020643Y015262D01*
X020923Y015104D02*
X016024Y015104D01*
X016182Y014945D02*
X020977Y014945D01*
X020663Y014827D02*
X020590Y014900D01*
X020495Y014940D01*
X020391Y014940D01*
X020296Y014900D01*
X020255Y014860D01*
X020998Y015896D02*
X017481Y015896D01*
X016013Y014605D02*
X016013Y014605D01*
X016672Y013994D02*
X011931Y013994D01*
X012013Y013806D02*
X011582Y013806D01*
X011500Y013724D01*
X011500Y013136D01*
X011582Y013054D01*
X012013Y013054D01*
X012027Y013068D01*
X012027Y013049D01*
X012109Y012967D01*
X012776Y012967D01*
X012858Y013049D01*
X012858Y013598D01*
X012776Y013680D01*
X012109Y013680D01*
X012095Y013666D01*
X012095Y013724D01*
X012013Y013806D01*
X012095Y013677D02*
X012106Y013677D01*
X012780Y013677D02*
X016355Y013677D01*
X016197Y013519D02*
X012858Y013519D01*
X012858Y013360D02*
X016038Y013360D01*
X015880Y013202D02*
X012858Y013202D01*
X012852Y013043D02*
X015721Y013043D01*
X015563Y012885D02*
X012785Y012885D01*
X012858Y012726D02*
X015404Y012726D01*
X015246Y012568D02*
X012858Y012568D01*
X012858Y012409D02*
X015087Y012409D01*
X014929Y012251D02*
X012847Y012251D01*
X012893Y012092D02*
X014770Y012092D01*
X012373Y012092D02*
X012051Y012092D01*
X011543Y012092D02*
X011395Y012092D01*
X011390Y012083D02*
X011414Y012124D01*
X011426Y012170D01*
X011426Y012430D01*
X011426Y012690D01*
X011414Y012736D01*
X011390Y012777D01*
X011357Y012810D01*
X011315Y012834D01*
X011270Y012846D01*
X011089Y012846D01*
X011089Y012430D01*
X011426Y012430D01*
X011089Y012430D01*
X011089Y012430D01*
X011089Y012430D01*
X011089Y012014D01*
X011270Y012014D01*
X011315Y012026D01*
X011357Y012050D01*
X011390Y012083D01*
X011426Y012251D02*
X011500Y012251D01*
X011500Y012409D02*
X011426Y012409D01*
X011426Y012568D02*
X011500Y012568D01*
X011502Y012726D02*
X011416Y012726D01*
X011315Y013026D02*
X011357Y013050D01*
X011390Y013083D01*
X011414Y013124D01*
X011426Y013170D01*
X011426Y013430D01*
X011426Y013690D01*
X011414Y013736D01*
X011390Y013777D01*
X011357Y013810D01*
X011315Y013834D01*
X011270Y013846D01*
X011089Y013846D01*
X011089Y013430D01*
X011426Y013430D01*
X011089Y013430D01*
X011089Y013430D01*
X011089Y013430D01*
X011089Y013014D01*
X011270Y013014D01*
X011315Y013026D01*
X011345Y013043D02*
X012033Y013043D01*
X012101Y012885D02*
X006552Y012885D01*
X006710Y013043D02*
X010832Y013043D01*
X010821Y013050D02*
X010862Y013026D01*
X010907Y013014D01*
X011089Y013014D01*
X011089Y013430D01*
X011089Y013430D01*
X011089Y013846D01*
X010907Y013846D01*
X010862Y013834D01*
X010821Y013810D01*
X010787Y013777D01*
X010763Y013736D01*
X010751Y013690D01*
X010751Y013430D01*
X011089Y013430D01*
X010751Y013430D01*
X010751Y013170D01*
X010763Y013124D01*
X010787Y013083D01*
X010821Y013050D01*
X010751Y013202D02*
X006869Y013202D01*
X007027Y013360D02*
X010751Y013360D01*
X010751Y013519D02*
X007816Y013519D01*
X007864Y013677D02*
X010751Y013677D01*
X010867Y013836D02*
X008023Y013836D01*
X007370Y013519D02*
X007186Y013519D01*
X006994Y013836D02*
X006453Y013836D01*
X006611Y013994D02*
X007152Y013994D01*
X007311Y014153D02*
X006770Y014153D01*
X006928Y014311D02*
X007469Y014311D01*
X007087Y014470D02*
X009868Y014470D01*
X010026Y014628D02*
X007245Y014628D01*
X007404Y014787D02*
X010185Y014787D01*
X010343Y014945D02*
X007562Y014945D01*
X007721Y015104D02*
X010502Y015104D01*
X010660Y015262D02*
X007879Y015262D01*
X008038Y015421D02*
X010819Y015421D01*
X010977Y015579D02*
X008196Y015579D01*
X008355Y015738D02*
X011136Y015738D01*
X011294Y015896D02*
X008513Y015896D01*
X008672Y016055D02*
X011453Y016055D01*
X011611Y016213D02*
X008830Y016213D01*
X008989Y016372D02*
X011770Y016372D01*
X011928Y016530D02*
X009147Y016530D01*
X009306Y016689D02*
X012087Y016689D01*
X012245Y016847D02*
X009464Y016847D01*
X009623Y017006D02*
X012404Y017006D01*
X012562Y017164D02*
X009781Y017164D01*
X009940Y017323D02*
X012721Y017323D01*
X012879Y017481D02*
X010023Y017481D01*
X010074Y017640D02*
X013038Y017640D01*
X013196Y017798D02*
X010103Y017798D01*
X010014Y017957D02*
X013355Y017957D01*
X013513Y018115D02*
X001623Y018115D01*
X001623Y017957D02*
X009672Y017957D01*
X009583Y017798D02*
X001623Y017798D01*
X001623Y017640D02*
X004193Y017640D01*
X004008Y017481D02*
X001623Y017481D01*
X001623Y017323D02*
X003939Y017323D01*
X003923Y017164D02*
X001623Y017164D01*
X001623Y017006D02*
X003952Y017006D01*
X004040Y016847D02*
X001623Y016847D01*
X001623Y016689D02*
X004271Y016689D01*
X004057Y016530D02*
X001623Y016530D01*
X001623Y016372D02*
X003959Y016372D01*
X003923Y016213D02*
X001623Y016213D01*
X001623Y016055D02*
X003932Y016055D01*
X003804Y015896D02*
X001623Y015896D01*
X001623Y015738D02*
X003646Y015738D01*
X003503Y015579D02*
X001623Y015579D01*
X001623Y015421D02*
X003503Y015421D01*
X003503Y015262D02*
X001623Y015262D01*
X001623Y015104D02*
X003503Y015104D01*
X003503Y014945D02*
X001623Y014945D01*
X001623Y014787D02*
X003503Y014787D01*
X003503Y014628D02*
X001623Y014628D01*
X001623Y014470D02*
X003503Y014470D01*
X003503Y014311D02*
X001623Y014311D01*
X001623Y014153D02*
X003503Y014153D01*
X003503Y013994D02*
X001623Y013994D01*
X001623Y013836D02*
X003503Y013836D01*
X003503Y013677D02*
X001623Y013677D01*
X001623Y013519D02*
X003503Y013519D01*
X003503Y013360D02*
X001623Y013360D01*
X001623Y013202D02*
X003503Y013202D01*
X003503Y013043D02*
X001623Y013043D01*
X001623Y012885D02*
X003503Y012885D01*
X003503Y012726D02*
X001623Y012726D01*
X001623Y012568D02*
X003503Y012568D01*
X003503Y012409D02*
X001623Y012409D01*
X001623Y012251D02*
X003503Y012251D01*
X003566Y012092D02*
X001623Y012092D01*
X001623Y011934D02*
X003725Y011934D01*
X003883Y011775D02*
X001623Y011775D01*
X001623Y011617D02*
X004042Y011617D01*
X003995Y011458D02*
X001623Y011458D01*
X001623Y011300D02*
X003930Y011300D01*
X003923Y011141D02*
X001623Y011141D01*
X001623Y010983D02*
X003962Y010983D01*
X004063Y010824D02*
X001623Y010824D01*
X001623Y010666D02*
X004256Y010666D01*
X004034Y010507D02*
X001623Y010507D01*
X001623Y010349D02*
X003950Y010349D01*
X003923Y010190D02*
X001623Y010190D01*
X001623Y010032D02*
X003942Y010032D01*
X004014Y009873D02*
X001623Y009873D01*
X001623Y009715D02*
X004208Y009715D01*
X004083Y009556D02*
X001623Y009556D01*
X001623Y009398D02*
X003970Y009398D01*
X003923Y009239D02*
X001623Y009239D01*
X001623Y009081D02*
X003923Y009081D01*
X003987Y008922D02*
X001623Y008922D01*
X001623Y008764D02*
X004124Y008764D01*
X004076Y008605D02*
X001623Y008605D01*
X001623Y008447D02*
X003950Y008447D01*
X003893Y008288D02*
X001623Y008288D01*
X001623Y008130D02*
X003884Y008130D01*
X003883Y008136D02*
X003897Y008049D01*
X003924Y007965D01*
X003964Y007886D01*
X004016Y007815D01*
X004078Y007753D01*
X004149Y007701D01*
X004228Y007661D01*
X004312Y007634D01*
X004399Y007620D01*
X004423Y007620D01*
X004423Y008160D01*
X003883Y008160D01*
X003883Y008136D01*
X003922Y007971D02*
X001623Y007971D01*
X001623Y007813D02*
X004018Y007813D01*
X004249Y007654D02*
X001623Y007654D01*
X001623Y007496D02*
X008023Y007496D01*
X007864Y007654D02*
X004636Y007654D01*
X004463Y007654D02*
X004423Y007654D01*
X004423Y007813D02*
X004463Y007813D01*
X004463Y007971D02*
X004423Y007971D01*
X004423Y008130D02*
X004463Y008130D01*
X004964Y007971D02*
X004967Y007971D01*
X004867Y007813D02*
X005075Y007813D01*
X005811Y007813D02*
X007706Y007813D01*
X007547Y007971D02*
X005919Y007971D01*
X005963Y008130D02*
X007389Y008130D01*
X007230Y008288D02*
X005961Y008288D01*
X006007Y008447D02*
X007072Y008447D01*
X007264Y008764D02*
X011363Y008764D01*
X011363Y008922D02*
X005899Y008922D01*
X005963Y009081D02*
X011363Y009081D01*
X011363Y009239D02*
X005963Y009239D01*
X005916Y009398D02*
X011363Y009398D01*
X011363Y009556D02*
X009523Y009556D01*
X009682Y009715D02*
X011363Y009715D01*
X011363Y009873D02*
X009840Y009873D01*
X009999Y010032D02*
X011363Y010032D01*
X011363Y010190D02*
X010157Y010190D01*
X010316Y010349D02*
X011363Y010349D01*
X011363Y010507D02*
X010474Y010507D01*
X010633Y010666D02*
X011363Y010666D01*
X010286Y011458D02*
X006809Y011458D01*
X006651Y011617D02*
X010445Y011617D01*
X010603Y011775D02*
X006492Y011775D01*
X005904Y011934D02*
X010762Y011934D01*
X010821Y012050D02*
X010862Y012026D01*
X010907Y012014D01*
X011089Y012014D01*
X011089Y012430D01*
X011089Y012430D01*
X011089Y012846D01*
X010907Y012846D01*
X010862Y012834D01*
X010821Y012810D01*
X010787Y012777D01*
X010763Y012736D01*
X010751Y012690D01*
X010751Y012430D01*
X011089Y012430D01*
X010751Y012430D01*
X010751Y012170D01*
X010763Y012124D01*
X010787Y012083D01*
X010821Y012050D01*
X010782Y012092D02*
X005963Y012092D01*
X005963Y012251D02*
X010751Y012251D01*
X010751Y012409D02*
X006076Y012409D01*
X006235Y012568D02*
X010751Y012568D01*
X010761Y012726D02*
X006393Y012726D01*
X006201Y013043D02*
X005949Y013043D01*
X005963Y013202D02*
X006360Y013202D01*
X006518Y013360D02*
X005977Y013360D01*
X006136Y013519D02*
X006677Y013519D01*
X006835Y013677D02*
X006294Y013677D01*
X006102Y013994D02*
X005929Y013994D01*
X005944Y013836D02*
X005834Y013836D01*
X005785Y013677D02*
X005602Y013677D01*
X005963Y014153D02*
X006261Y014153D01*
X006419Y014311D02*
X005951Y014311D01*
X005886Y014470D02*
X006578Y014470D01*
X006736Y014628D02*
X005720Y014628D01*
X005785Y014787D02*
X006895Y014787D01*
X007053Y014945D02*
X005908Y014945D01*
X005963Y015104D02*
X007212Y015104D01*
X007370Y015262D02*
X005963Y015262D01*
X005906Y015421D02*
X007529Y015421D01*
X007687Y015579D02*
X005779Y015579D01*
X005733Y015738D02*
X007846Y015738D01*
X008004Y015896D02*
X005888Y015896D01*
X005954Y016055D02*
X008163Y016055D01*
X008321Y016213D02*
X005963Y016213D01*
X005926Y016372D02*
X008480Y016372D01*
X008638Y016530D02*
X005828Y016530D01*
X005615Y016689D02*
X008797Y016689D01*
X008955Y016847D02*
X005845Y016847D01*
X005933Y017006D02*
X009114Y017006D01*
X009272Y017164D02*
X005963Y017164D01*
X005947Y017323D02*
X009431Y017323D01*
X009589Y017481D02*
X005877Y017481D01*
X005692Y017640D02*
X009611Y017640D01*
X011645Y015738D02*
X013166Y015738D01*
X013241Y015896D02*
X011803Y015896D01*
X011486Y015579D02*
X013007Y015579D01*
X012849Y015421D02*
X011328Y015421D01*
X011169Y015262D02*
X012690Y015262D01*
X012532Y015104D02*
X011011Y015104D01*
X010852Y014945D02*
X012373Y014945D01*
X012215Y014787D02*
X010694Y014787D01*
X010535Y014628D02*
X012056Y014628D01*
X011898Y014470D02*
X010377Y014470D01*
X010218Y014311D02*
X011739Y014311D01*
X012090Y014153D02*
X016831Y014153D01*
X016892Y014311D02*
X012248Y014311D01*
X011500Y013677D02*
X011426Y013677D01*
X011426Y013519D02*
X011500Y013519D01*
X011500Y013360D02*
X011426Y013360D01*
X011426Y013202D02*
X011500Y013202D01*
X011089Y013202D02*
X011089Y013202D01*
X011089Y013360D02*
X011089Y013360D01*
X011089Y013430D02*
X011089Y013430D01*
X011089Y013519D02*
X011089Y013519D01*
X011089Y013677D02*
X011089Y013677D01*
X011089Y013836D02*
X011089Y013836D01*
X011310Y013836D02*
X016514Y013836D01*
X018036Y013519D02*
X018800Y013519D01*
X018641Y013677D02*
X018290Y013677D01*
X011089Y013043D02*
X011089Y013043D01*
X011089Y012726D02*
X011089Y012726D01*
X011089Y012568D02*
X011089Y012568D01*
X011089Y012430D02*
X011089Y012430D01*
X011089Y012409D02*
X011089Y012409D01*
X011089Y012251D02*
X011089Y012251D01*
X011089Y012092D02*
X011089Y012092D01*
X010128Y011300D02*
X006968Y011300D01*
X007126Y011141D02*
X009969Y011141D01*
X009811Y010983D02*
X007285Y010983D01*
X007443Y010824D02*
X009652Y010824D01*
X009494Y010666D02*
X009275Y010666D01*
X009150Y010666D02*
X007602Y010666D01*
X007760Y010507D02*
X008972Y010507D01*
X008957Y010349D02*
X007919Y010349D01*
X008077Y010190D02*
X008985Y010190D01*
X008953Y010032D02*
X008236Y010032D01*
X006802Y009556D02*
X005802Y009556D01*
X005678Y009715D02*
X006644Y009715D01*
X006485Y009873D02*
X005871Y009873D01*
X005944Y010032D02*
X006327Y010032D01*
X006168Y010190D02*
X005963Y010190D01*
X005936Y010349D02*
X006010Y010349D01*
X007422Y008605D02*
X011363Y008605D01*
X011363Y008447D02*
X007581Y008447D01*
X007739Y008288D02*
X011363Y008288D01*
X011363Y008130D02*
X007898Y008130D01*
X008056Y007971D02*
X011363Y007971D01*
X011363Y007813D02*
X008215Y007813D01*
X008373Y007654D02*
X011363Y007654D01*
X011363Y007496D02*
X008532Y007496D01*
X008690Y007337D02*
X011363Y007337D01*
X011363Y007179D02*
X008849Y007179D01*
X008498Y007020D02*
X001623Y007020D01*
X001623Y006862D02*
X008267Y006862D01*
X008213Y006703D02*
X001623Y006703D01*
X001623Y006545D02*
X008261Y006545D01*
X008340Y007179D02*
X001623Y007179D01*
X001623Y007337D02*
X008181Y007337D01*
X010255Y005900D02*
X004901Y005900D01*
X004860Y005940D01*
X004765Y005980D01*
X004661Y005980D01*
X004566Y005940D01*
X004492Y005867D01*
X004453Y005772D01*
X004453Y005668D01*
X004492Y005573D01*
X004566Y005500D01*
X004661Y005460D01*
X004765Y005460D01*
X004860Y005500D01*
X004901Y005540D01*
X010255Y005540D01*
X010296Y005500D01*
X010391Y005460D01*
X010495Y005460D01*
X010590Y005500D01*
X010663Y005573D01*
X010703Y005668D01*
X010703Y005772D01*
X010663Y005867D01*
X010590Y005940D01*
X010495Y005980D01*
X010391Y005980D01*
X010296Y005940D01*
X010255Y005900D01*
X010266Y005911D02*
X004890Y005911D01*
X004536Y005911D02*
X001623Y005911D01*
X001623Y006069D02*
X010690Y006069D01*
X010683Y006052D02*
X010683Y005948D01*
X010722Y005853D01*
X010763Y005812D01*
X010763Y005368D01*
X010722Y005327D01*
X010683Y005232D01*
X010683Y005128D01*
X010722Y005033D01*
X010796Y004960D01*
X007751Y004960D01*
X007753Y004957D02*
X007680Y005030D01*
X007585Y005070D01*
X007481Y005070D01*
X007386Y005030D01*
X007312Y004957D01*
X007273Y004862D01*
X007273Y004758D01*
X007312Y004663D01*
X007386Y004590D01*
X007481Y004550D01*
X007538Y004550D01*
X007623Y004465D01*
X007623Y004408D01*
X007662Y004313D01*
X007736Y004240D01*
X007831Y004200D01*
X007935Y004200D01*
X008030Y004240D01*
X008071Y004280D01*
X008438Y004280D01*
X009583Y003135D01*
X009583Y003078D01*
X009622Y002983D01*
X009696Y002910D01*
X009791Y002870D01*
X009895Y002870D01*
X009990Y002910D01*
X010063Y002983D01*
X010103Y003078D01*
X010103Y003182D01*
X010063Y003277D01*
X009990Y003350D01*
X009895Y003390D01*
X009837Y003390D01*
X008693Y004535D01*
X008587Y004640D01*
X008071Y004640D01*
X008030Y004680D01*
X007935Y004720D01*
X007877Y004720D01*
X007793Y004805D01*
X007793Y004862D01*
X007753Y004957D01*
X007796Y004801D02*
X019533Y004801D01*
X019533Y004643D02*
X008068Y004643D01*
X008743Y004484D02*
X019533Y004484D01*
X019533Y004326D02*
X008902Y004326D01*
X009060Y004167D02*
X019533Y004167D01*
X019533Y004009D02*
X009219Y004009D01*
X009377Y003850D02*
X019533Y003850D01*
X019893Y003850D02*
X021349Y003850D01*
X021479Y004009D02*
X019893Y004009D01*
X019893Y004167D02*
X021609Y004167D01*
X021739Y004326D02*
X019893Y004326D01*
X019893Y004484D02*
X021869Y004484D01*
X021999Y004643D02*
X019893Y004643D01*
X019893Y004801D02*
X022129Y004801D01*
X022259Y004960D02*
X019893Y004960D01*
X019893Y005118D02*
X022389Y005118D01*
X022519Y005277D02*
X019893Y005277D01*
X019893Y005435D02*
X022649Y005435D01*
X022779Y005594D02*
X019893Y005594D01*
X019893Y005752D02*
X022909Y005752D01*
X023039Y005911D02*
X019893Y005911D01*
X019893Y006069D02*
X023169Y006069D01*
X023299Y006228D02*
X019893Y006228D01*
X019893Y006386D02*
X023430Y006386D01*
X023453Y006545D02*
X019893Y006545D01*
X019893Y006703D02*
X023453Y006703D01*
X023453Y006862D02*
X019893Y006862D01*
X019893Y007020D02*
X023453Y007020D01*
X023813Y007020D02*
X028469Y007020D01*
X028490Y007069D02*
X028423Y006908D01*
X028423Y006732D01*
X028490Y006571D01*
X028614Y006447D01*
X028775Y006380D01*
X029550Y006380D01*
X029712Y006447D01*
X029836Y006571D01*
X029903Y006732D01*
X029903Y006908D01*
X029836Y007069D01*
X029712Y007193D01*
X029550Y007260D01*
X028775Y007260D01*
X028614Y007193D01*
X028490Y007069D01*
X028599Y007179D02*
X023813Y007179D01*
X023813Y007337D02*
X032759Y007337D01*
X032759Y007179D02*
X032287Y007179D01*
X032272Y007193D02*
X032110Y007260D01*
X031335Y007260D01*
X031174Y007193D01*
X031050Y007069D01*
X030983Y006908D01*
X030983Y006732D01*
X031050Y006571D01*
X031174Y006447D01*
X031335Y006380D01*
X032110Y006380D01*
X032272Y006447D01*
X032396Y006571D01*
X032463Y006732D01*
X032463Y006908D01*
X032396Y007069D01*
X032272Y007193D01*
X032416Y007020D02*
X032759Y007020D01*
X032759Y006862D02*
X032463Y006862D01*
X032451Y006703D02*
X032759Y006703D01*
X032759Y006545D02*
X032370Y006545D01*
X032125Y006386D02*
X032759Y006386D01*
X032759Y006228D02*
X023765Y006228D01*
X023813Y006386D02*
X028761Y006386D01*
X028516Y006545D02*
X023813Y006545D01*
X023813Y006703D02*
X028435Y006703D01*
X028423Y006862D02*
X023813Y006862D01*
X023813Y007496D02*
X032759Y007496D01*
X032759Y007654D02*
X023813Y007654D01*
X023635Y006069D02*
X032759Y006069D01*
X032759Y005911D02*
X023505Y005911D01*
X023375Y005752D02*
X032759Y005752D01*
X032759Y005594D02*
X023245Y005594D01*
X023115Y005435D02*
X028590Y005435D01*
X028611Y005451D02*
X028550Y005406D01*
X028497Y005353D01*
X028452Y005292D01*
X028418Y005224D01*
X028395Y005152D01*
X028383Y005078D01*
X028383Y005060D01*
X029143Y005060D01*
X029143Y005520D01*
X028825Y005520D01*
X028750Y005508D01*
X028679Y005485D01*
X028611Y005451D01*
X028445Y005277D02*
X022985Y005277D01*
X022855Y005118D02*
X028389Y005118D01*
X028383Y005020D02*
X028383Y005002D01*
X028395Y004928D01*
X028418Y004856D01*
X028452Y004788D01*
X028497Y004727D01*
X028550Y004674D01*
X028611Y004629D01*
X028679Y004595D01*
X028750Y004572D01*
X028825Y004560D01*
X029143Y004560D01*
X029143Y005020D01*
X029183Y005020D01*
X029183Y005060D01*
X029943Y005060D01*
X029943Y005078D01*
X029931Y005152D01*
X029908Y005224D01*
X029873Y005292D01*
X029829Y005353D01*
X029776Y005406D01*
X029714Y005451D01*
X029647Y005485D01*
X029575Y005508D01*
X029501Y005520D01*
X029183Y005520D01*
X029183Y005060D01*
X029143Y005060D01*
X029143Y005020D01*
X028383Y005020D01*
X028390Y004960D02*
X022725Y004960D01*
X022595Y004801D02*
X028446Y004801D01*
X028593Y004643D02*
X022465Y004643D01*
X022335Y004484D02*
X032759Y004484D01*
X032759Y004326D02*
X022204Y004326D01*
X022074Y004167D02*
X032759Y004167D01*
X032759Y004009D02*
X021944Y004009D01*
X021814Y003850D02*
X032759Y003850D01*
X032759Y003692D02*
X032274Y003692D01*
X032272Y003693D02*
X032110Y003760D01*
X031335Y003760D01*
X031174Y003693D01*
X031050Y003569D01*
X030983Y003408D01*
X030983Y003232D01*
X031050Y003071D01*
X031174Y002947D01*
X031335Y002880D01*
X032110Y002880D01*
X032272Y002947D01*
X032396Y003071D01*
X032463Y003232D01*
X032463Y003408D01*
X032396Y003569D01*
X032272Y003693D01*
X032411Y003533D02*
X032759Y003533D01*
X032759Y003375D02*
X032463Y003375D01*
X032456Y003216D02*
X032759Y003216D01*
X032759Y003058D02*
X032383Y003058D01*
X032156Y002899D02*
X032759Y002899D01*
X032759Y002741D02*
X020904Y002741D01*
X021034Y002899D02*
X021729Y002899D01*
X021503Y003058D02*
X021164Y003058D01*
X021294Y003216D02*
X021430Y003216D01*
X020958Y003375D02*
X020463Y003375D01*
X020456Y003216D02*
X020828Y003216D01*
X020698Y003058D02*
X020383Y003058D01*
X020568Y002899D02*
X020156Y002899D01*
X020438Y002741D02*
X016026Y002741D01*
X016292Y002582D02*
X020308Y002582D01*
X020178Y002424D02*
X016559Y002424D01*
X016387Y002107D02*
X001623Y002107D01*
X001623Y002265D02*
X016121Y002265D01*
X015854Y002424D02*
X001623Y002424D01*
X001623Y002582D02*
X015588Y002582D01*
X015321Y002741D02*
X001623Y002741D01*
X001623Y002899D02*
X009721Y002899D01*
X009591Y003058D02*
X001623Y003058D01*
X001623Y003216D02*
X009502Y003216D01*
X009344Y003375D02*
X001623Y003375D01*
X001623Y003533D02*
X009185Y003533D01*
X009027Y003692D02*
X001623Y003692D01*
X001623Y003850D02*
X008868Y003850D01*
X008710Y004009D02*
X001623Y004009D01*
X001623Y004167D02*
X008551Y004167D01*
X007657Y004326D02*
X001623Y004326D01*
X001623Y004484D02*
X007604Y004484D01*
X007333Y004643D02*
X001623Y004643D01*
X001623Y004801D02*
X007273Y004801D01*
X007315Y004960D02*
X001623Y004960D01*
X001623Y005118D02*
X010687Y005118D01*
X010701Y005277D02*
X001623Y005277D01*
X001623Y005435D02*
X010763Y005435D01*
X010763Y005594D02*
X010672Y005594D01*
X010703Y005752D02*
X010763Y005752D01*
X010698Y005911D02*
X010620Y005911D01*
X010683Y006052D02*
X010722Y006147D01*
X010796Y006220D01*
X010891Y006260D01*
X010995Y006260D01*
X011090Y006220D01*
X011163Y006147D01*
X011203Y006052D01*
X011203Y005948D01*
X011163Y005853D01*
X011123Y005812D01*
X011123Y005368D01*
X011163Y005327D01*
X011203Y005232D01*
X011203Y005128D01*
X011163Y005033D01*
X011090Y004960D01*
X010995Y004920D01*
X010891Y004920D01*
X010796Y004960D01*
X011090Y004960D02*
X019533Y004960D01*
X019533Y005118D02*
X011199Y005118D01*
X011184Y005277D02*
X019533Y005277D01*
X019533Y005435D02*
X011123Y005435D01*
X011123Y005594D02*
X019533Y005594D01*
X019533Y005752D02*
X011123Y005752D01*
X011187Y005911D02*
X019533Y005911D01*
X019533Y006069D02*
X011196Y006069D01*
X011073Y006228D02*
X019533Y006228D01*
X019533Y006386D02*
X001623Y006386D01*
X001623Y006228D02*
X010813Y006228D01*
X011775Y003760D02*
X011614Y003693D01*
X011490Y003569D01*
X011423Y003408D01*
X011423Y003232D01*
X011490Y003071D01*
X011614Y002947D01*
X011775Y002880D01*
X012550Y002880D01*
X012712Y002947D01*
X012836Y003071D01*
X012903Y003232D01*
X012903Y003408D01*
X012836Y003569D01*
X012712Y003693D01*
X012550Y003760D01*
X011775Y003760D01*
X011612Y003692D02*
X009536Y003692D01*
X009694Y003533D02*
X011475Y003533D01*
X011423Y003375D02*
X009932Y003375D01*
X010089Y003216D02*
X011430Y003216D01*
X011503Y003058D02*
X010094Y003058D01*
X009965Y002899D02*
X011729Y002899D01*
X012596Y002899D02*
X014289Y002899D01*
X014063Y003058D02*
X012823Y003058D01*
X012896Y003216D02*
X013990Y003216D01*
X013983Y003375D02*
X012903Y003375D01*
X012851Y003533D02*
X014035Y003533D01*
X014172Y003692D02*
X012714Y003692D01*
X012501Y002020D02*
X012183Y002020D01*
X012183Y001560D01*
X012943Y001560D01*
X012943Y001578D01*
X012931Y001652D01*
X012908Y001724D01*
X012873Y001792D01*
X012829Y001853D01*
X012776Y001906D01*
X012714Y001951D01*
X012647Y001985D01*
X012575Y002008D01*
X012501Y002020D01*
X012718Y001948D02*
X014168Y001948D01*
X014171Y001951D02*
X014110Y001906D01*
X014057Y001853D01*
X014012Y001792D01*
X013978Y001724D01*
X013955Y001652D01*
X013943Y001578D01*
X013943Y001560D01*
X014703Y001560D01*
X014703Y002020D01*
X014385Y002020D01*
X014310Y002008D01*
X014239Y001985D01*
X014171Y001951D01*
X014011Y001790D02*
X012874Y001790D01*
X012934Y001631D02*
X013951Y001631D01*
X013943Y001520D02*
X013943Y001502D01*
X013955Y001428D01*
X013978Y001356D01*
X014012Y001288D01*
X014057Y001227D01*
X014110Y001174D01*
X014171Y001129D01*
X014239Y001095D01*
X014310Y001072D01*
X014385Y001060D01*
X014703Y001060D01*
X014703Y001520D01*
X014743Y001520D01*
X014743Y001560D01*
X015503Y001560D01*
X015503Y001578D01*
X015491Y001652D01*
X015468Y001724D01*
X015433Y001792D01*
X015389Y001853D01*
X015336Y001906D01*
X015274Y001951D01*
X015207Y001985D01*
X015135Y002008D01*
X015061Y002020D01*
X014743Y002020D01*
X014743Y001560D01*
X014703Y001560D01*
X014703Y001520D01*
X013943Y001520D01*
X013948Y001473D02*
X012938Y001473D01*
X012943Y001502D02*
X012931Y001428D01*
X012908Y001356D01*
X012873Y001288D01*
X012829Y001227D01*
X012776Y001174D01*
X012714Y001129D01*
X012647Y001095D01*
X012575Y001072D01*
X012501Y001060D01*
X012183Y001060D01*
X012183Y001520D01*
X012183Y001560D01*
X012143Y001560D01*
X012143Y002020D01*
X011825Y002020D01*
X011750Y002008D01*
X011679Y001985D01*
X011611Y001951D01*
X011550Y001906D01*
X011497Y001853D01*
X011452Y001792D01*
X011418Y001724D01*
X011395Y001652D01*
X011383Y001578D01*
X011383Y001560D01*
X012143Y001560D01*
X012143Y001520D01*
X012183Y001520D01*
X012943Y001520D01*
X012943Y001502D01*
X012886Y001314D02*
X013999Y001314D01*
X014135Y001156D02*
X012750Y001156D01*
X012183Y001156D02*
X012143Y001156D01*
X012143Y001060D02*
X012143Y001520D01*
X011383Y001520D01*
X011383Y001502D01*
X011395Y001428D01*
X011418Y001356D01*
X011452Y001288D01*
X011497Y001227D01*
X011550Y001174D01*
X011611Y001129D01*
X011679Y001095D01*
X011750Y001072D01*
X011825Y001060D01*
X012143Y001060D01*
X012143Y001314D02*
X012183Y001314D01*
X012183Y001473D02*
X012143Y001473D01*
X012143Y001631D02*
X012183Y001631D01*
X012183Y001790D02*
X012143Y001790D01*
X012143Y001948D02*
X012183Y001948D01*
X011608Y001948D02*
X001623Y001948D01*
X001623Y001790D02*
X011451Y001790D01*
X011391Y001631D02*
X001623Y001631D01*
X001623Y001473D02*
X011388Y001473D01*
X011439Y001314D02*
X001623Y001314D01*
X001623Y001156D02*
X011575Y001156D01*
X014703Y001156D02*
X014743Y001156D01*
X014743Y001060D02*
X015061Y001060D01*
X015135Y001072D01*
X015207Y001095D01*
X015274Y001129D01*
X015336Y001174D01*
X015389Y001227D01*
X015433Y001288D01*
X015468Y001356D01*
X015491Y001428D01*
X015503Y001502D01*
X015503Y001520D01*
X014743Y001520D01*
X014743Y001060D01*
X014743Y001314D02*
X014703Y001314D01*
X014703Y001473D02*
X014743Y001473D01*
X014743Y001631D02*
X014703Y001631D01*
X014703Y001790D02*
X014743Y001790D01*
X014743Y001948D02*
X014703Y001948D01*
X015278Y001948D02*
X016608Y001948D01*
X016451Y001790D02*
X015434Y001790D01*
X015494Y001631D02*
X016391Y001631D01*
X016383Y001520D02*
X016383Y001502D01*
X016395Y001428D01*
X016418Y001356D01*
X016452Y001288D01*
X016497Y001227D01*
X016550Y001174D01*
X016611Y001129D01*
X016679Y001095D01*
X016750Y001072D01*
X016825Y001060D01*
X017143Y001060D01*
X017143Y001520D01*
X016383Y001520D01*
X016388Y001473D02*
X015498Y001473D01*
X015446Y001314D02*
X016439Y001314D01*
X016575Y001156D02*
X015310Y001156D01*
X017143Y001156D02*
X017183Y001156D01*
X017183Y001060D02*
X017501Y001060D01*
X017575Y001072D01*
X017647Y001095D01*
X017714Y001129D01*
X017776Y001174D01*
X017829Y001227D01*
X017873Y001288D01*
X017908Y001356D01*
X017931Y001428D01*
X017943Y001502D01*
X017943Y001520D01*
X017183Y001520D01*
X017183Y001060D01*
X017183Y001314D02*
X017143Y001314D01*
X017143Y001473D02*
X017183Y001473D01*
X017750Y001156D02*
X019135Y001156D01*
X019110Y001174D02*
X019171Y001129D01*
X019239Y001095D01*
X019310Y001072D01*
X019385Y001060D01*
X019703Y001060D01*
X019703Y001520D01*
X018943Y001520D01*
X018943Y001502D01*
X018955Y001428D01*
X018978Y001356D01*
X019012Y001288D01*
X019057Y001227D01*
X019110Y001174D01*
X018999Y001314D02*
X017886Y001314D01*
X017938Y001473D02*
X018948Y001473D01*
X018951Y001631D02*
X017934Y001631D01*
X017874Y001790D02*
X019011Y001790D01*
X019168Y001948D02*
X017718Y001948D01*
X017550Y002880D02*
X016775Y002880D01*
X016614Y002947D01*
X016490Y003071D01*
X016423Y003232D01*
X016423Y003408D01*
X016490Y003569D01*
X016614Y003693D01*
X016775Y003760D01*
X017550Y003760D01*
X017712Y003693D01*
X017836Y003569D01*
X017903Y003408D01*
X017903Y003232D01*
X017836Y003071D01*
X017712Y002947D01*
X017550Y002880D01*
X017596Y002899D02*
X019289Y002899D01*
X019063Y003058D02*
X017823Y003058D01*
X017896Y003216D02*
X018990Y003216D01*
X018983Y003375D02*
X017903Y003375D01*
X017851Y003533D02*
X019035Y003533D01*
X019172Y003692D02*
X017714Y003692D01*
X016612Y003692D02*
X015274Y003692D01*
X015411Y003533D02*
X016475Y003533D01*
X016423Y003375D02*
X015463Y003375D01*
X015456Y003216D02*
X016430Y003216D01*
X016503Y003058D02*
X015492Y003058D01*
X015759Y002899D02*
X016729Y002899D01*
X019703Y001473D02*
X019743Y001473D01*
X019743Y001520D02*
X019743Y001060D01*
X020061Y001060D01*
X020135Y001072D01*
X020207Y001095D01*
X020274Y001129D01*
X020336Y001174D01*
X020389Y001227D01*
X020433Y001288D01*
X020468Y001356D01*
X020491Y001428D01*
X020503Y001502D01*
X020503Y001520D01*
X019743Y001520D01*
X019743Y001314D02*
X019703Y001314D01*
X019703Y001156D02*
X019743Y001156D01*
X020310Y001156D02*
X021575Y001156D01*
X021550Y001174D02*
X021611Y001129D01*
X021679Y001095D01*
X021750Y001072D01*
X021825Y001060D01*
X022143Y001060D01*
X022143Y001520D01*
X022183Y001520D01*
X022183Y001560D01*
X022943Y001560D01*
X022943Y001578D01*
X022931Y001652D01*
X022908Y001724D01*
X022873Y001792D01*
X022829Y001853D01*
X022776Y001906D01*
X022714Y001951D01*
X022647Y001985D01*
X022575Y002008D01*
X022501Y002020D01*
X022183Y002020D01*
X022183Y001560D01*
X022143Y001560D01*
X022143Y002020D01*
X021825Y002020D01*
X021750Y002008D01*
X021679Y001985D01*
X021611Y001951D01*
X021550Y001906D01*
X021497Y001853D01*
X021452Y001792D01*
X021418Y001724D01*
X021395Y001652D01*
X021383Y001578D01*
X021383Y001560D01*
X022143Y001560D01*
X022143Y001520D01*
X021383Y001520D01*
X021383Y001502D01*
X021395Y001428D01*
X021418Y001356D01*
X021452Y001288D01*
X021497Y001227D01*
X021550Y001174D01*
X021439Y001314D02*
X020446Y001314D01*
X020498Y001473D02*
X021388Y001473D01*
X021391Y001631D02*
X020494Y001631D01*
X020434Y001790D02*
X021451Y001790D01*
X021608Y001948D02*
X020278Y001948D01*
X020384Y002107D02*
X032759Y002107D01*
X032759Y002265D02*
X020514Y002265D01*
X020644Y002424D02*
X032759Y002424D01*
X032759Y002582D02*
X020774Y002582D01*
X021088Y003533D02*
X020411Y003533D01*
X020274Y003692D02*
X021219Y003692D01*
X022596Y002899D02*
X024289Y002899D01*
X024335Y002880D02*
X025110Y002880D01*
X025272Y002947D01*
X025396Y003071D01*
X025463Y003232D01*
X025463Y003408D01*
X025396Y003569D01*
X025272Y003693D01*
X025110Y003760D01*
X024335Y003760D01*
X024174Y003693D01*
X024050Y003569D01*
X023983Y003408D01*
X023983Y003232D01*
X024050Y003071D01*
X024174Y002947D01*
X024335Y002880D01*
X024063Y003058D02*
X022823Y003058D01*
X022896Y003216D02*
X023990Y003216D01*
X023983Y003375D02*
X022903Y003375D01*
X022851Y003533D02*
X024035Y003533D01*
X024172Y003692D02*
X022714Y003692D01*
X025156Y002899D02*
X028729Y002899D01*
X028775Y002880D02*
X029550Y002880D01*
X029712Y002947D01*
X029836Y003071D01*
X029903Y003232D01*
X029903Y003408D01*
X029836Y003569D01*
X029712Y003693D01*
X029550Y003760D01*
X028775Y003760D01*
X028614Y003693D01*
X028490Y003569D01*
X028423Y003408D01*
X028423Y003232D01*
X028490Y003071D01*
X028614Y002947D01*
X028775Y002880D01*
X028503Y003058D02*
X025383Y003058D01*
X025456Y003216D02*
X028430Y003216D01*
X028423Y003375D02*
X025463Y003375D01*
X025411Y003533D02*
X028475Y003533D01*
X028612Y003692D02*
X025274Y003692D01*
X025061Y002020D02*
X024743Y002020D01*
X024743Y001560D01*
X025503Y001560D01*
X025503Y001578D01*
X025491Y001652D01*
X025468Y001724D01*
X025433Y001792D01*
X025389Y001853D01*
X025336Y001906D01*
X025274Y001951D01*
X025207Y001985D01*
X025135Y002008D01*
X025061Y002020D01*
X025278Y001948D02*
X028608Y001948D01*
X028611Y001951D02*
X028550Y001906D01*
X028497Y001853D01*
X028452Y001792D01*
X028418Y001724D01*
X028395Y001652D01*
X028383Y001578D01*
X028383Y001560D01*
X029143Y001560D01*
X029143Y002020D01*
X028825Y002020D01*
X028750Y002008D01*
X028679Y001985D01*
X028611Y001951D01*
X028451Y001790D02*
X025434Y001790D01*
X025494Y001631D02*
X028391Y001631D01*
X028383Y001520D02*
X028383Y001502D01*
X028395Y001428D01*
X028418Y001356D01*
X028452Y001288D01*
X028497Y001227D01*
X028550Y001174D01*
X028611Y001129D01*
X028679Y001095D01*
X028750Y001072D01*
X028825Y001060D01*
X029143Y001060D01*
X029143Y001520D01*
X029183Y001520D01*
X029183Y001560D01*
X029943Y001560D01*
X029943Y001578D01*
X029931Y001652D01*
X029908Y001724D01*
X029873Y001792D01*
X029829Y001853D01*
X029776Y001906D01*
X029714Y001951D01*
X029647Y001985D01*
X029575Y002008D01*
X029501Y002020D01*
X029183Y002020D01*
X029183Y001560D01*
X029143Y001560D01*
X029143Y001520D01*
X028383Y001520D01*
X028388Y001473D02*
X025498Y001473D01*
X025503Y001502D02*
X025491Y001428D01*
X025468Y001356D01*
X025433Y001288D01*
X025389Y001227D01*
X025336Y001174D01*
X025274Y001129D01*
X025207Y001095D01*
X025135Y001072D01*
X025061Y001060D01*
X024743Y001060D01*
X024743Y001520D01*
X024743Y001560D01*
X024703Y001560D01*
X024703Y002020D01*
X024385Y002020D01*
X024310Y002008D01*
X024239Y001985D01*
X024171Y001951D01*
X024110Y001906D01*
X024057Y001853D01*
X024012Y001792D01*
X023978Y001724D01*
X023955Y001652D01*
X023943Y001578D01*
X023943Y001560D01*
X024703Y001560D01*
X024703Y001520D01*
X024743Y001520D01*
X025503Y001520D01*
X025503Y001502D01*
X025446Y001314D02*
X028439Y001314D01*
X028575Y001156D02*
X025310Y001156D01*
X024743Y001156D02*
X024703Y001156D01*
X024703Y001060D02*
X024703Y001520D01*
X023943Y001520D01*
X023943Y001502D01*
X023955Y001428D01*
X023978Y001356D01*
X024012Y001288D01*
X024057Y001227D01*
X024110Y001174D01*
X024171Y001129D01*
X024239Y001095D01*
X024310Y001072D01*
X024385Y001060D01*
X024703Y001060D01*
X024703Y001314D02*
X024743Y001314D01*
X024743Y001473D02*
X024703Y001473D01*
X024703Y001631D02*
X024743Y001631D01*
X024743Y001790D02*
X024703Y001790D01*
X024703Y001948D02*
X024743Y001948D01*
X024168Y001948D02*
X022718Y001948D01*
X022874Y001790D02*
X024011Y001790D01*
X023951Y001631D02*
X022934Y001631D01*
X022943Y001520D02*
X022183Y001520D01*
X022183Y001060D01*
X022501Y001060D01*
X022575Y001072D01*
X022647Y001095D01*
X022714Y001129D01*
X022776Y001174D01*
X022829Y001227D01*
X022873Y001288D01*
X022908Y001356D01*
X022931Y001428D01*
X022943Y001502D01*
X022943Y001520D01*
X022938Y001473D02*
X023948Y001473D01*
X023999Y001314D02*
X022886Y001314D01*
X022750Y001156D02*
X024135Y001156D01*
X022183Y001156D02*
X022143Y001156D01*
X022143Y001314D02*
X022183Y001314D01*
X022183Y001473D02*
X022143Y001473D01*
X022143Y001631D02*
X022183Y001631D01*
X022183Y001790D02*
X022143Y001790D01*
X022143Y001948D02*
X022183Y001948D01*
X029143Y001948D02*
X029183Y001948D01*
X029183Y001790D02*
X029143Y001790D01*
X029143Y001631D02*
X029183Y001631D01*
X029183Y001520D02*
X029943Y001520D01*
X029943Y001502D01*
X029931Y001428D01*
X029908Y001356D01*
X029873Y001288D01*
X029829Y001227D01*
X029776Y001174D01*
X029714Y001129D01*
X029647Y001095D01*
X029575Y001072D01*
X029501Y001060D01*
X029183Y001060D01*
X029183Y001520D01*
X029183Y001473D02*
X029143Y001473D01*
X029143Y001314D02*
X029183Y001314D01*
X029183Y001156D02*
X029143Y001156D01*
X029750Y001156D02*
X031135Y001156D01*
X031110Y001174D02*
X031171Y001129D01*
X031239Y001095D01*
X031310Y001072D01*
X031385Y001060D01*
X031703Y001060D01*
X031703Y001520D01*
X031743Y001520D01*
X031743Y001560D01*
X032503Y001560D01*
X032503Y001578D01*
X032491Y001652D01*
X032468Y001724D01*
X032433Y001792D01*
X032389Y001853D01*
X032336Y001906D01*
X032274Y001951D01*
X032207Y001985D01*
X032135Y002008D01*
X032061Y002020D01*
X031743Y002020D01*
X031743Y001560D01*
X031703Y001560D01*
X031703Y002020D01*
X031385Y002020D01*
X031310Y002008D01*
X031239Y001985D01*
X031171Y001951D01*
X031110Y001906D01*
X031057Y001853D01*
X031012Y001792D01*
X030978Y001724D01*
X030955Y001652D01*
X030943Y001578D01*
X030943Y001560D01*
X031703Y001560D01*
X031703Y001520D01*
X030943Y001520D01*
X030943Y001502D01*
X030955Y001428D01*
X030978Y001356D01*
X031012Y001288D01*
X031057Y001227D01*
X031110Y001174D01*
X030999Y001314D02*
X029886Y001314D01*
X029938Y001473D02*
X030948Y001473D01*
X030951Y001631D02*
X029934Y001631D01*
X029874Y001790D02*
X031011Y001790D01*
X031168Y001948D02*
X029718Y001948D01*
X029596Y002899D02*
X031289Y002899D01*
X031063Y003058D02*
X029823Y003058D01*
X029896Y003216D02*
X030990Y003216D01*
X030983Y003375D02*
X029903Y003375D01*
X029851Y003533D02*
X031035Y003533D01*
X031172Y003692D02*
X029714Y003692D01*
X029575Y004572D02*
X029647Y004595D01*
X029714Y004629D01*
X029776Y004674D01*
X029829Y004727D01*
X029873Y004788D01*
X029908Y004856D01*
X029931Y004928D01*
X029943Y005002D01*
X029943Y005020D01*
X029183Y005020D01*
X029183Y004560D01*
X029501Y004560D01*
X029575Y004572D01*
X029732Y004643D02*
X031153Y004643D01*
X031171Y004629D02*
X031239Y004595D01*
X031310Y004572D01*
X031385Y004560D01*
X031703Y004560D01*
X031703Y005020D01*
X031743Y005020D01*
X031743Y005060D01*
X032503Y005060D01*
X032503Y005078D01*
X032491Y005152D01*
X032468Y005224D01*
X032433Y005292D01*
X032389Y005353D01*
X032336Y005406D01*
X032274Y005451D01*
X032207Y005485D01*
X032135Y005508D01*
X032061Y005520D01*
X031743Y005520D01*
X031743Y005060D01*
X031703Y005060D01*
X031703Y005520D01*
X031385Y005520D01*
X031310Y005508D01*
X031239Y005485D01*
X031171Y005451D01*
X031110Y005406D01*
X031057Y005353D01*
X031012Y005292D01*
X030978Y005224D01*
X030955Y005152D01*
X030943Y005078D01*
X030943Y005060D01*
X031703Y005060D01*
X031703Y005020D01*
X030943Y005020D01*
X030943Y005002D01*
X030955Y004928D01*
X030978Y004856D01*
X031012Y004788D01*
X031057Y004727D01*
X031110Y004674D01*
X031171Y004629D01*
X031006Y004801D02*
X029880Y004801D01*
X029936Y004960D02*
X030950Y004960D01*
X030949Y005118D02*
X029936Y005118D01*
X029881Y005277D02*
X031005Y005277D01*
X031150Y005435D02*
X029736Y005435D01*
X029183Y005435D02*
X029143Y005435D01*
X029143Y005277D02*
X029183Y005277D01*
X029183Y005118D02*
X029143Y005118D01*
X029143Y004960D02*
X029183Y004960D01*
X029183Y004801D02*
X029143Y004801D01*
X029143Y004643D02*
X029183Y004643D01*
X029565Y006386D02*
X031321Y006386D01*
X031076Y006545D02*
X029810Y006545D01*
X029891Y006703D02*
X030995Y006703D01*
X030983Y006862D02*
X029903Y006862D01*
X029856Y007020D02*
X031029Y007020D01*
X031159Y007179D02*
X029727Y007179D01*
X031703Y005435D02*
X031743Y005435D01*
X031743Y005277D02*
X031703Y005277D01*
X031703Y005118D02*
X031743Y005118D01*
X031743Y005020D02*
X032503Y005020D01*
X032503Y005002D01*
X032491Y004928D01*
X032468Y004856D01*
X032433Y004788D01*
X032389Y004727D01*
X032336Y004674D01*
X032274Y004629D01*
X032207Y004595D01*
X032135Y004572D01*
X032061Y004560D01*
X031743Y004560D01*
X031743Y005020D01*
X031743Y004960D02*
X031703Y004960D01*
X031703Y004801D02*
X031743Y004801D01*
X031743Y004643D02*
X031703Y004643D01*
X032292Y004643D02*
X032759Y004643D01*
X032759Y004801D02*
X032440Y004801D01*
X032496Y004960D02*
X032759Y004960D01*
X032759Y005118D02*
X032496Y005118D01*
X032441Y005277D02*
X032759Y005277D01*
X032759Y005435D02*
X032296Y005435D01*
X032278Y001948D02*
X032759Y001948D01*
X032759Y001790D02*
X032434Y001790D01*
X032494Y001631D02*
X032759Y001631D01*
X032759Y001473D02*
X032498Y001473D01*
X032503Y001502D02*
X032491Y001428D01*
X032468Y001356D01*
X032433Y001288D01*
X032389Y001227D01*
X032336Y001174D01*
X032274Y001129D01*
X032207Y001095D01*
X032135Y001072D01*
X032061Y001060D01*
X031743Y001060D01*
X031743Y001520D01*
X032503Y001520D01*
X032503Y001502D01*
X032446Y001314D02*
X032759Y001314D01*
X032759Y001156D02*
X032310Y001156D01*
X032759Y000997D02*
X001623Y000997D01*
X001623Y000860D02*
X001623Y021496D01*
X032759Y021496D01*
X032759Y000860D01*
X001623Y000860D01*
X001623Y005594D02*
X004484Y005594D01*
X004453Y005752D02*
X001623Y005752D01*
X005706Y012726D02*
X005884Y012726D01*
X005883Y012885D02*
X006043Y012885D01*
X005008Y017481D02*
X004877Y017481D01*
X004692Y017640D02*
X005193Y017640D01*
X005419Y019700D02*
X004862Y019700D01*
X005039Y019859D02*
X005193Y019859D01*
X004146Y019859D02*
X001623Y019859D01*
X001623Y020017D02*
X004067Y020017D01*
X001623Y021127D02*
X032759Y021127D01*
X032759Y021285D02*
X001623Y021285D01*
X001623Y021444D02*
X032759Y021444D01*
X013830Y018432D02*
X001623Y018432D01*
X001623Y018274D02*
X013672Y018274D01*
X018218Y009081D02*
X018299Y009081D01*
X031703Y001948D02*
X031743Y001948D01*
X031743Y001790D02*
X031703Y001790D01*
X031703Y001631D02*
X031743Y001631D01*
X031743Y001473D02*
X031703Y001473D01*
X031703Y001314D02*
X031743Y001314D01*
X031743Y001156D02*
X031703Y001156D01*
D19*
X018523Y008310D03*
X018523Y009220D03*
X019313Y009680D03*
X017473Y009220D03*
X017193Y009680D03*
X016983Y010620D03*
X018243Y011530D03*
X020343Y012860D03*
X019083Y013140D03*
X018173Y013910D03*
X017123Y014190D03*
X016143Y015800D03*
X016083Y016800D03*
X014943Y015930D03*
X013483Y015800D03*
X011243Y016120D03*
X009843Y017760D03*
X006943Y018700D03*
X007593Y013660D03*
X006943Y013180D03*
X006193Y013180D03*
X006203Y011460D03*
X008293Y011250D03*
X009213Y010410D03*
X009213Y010060D03*
X011173Y009500D03*
X010193Y007180D03*
X010193Y006430D03*
X010943Y006000D03*
X010443Y005720D03*
X010943Y005180D03*
X008473Y006700D03*
X007533Y004810D03*
X007883Y004460D03*
X009283Y003270D03*
X009843Y003130D03*
X004713Y005720D03*
X002703Y005580D03*
X005853Y008660D03*
X012633Y012090D03*
X020443Y014680D03*
X020443Y015430D03*
X020443Y016680D03*
X018103Y020770D03*
X027013Y018600D03*
X027013Y013850D03*
X023633Y011950D03*
X020973Y011740D03*
X002943Y001180D03*
D20*
X007533Y004810D02*
X007883Y004460D01*
X008513Y004460D01*
X009843Y003130D01*
X010943Y005180D02*
X010943Y006000D01*
X010443Y005720D02*
X004713Y005720D01*
X008473Y006700D02*
X015583Y006700D01*
X019083Y010200D01*
X019083Y013140D01*
X019223Y014190D02*
X020343Y013070D01*
X020973Y013700D01*
X021673Y013700D01*
X021953Y013980D01*
X021953Y016640D01*
X022443Y017130D01*
X022443Y017180D01*
X023353Y017340D02*
X021253Y019440D01*
X019223Y019440D01*
X018523Y020140D01*
X018592Y020180D01*
X018523Y020210D01*
X018523Y020350D01*
X018103Y020770D01*
X015592Y020180D02*
X015583Y020140D01*
X015583Y019930D01*
X009843Y014190D01*
X007603Y014190D01*
X005643Y012230D01*
X005503Y012230D01*
X005443Y012180D01*
X004943Y011950D02*
X004943Y014680D01*
X004443Y015180D01*
X003683Y015520D02*
X004383Y016220D01*
X004443Y016180D01*
X003683Y015520D02*
X003683Y012230D01*
X004243Y011670D01*
X004663Y011670D01*
X004943Y011390D01*
X004943Y010970D01*
X005223Y010690D01*
X005643Y010690D01*
X005783Y010550D01*
X006063Y010550D01*
X006973Y009640D01*
X009353Y009640D01*
X010683Y010970D01*
X015583Y010970D01*
X016213Y010340D01*
X017053Y010340D01*
X018243Y011530D01*
X016983Y010620D02*
X016493Y011110D01*
X010613Y011110D01*
X009283Y009780D01*
X008233Y009780D01*
X006333Y011680D01*
X006013Y011680D01*
X005923Y011670D01*
X005223Y011670D01*
X004943Y011950D01*
X005443Y011180D02*
X005923Y011180D01*
X006203Y011460D01*
X005503Y013140D02*
X005443Y013180D01*
X005503Y013140D02*
X009843Y017480D01*
X009843Y017760D01*
X006943Y018700D02*
X005643Y020000D01*
X005643Y020140D01*
X005592Y020180D01*
X011733Y014050D02*
X013483Y015800D01*
X014943Y015930D02*
X016193Y014680D01*
X020443Y014680D01*
X020443Y015430D02*
X017693Y015430D01*
X017323Y015800D01*
X016143Y015800D01*
X016083Y016800D02*
X020323Y016800D01*
X020443Y016680D01*
X022443Y016180D02*
X022443Y016150D01*
X022583Y016150D01*
X023213Y015520D01*
X023213Y014260D01*
X022653Y013700D01*
X022233Y013700D01*
X021953Y013420D01*
X021953Y011950D01*
X021673Y011670D01*
X021253Y011670D01*
X021113Y011810D01*
X021043Y011810D01*
X020973Y011740D01*
X020903Y011670D01*
X018663Y013910D01*
X018173Y013910D01*
X015933Y011670D01*
X010963Y011670D01*
X009353Y010060D01*
X009213Y010060D01*
X009213Y010410D02*
X009493Y010410D01*
X010893Y011810D01*
X014743Y011810D01*
X017123Y014190D01*
X019223Y014190D01*
X020343Y013070D02*
X020343Y012860D01*
X021953Y011670D02*
X022443Y012160D01*
X022443Y012180D01*
X021953Y011670D02*
X021953Y010970D01*
X021673Y010690D01*
X019993Y010690D01*
X019083Y009780D01*
X019083Y009570D01*
X019713Y008940D01*
X019713Y003340D01*
X019723Y003320D01*
X020203Y002170D02*
X023633Y006350D01*
X023633Y011950D01*
X021943Y009680D02*
X019313Y009680D01*
X018523Y009220D02*
X018523Y008310D01*
X017473Y008800D02*
X015583Y006910D01*
X008863Y006910D01*
X007113Y008660D01*
X005853Y008660D01*
X011797Y012430D02*
X011803Y012440D01*
X012363Y012440D01*
X012443Y012536D01*
X012433Y012510D01*
X012363Y012440D01*
X012633Y012090D01*
X012443Y013324D02*
X012433Y013350D01*
X012363Y013420D01*
X011803Y013420D01*
X011797Y013430D01*
X011733Y014050D02*
X007983Y014050D01*
X007593Y013660D01*
X017473Y009220D02*
X017473Y008800D01*
X021443Y008180D02*
X021463Y008170D01*
X021463Y008030D01*
X022023Y007470D01*
X022793Y007470D01*
X023353Y008030D01*
X023353Y017340D01*
X021943Y009680D02*
X021943Y008680D01*
X022443Y008180D01*
X016633Y002170D02*
X014783Y003270D01*
X014743Y003270D01*
X014723Y003320D01*
X016633Y002170D02*
X020203Y002170D01*
M02*
