%
M48
M72
T01C0.0120
T02C0.0315
T03C0.0400
T04C0.0472
T05C0.0512
%
T01
X9283Y3270
X27013Y18600
X2943Y1180
X2703Y5580
X8293Y11250
X11173Y9500
X11243Y16120
X6193Y13180
X6943Y13180
X27013Y13850
X17193Y9680
X10193Y7180
X10193Y6430
X19313Y9680
X10943Y5180
X10943Y6000
X6203Y11460
X9843Y17760
X8473Y6700
X19083Y13140
X4713Y5720
X10443Y5720
X18523Y9220
X18523Y8310
X7883Y4460
X7533Y4810
X9843Y3130
X20443Y16680
X16083Y16800
X20443Y14680
X14943Y15930
X17473Y9220
X5853Y8660
X20343Y12860
X17123Y14190
X9213Y10410
X20973Y11740
X18173Y13910
X9213Y10060
X16143Y15800
X20443Y15430
X13483Y15800
X7593Y13660
X16983Y10620
X12633Y12090
X18243Y11530
X23633Y11950
X6943Y18700
X18103Y20770
T02
X30343Y20574
X30343Y19786
T03
X22443Y8180
X22443Y9180
X22443Y10180
X22443Y11180
X22443Y12180
X22443Y13180
X22443Y14180
X22443Y15180
X22443Y16180
X22443Y17180
X4443Y8180
X4443Y9180
X4443Y10180
X4443Y11180
X4443Y12180
X4443Y13180
X4443Y14180
X4443Y15180
X4443Y16180
X4443Y17180
X21443Y8180
X21443Y9180
X21443Y10180
X21443Y11180
X21443Y12180
X21443Y13180
X21443Y14180
X21443Y15180
X21443Y16180
X21443Y17180
X5443Y8180
X5443Y9180
X5443Y10180
X5443Y11180
X5443Y12180
X5443Y13180
X5443Y14180
X5443Y15180
X5443Y16180
X5443Y17180
X4592Y20180
X5592Y20180
X6592Y20180
X7592Y20180
X8592Y20180
X9592Y20180
X10592Y20180
X11592Y20180
X12592Y20180
X13592Y20180
X14592Y20180
X15592Y20180
X16592Y20180
X17592Y20180
X18592Y20180
X19592Y20180
X29163Y3320
X29163Y1540
X31723Y3320
X31723Y1540
X29163Y6820
X29163Y5040
X31723Y6820
X31723Y5040
X22163Y3320
X22163Y1540
X24723Y3320
X24723Y1540
X17163Y3320
X17163Y1540
X19723Y3320
X19723Y1540
X12163Y3320
X12163Y1540
X14723Y3320
X14723Y1540
T04
X30243Y14261
X31227Y14261
X31227Y18199
X30243Y18199
X28274Y16230
T05
X30243Y16230
X28274Y15246
X28274Y14261
X28274Y17214
X28274Y18199
M30
