G75*
%MOIN*%
%OFA0B0*%
%FSLAX24Y24*%
%IPPOS*%
%LPD*%
%AMOC8*
5,1,8,0,0,1.08239X$1,22.5*
%
%ADD10C,0.0000*%
%ADD11R,0.0355X0.0512*%
%ADD12R,0.0512X0.0355*%
%ADD13R,0.0591X0.0670*%
%ADD14R,0.0670X0.0591*%
%ADD15C,0.0800*%
%ADD16R,0.0749X0.0985*%
%ADD17C,0.0780*%
%ADD18C,0.0900*%
%ADD19C,0.0512*%
%ADD20R,0.0434X0.0591*%
%ADD21R,0.2140X0.0800*%
%ADD22R,0.0473X0.0591*%
%ADD23R,0.0473X0.0985*%
%ADD24R,0.0631X0.0552*%
%ADD25R,0.0591X0.0473*%
%ADD26C,0.0640*%
%ADD27R,0.0788X0.0591*%
%ADD28R,0.0591X0.0749*%
%ADD29R,0.0631X0.0316*%
%ADD30R,0.0910X0.0280*%
%ADD31R,0.0300X0.0840*%
%ADD32R,0.0512X0.0257*%
%ADD33C,0.0600*%
%ADD34R,0.0280X0.0910*%
D10*
X001443Y000680D02*
X001443Y021676D01*
X032939Y021676D01*
X032939Y000680D01*
X001443Y000680D01*
X028038Y016230D02*
X028040Y016260D01*
X028046Y016290D01*
X028055Y016319D01*
X028068Y016346D01*
X028085Y016371D01*
X028104Y016394D01*
X028127Y016415D01*
X028152Y016432D01*
X028178Y016446D01*
X028207Y016456D01*
X028236Y016463D01*
X028266Y016466D01*
X028297Y016465D01*
X028327Y016460D01*
X028356Y016451D01*
X028383Y016439D01*
X028409Y016424D01*
X028433Y016405D01*
X028454Y016383D01*
X028472Y016359D01*
X028487Y016332D01*
X028498Y016304D01*
X028506Y016275D01*
X028510Y016245D01*
X028510Y016215D01*
X028506Y016185D01*
X028498Y016156D01*
X028487Y016128D01*
X028472Y016101D01*
X028454Y016077D01*
X028433Y016055D01*
X028409Y016036D01*
X028383Y016021D01*
X028356Y016009D01*
X028327Y016000D01*
X028297Y015995D01*
X028266Y015994D01*
X028236Y015997D01*
X028207Y016004D01*
X028178Y016014D01*
X028152Y016028D01*
X028127Y016045D01*
X028104Y016066D01*
X028085Y016089D01*
X028068Y016114D01*
X028055Y016141D01*
X028046Y016170D01*
X028040Y016200D01*
X028038Y016230D01*
X030007Y018199D02*
X030009Y018229D01*
X030015Y018259D01*
X030024Y018288D01*
X030037Y018315D01*
X030054Y018340D01*
X030073Y018363D01*
X030096Y018384D01*
X030121Y018401D01*
X030147Y018415D01*
X030176Y018425D01*
X030205Y018432D01*
X030235Y018435D01*
X030266Y018434D01*
X030296Y018429D01*
X030325Y018420D01*
X030352Y018408D01*
X030378Y018393D01*
X030402Y018374D01*
X030423Y018352D01*
X030441Y018328D01*
X030456Y018301D01*
X030467Y018273D01*
X030475Y018244D01*
X030479Y018214D01*
X030479Y018184D01*
X030475Y018154D01*
X030467Y018125D01*
X030456Y018097D01*
X030441Y018070D01*
X030423Y018046D01*
X030402Y018024D01*
X030378Y018005D01*
X030352Y017990D01*
X030325Y017978D01*
X030296Y017969D01*
X030266Y017964D01*
X030235Y017963D01*
X030205Y017966D01*
X030176Y017973D01*
X030147Y017983D01*
X030121Y017997D01*
X030096Y018014D01*
X030073Y018035D01*
X030054Y018058D01*
X030037Y018083D01*
X030024Y018110D01*
X030015Y018139D01*
X030009Y018169D01*
X030007Y018199D01*
X030991Y018199D02*
X030993Y018229D01*
X030999Y018259D01*
X031008Y018288D01*
X031021Y018315D01*
X031038Y018340D01*
X031057Y018363D01*
X031080Y018384D01*
X031105Y018401D01*
X031131Y018415D01*
X031160Y018425D01*
X031189Y018432D01*
X031219Y018435D01*
X031250Y018434D01*
X031280Y018429D01*
X031309Y018420D01*
X031336Y018408D01*
X031362Y018393D01*
X031386Y018374D01*
X031407Y018352D01*
X031425Y018328D01*
X031440Y018301D01*
X031451Y018273D01*
X031459Y018244D01*
X031463Y018214D01*
X031463Y018184D01*
X031459Y018154D01*
X031451Y018125D01*
X031440Y018097D01*
X031425Y018070D01*
X031407Y018046D01*
X031386Y018024D01*
X031362Y018005D01*
X031336Y017990D01*
X031309Y017978D01*
X031280Y017969D01*
X031250Y017964D01*
X031219Y017963D01*
X031189Y017966D01*
X031160Y017973D01*
X031131Y017983D01*
X031105Y017997D01*
X031080Y018014D01*
X031057Y018035D01*
X031038Y018058D01*
X031021Y018083D01*
X031008Y018110D01*
X030999Y018139D01*
X030993Y018169D01*
X030991Y018199D01*
X030991Y014261D02*
X030993Y014291D01*
X030999Y014321D01*
X031008Y014350D01*
X031021Y014377D01*
X031038Y014402D01*
X031057Y014425D01*
X031080Y014446D01*
X031105Y014463D01*
X031131Y014477D01*
X031160Y014487D01*
X031189Y014494D01*
X031219Y014497D01*
X031250Y014496D01*
X031280Y014491D01*
X031309Y014482D01*
X031336Y014470D01*
X031362Y014455D01*
X031386Y014436D01*
X031407Y014414D01*
X031425Y014390D01*
X031440Y014363D01*
X031451Y014335D01*
X031459Y014306D01*
X031463Y014276D01*
X031463Y014246D01*
X031459Y014216D01*
X031451Y014187D01*
X031440Y014159D01*
X031425Y014132D01*
X031407Y014108D01*
X031386Y014086D01*
X031362Y014067D01*
X031336Y014052D01*
X031309Y014040D01*
X031280Y014031D01*
X031250Y014026D01*
X031219Y014025D01*
X031189Y014028D01*
X031160Y014035D01*
X031131Y014045D01*
X031105Y014059D01*
X031080Y014076D01*
X031057Y014097D01*
X031038Y014120D01*
X031021Y014145D01*
X031008Y014172D01*
X030999Y014201D01*
X030993Y014231D01*
X030991Y014261D01*
X030007Y014261D02*
X030009Y014291D01*
X030015Y014321D01*
X030024Y014350D01*
X030037Y014377D01*
X030054Y014402D01*
X030073Y014425D01*
X030096Y014446D01*
X030121Y014463D01*
X030147Y014477D01*
X030176Y014487D01*
X030205Y014494D01*
X030235Y014497D01*
X030266Y014496D01*
X030296Y014491D01*
X030325Y014482D01*
X030352Y014470D01*
X030378Y014455D01*
X030402Y014436D01*
X030423Y014414D01*
X030441Y014390D01*
X030456Y014363D01*
X030467Y014335D01*
X030475Y014306D01*
X030479Y014276D01*
X030479Y014246D01*
X030475Y014216D01*
X030467Y014187D01*
X030456Y014159D01*
X030441Y014132D01*
X030423Y014108D01*
X030402Y014086D01*
X030378Y014067D01*
X030352Y014052D01*
X030325Y014040D01*
X030296Y014031D01*
X030266Y014026D01*
X030235Y014025D01*
X030205Y014028D01*
X030176Y014035D01*
X030147Y014045D01*
X030121Y014059D01*
X030096Y014076D01*
X030073Y014097D01*
X030054Y014120D01*
X030037Y014145D01*
X030024Y014172D01*
X030015Y014201D01*
X030009Y014231D01*
X030007Y014261D01*
D11*
X026597Y014230D03*
X025889Y014230D03*
X025889Y018230D03*
X026597Y018230D03*
X016797Y009680D03*
X016089Y009680D03*
X015297Y009680D03*
X014589Y009680D03*
X012297Y009680D03*
X011589Y009680D03*
X010797Y009680D03*
X010089Y009680D03*
X007397Y011280D03*
X006689Y011280D03*
X008189Y003230D03*
X008897Y003230D03*
D12*
X009193Y010826D03*
X009943Y010826D03*
X009943Y011534D03*
X009193Y011534D03*
X009943Y014326D03*
X009943Y015034D03*
X015943Y017576D03*
X015943Y018284D03*
X017943Y015034D03*
X017943Y014326D03*
D13*
X023692Y014230D03*
X024794Y014230D03*
X024794Y018230D03*
X023692Y018230D03*
D14*
X016943Y017731D03*
X016943Y016629D03*
D15*
X021443Y016180D03*
X022443Y016180D03*
X022443Y015180D03*
X021443Y015180D03*
X021443Y014180D03*
X022443Y014180D03*
X022443Y013180D03*
X021443Y013180D03*
X021443Y012180D03*
X022443Y012180D03*
X022443Y011180D03*
X021443Y011180D03*
X021443Y010180D03*
X022443Y010180D03*
X022443Y009180D03*
X021443Y009180D03*
X021443Y008180D03*
X022443Y008180D03*
X022443Y017180D03*
X021443Y017180D03*
X005443Y017180D03*
X004443Y017180D03*
X004443Y016180D03*
X005443Y016180D03*
X005443Y015180D03*
X004443Y015180D03*
X004443Y014180D03*
X005443Y014180D03*
X005443Y013180D03*
X004443Y013180D03*
X004443Y012180D03*
X005443Y012180D03*
X005443Y011180D03*
X004443Y011180D03*
X004443Y010180D03*
X005443Y010180D03*
X005443Y009180D03*
X004443Y009180D03*
X004443Y008180D03*
X005443Y008180D03*
D16*
X008762Y017680D03*
X011124Y017680D03*
D17*
X011592Y020180D03*
X010592Y020180D03*
X009592Y020180D03*
X008592Y020180D03*
X007592Y020180D03*
X006592Y020180D03*
X005592Y020180D03*
X004592Y020180D03*
X012592Y020180D03*
X013592Y020180D03*
X014592Y020180D03*
X015592Y020180D03*
X016592Y020180D03*
X017592Y020180D03*
X018592Y020180D03*
X019592Y020180D03*
D18*
X028274Y018199D03*
X028274Y017214D03*
X030243Y016230D03*
X028274Y015246D03*
X028274Y014261D03*
D19*
X030243Y014261D03*
X031227Y014261D03*
X028274Y016230D03*
X030243Y018199D03*
X031227Y018199D03*
D20*
X018817Y016247D03*
X018069Y016247D03*
X018443Y017113D03*
D21*
X015343Y008180D03*
X011543Y008180D03*
D22*
X013049Y009730D03*
X013837Y009730D03*
X009337Y006180D03*
X008549Y006180D03*
X008549Y005130D03*
X009337Y005130D03*
X009337Y004130D03*
X008549Y004130D03*
X008549Y002430D03*
X009337Y002430D03*
X009337Y001430D03*
X008549Y001430D03*
X019549Y010930D03*
X020337Y010930D03*
X020337Y011930D03*
X019549Y011930D03*
X024049Y012930D03*
X024837Y012930D03*
X024637Y015480D03*
X023849Y015480D03*
X025849Y015480D03*
X026637Y015480D03*
X026637Y016980D03*
X025849Y016980D03*
X024637Y016980D03*
X023849Y016980D03*
X024049Y019430D03*
X024837Y019430D03*
X018837Y017930D03*
X018049Y017930D03*
D23*
X022730Y019680D03*
D24*
X021234Y019109D03*
X021234Y020251D03*
D25*
X009193Y013574D03*
X009193Y012786D03*
X009193Y009574D03*
X009193Y008786D03*
D26*
X011863Y003320D02*
X012463Y003320D01*
X014423Y003320D02*
X015023Y003320D01*
X016863Y003320D02*
X017463Y003320D01*
X019423Y003320D02*
X020023Y003320D01*
X021863Y003320D02*
X022463Y003320D01*
X024423Y003320D02*
X025023Y003320D01*
X025023Y001540D02*
X024423Y001540D01*
X022463Y001540D02*
X021863Y001540D01*
X020023Y001540D02*
X019423Y001540D01*
X017463Y001540D02*
X016863Y001540D01*
X015023Y001540D02*
X014423Y001540D01*
X012463Y001540D02*
X011863Y001540D01*
X028863Y001540D02*
X029463Y001540D01*
X031423Y001540D02*
X032023Y001540D01*
X032023Y003320D02*
X031423Y003320D01*
X029463Y003320D02*
X028863Y003320D01*
X028863Y005040D02*
X029463Y005040D01*
X031423Y005040D02*
X032023Y005040D01*
X032023Y006820D02*
X031423Y006820D01*
X029463Y006820D02*
X028863Y006820D01*
D27*
X002292Y006273D03*
X001938Y001076D03*
D28*
X007450Y003280D03*
X007450Y005643D03*
D29*
X003434Y005485D03*
X003434Y005918D03*
X003276Y005052D03*
X003434Y004619D03*
X003276Y004186D03*
X003434Y003753D03*
X003591Y003320D03*
X003434Y002887D03*
D30*
X012913Y016680D03*
X012913Y017180D03*
X012913Y017680D03*
X012913Y018180D03*
X014973Y018180D03*
X014973Y017680D03*
X014973Y017180D03*
X014973Y016680D03*
D31*
X015193Y015160D03*
X015693Y015160D03*
X016193Y015160D03*
X016693Y015160D03*
X017193Y015160D03*
X014693Y015160D03*
X014193Y015160D03*
X013693Y015160D03*
X013193Y015160D03*
X012693Y015160D03*
X012193Y015160D03*
X011693Y015160D03*
X011193Y015160D03*
X010693Y015160D03*
X010693Y011200D03*
X011193Y011200D03*
X011693Y011200D03*
X012193Y011200D03*
X012693Y011200D03*
X013193Y011200D03*
X013693Y011200D03*
X014193Y011200D03*
X014693Y011200D03*
X015193Y011200D03*
X015693Y011200D03*
X016193Y011200D03*
X016693Y011200D03*
X017193Y011200D03*
D32*
X017931Y012806D03*
X017931Y013180D03*
X017931Y013554D03*
X018955Y013554D03*
X018955Y012806D03*
D33*
X030343Y019786D03*
X030343Y020574D03*
D34*
X008193Y010210D03*
X007693Y010210D03*
X007193Y010210D03*
X006693Y010210D03*
X006693Y008150D03*
X007193Y008150D03*
X007693Y008150D03*
X008193Y008150D03*
M02*
