G75*
%MOIN*%
%OFA0B0*%
%FSLAX24Y24*%
%IPPOS*%
%LPD*%
%AMOC8*
5,1,8,0,0,1.08239X$1,22.5*
%
%ADD10C,0.0000*%
%ADD11R,0.0315X0.0472*%
%ADD12R,0.0472X0.0315*%
%ADD13R,0.0551X0.0630*%
%ADD14R,0.0630X0.0551*%
%ADD15C,0.0760*%
%ADD16R,0.0709X0.0945*%
%ADD17C,0.0740*%
%ADD18C,0.0860*%
%ADD19R,0.0394X0.0551*%
%ADD20R,0.2100X0.0760*%
%ADD21R,0.0433X0.0551*%
%ADD22R,0.0433X0.0945*%
%ADD23R,0.0591X0.0512*%
%ADD24R,0.0551X0.0433*%
%ADD25C,0.0600*%
%ADD26R,0.0748X0.0551*%
%ADD27R,0.0551X0.0709*%
%ADD28R,0.0591X0.0276*%
%ADD29R,0.0870X0.0240*%
%ADD30R,0.0260X0.0800*%
%ADD31R,0.0472X0.0217*%
%ADD32C,0.0560*%
%ADD33R,0.0240X0.0870*%
%ADD34C,0.0080*%
%ADD35C,0.0240*%
%ADD36C,0.0240*%
D10*
X001443Y000680D02*
X001443Y021676D01*
X032939Y021676D01*
X032939Y000680D01*
X001443Y000680D01*
X028038Y016230D02*
X028040Y016260D01*
X028046Y016290D01*
X028055Y016319D01*
X028068Y016346D01*
X028085Y016371D01*
X028104Y016394D01*
X028127Y016415D01*
X028152Y016432D01*
X028178Y016446D01*
X028207Y016456D01*
X028236Y016463D01*
X028266Y016466D01*
X028297Y016465D01*
X028327Y016460D01*
X028356Y016451D01*
X028383Y016439D01*
X028409Y016424D01*
X028433Y016405D01*
X028454Y016383D01*
X028472Y016359D01*
X028487Y016332D01*
X028498Y016304D01*
X028506Y016275D01*
X028510Y016245D01*
X028510Y016215D01*
X028506Y016185D01*
X028498Y016156D01*
X028487Y016128D01*
X028472Y016101D01*
X028454Y016077D01*
X028433Y016055D01*
X028409Y016036D01*
X028383Y016021D01*
X028356Y016009D01*
X028327Y016000D01*
X028297Y015995D01*
X028266Y015994D01*
X028236Y015997D01*
X028207Y016004D01*
X028178Y016014D01*
X028152Y016028D01*
X028127Y016045D01*
X028104Y016066D01*
X028085Y016089D01*
X028068Y016114D01*
X028055Y016141D01*
X028046Y016170D01*
X028040Y016200D01*
X028038Y016230D01*
X030007Y018199D02*
X030009Y018229D01*
X030015Y018259D01*
X030024Y018288D01*
X030037Y018315D01*
X030054Y018340D01*
X030073Y018363D01*
X030096Y018384D01*
X030121Y018401D01*
X030147Y018415D01*
X030176Y018425D01*
X030205Y018432D01*
X030235Y018435D01*
X030266Y018434D01*
X030296Y018429D01*
X030325Y018420D01*
X030352Y018408D01*
X030378Y018393D01*
X030402Y018374D01*
X030423Y018352D01*
X030441Y018328D01*
X030456Y018301D01*
X030467Y018273D01*
X030475Y018244D01*
X030479Y018214D01*
X030479Y018184D01*
X030475Y018154D01*
X030467Y018125D01*
X030456Y018097D01*
X030441Y018070D01*
X030423Y018046D01*
X030402Y018024D01*
X030378Y018005D01*
X030352Y017990D01*
X030325Y017978D01*
X030296Y017969D01*
X030266Y017964D01*
X030235Y017963D01*
X030205Y017966D01*
X030176Y017973D01*
X030147Y017983D01*
X030121Y017997D01*
X030096Y018014D01*
X030073Y018035D01*
X030054Y018058D01*
X030037Y018083D01*
X030024Y018110D01*
X030015Y018139D01*
X030009Y018169D01*
X030007Y018199D01*
X030991Y018199D02*
X030993Y018229D01*
X030999Y018259D01*
X031008Y018288D01*
X031021Y018315D01*
X031038Y018340D01*
X031057Y018363D01*
X031080Y018384D01*
X031105Y018401D01*
X031131Y018415D01*
X031160Y018425D01*
X031189Y018432D01*
X031219Y018435D01*
X031250Y018434D01*
X031280Y018429D01*
X031309Y018420D01*
X031336Y018408D01*
X031362Y018393D01*
X031386Y018374D01*
X031407Y018352D01*
X031425Y018328D01*
X031440Y018301D01*
X031451Y018273D01*
X031459Y018244D01*
X031463Y018214D01*
X031463Y018184D01*
X031459Y018154D01*
X031451Y018125D01*
X031440Y018097D01*
X031425Y018070D01*
X031407Y018046D01*
X031386Y018024D01*
X031362Y018005D01*
X031336Y017990D01*
X031309Y017978D01*
X031280Y017969D01*
X031250Y017964D01*
X031219Y017963D01*
X031189Y017966D01*
X031160Y017973D01*
X031131Y017983D01*
X031105Y017997D01*
X031080Y018014D01*
X031057Y018035D01*
X031038Y018058D01*
X031021Y018083D01*
X031008Y018110D01*
X030999Y018139D01*
X030993Y018169D01*
X030991Y018199D01*
X030991Y014261D02*
X030993Y014291D01*
X030999Y014321D01*
X031008Y014350D01*
X031021Y014377D01*
X031038Y014402D01*
X031057Y014425D01*
X031080Y014446D01*
X031105Y014463D01*
X031131Y014477D01*
X031160Y014487D01*
X031189Y014494D01*
X031219Y014497D01*
X031250Y014496D01*
X031280Y014491D01*
X031309Y014482D01*
X031336Y014470D01*
X031362Y014455D01*
X031386Y014436D01*
X031407Y014414D01*
X031425Y014390D01*
X031440Y014363D01*
X031451Y014335D01*
X031459Y014306D01*
X031463Y014276D01*
X031463Y014246D01*
X031459Y014216D01*
X031451Y014187D01*
X031440Y014159D01*
X031425Y014132D01*
X031407Y014108D01*
X031386Y014086D01*
X031362Y014067D01*
X031336Y014052D01*
X031309Y014040D01*
X031280Y014031D01*
X031250Y014026D01*
X031219Y014025D01*
X031189Y014028D01*
X031160Y014035D01*
X031131Y014045D01*
X031105Y014059D01*
X031080Y014076D01*
X031057Y014097D01*
X031038Y014120D01*
X031021Y014145D01*
X031008Y014172D01*
X030999Y014201D01*
X030993Y014231D01*
X030991Y014261D01*
X030007Y014261D02*
X030009Y014291D01*
X030015Y014321D01*
X030024Y014350D01*
X030037Y014377D01*
X030054Y014402D01*
X030073Y014425D01*
X030096Y014446D01*
X030121Y014463D01*
X030147Y014477D01*
X030176Y014487D01*
X030205Y014494D01*
X030235Y014497D01*
X030266Y014496D01*
X030296Y014491D01*
X030325Y014482D01*
X030352Y014470D01*
X030378Y014455D01*
X030402Y014436D01*
X030423Y014414D01*
X030441Y014390D01*
X030456Y014363D01*
X030467Y014335D01*
X030475Y014306D01*
X030479Y014276D01*
X030479Y014246D01*
X030475Y014216D01*
X030467Y014187D01*
X030456Y014159D01*
X030441Y014132D01*
X030423Y014108D01*
X030402Y014086D01*
X030378Y014067D01*
X030352Y014052D01*
X030325Y014040D01*
X030296Y014031D01*
X030266Y014026D01*
X030235Y014025D01*
X030205Y014028D01*
X030176Y014035D01*
X030147Y014045D01*
X030121Y014059D01*
X030096Y014076D01*
X030073Y014097D01*
X030054Y014120D01*
X030037Y014145D01*
X030024Y014172D01*
X030015Y014201D01*
X030009Y014231D01*
X030007Y014261D01*
D11*
X026597Y014230D03*
X025889Y014230D03*
X025889Y018230D03*
X026597Y018230D03*
X016797Y009680D03*
X016089Y009680D03*
X015297Y009680D03*
X014589Y009680D03*
X012297Y009680D03*
X011589Y009680D03*
X010797Y009680D03*
X010089Y009680D03*
X007397Y011280D03*
X006689Y011280D03*
X008189Y003230D03*
X008897Y003230D03*
D12*
X009193Y010826D03*
X009943Y010826D03*
X009943Y011534D03*
X009193Y011534D03*
X009943Y014326D03*
X009943Y015034D03*
X015943Y017576D03*
X015943Y018284D03*
X017943Y015034D03*
X017943Y014326D03*
D13*
X023692Y014230D03*
X024794Y014230D03*
X024794Y018230D03*
X023692Y018230D03*
D14*
X016943Y017731D03*
X016943Y016629D03*
D15*
X021443Y016180D03*
X022443Y016180D03*
X022443Y015180D03*
X021443Y015180D03*
X021443Y014180D03*
X022443Y014180D03*
X022443Y013180D03*
X021443Y013180D03*
X021443Y012180D03*
X022443Y012180D03*
X022443Y011180D03*
X021443Y011180D03*
X021443Y010180D03*
X022443Y010180D03*
X022443Y009180D03*
X021443Y009180D03*
X021443Y008180D03*
X022443Y008180D03*
X022443Y017180D03*
X021443Y017180D03*
X005443Y017180D03*
X004443Y017180D03*
X004443Y016180D03*
X005443Y016180D03*
X005443Y015180D03*
X004443Y015180D03*
X004443Y014180D03*
X005443Y014180D03*
X005443Y013180D03*
X004443Y013180D03*
X004443Y012180D03*
X005443Y012180D03*
X005443Y011180D03*
X004443Y011180D03*
X004443Y010180D03*
X005443Y010180D03*
X005443Y009180D03*
X004443Y009180D03*
X004443Y008180D03*
X005443Y008180D03*
D16*
X008762Y017680D03*
X011124Y017680D03*
D17*
X011592Y020180D03*
X010592Y020180D03*
X009592Y020180D03*
X008592Y020180D03*
X007592Y020180D03*
X006592Y020180D03*
X005592Y020180D03*
X004592Y020180D03*
X012592Y020180D03*
X013592Y020180D03*
X014592Y020180D03*
X015592Y020180D03*
X016592Y020180D03*
X017592Y020180D03*
X018592Y020180D03*
X019592Y020180D03*
D18*
X028274Y018199D03*
X028274Y017214D03*
X030243Y016230D03*
X028274Y015246D03*
X028274Y014261D03*
D19*
X018817Y016247D03*
X018069Y016247D03*
X018443Y017113D03*
D20*
X015343Y008180D03*
X011543Y008180D03*
D21*
X013049Y009730D03*
X013837Y009730D03*
X009337Y006180D03*
X008549Y006180D03*
X008549Y005130D03*
X009337Y005130D03*
X009337Y004130D03*
X008549Y004130D03*
X008549Y002430D03*
X009337Y002430D03*
X009337Y001430D03*
X008549Y001430D03*
X019549Y010930D03*
X020337Y010930D03*
X020337Y011930D03*
X019549Y011930D03*
X024049Y012930D03*
X024837Y012930D03*
X024637Y015480D03*
X023849Y015480D03*
X025849Y015480D03*
X026637Y015480D03*
X026637Y016980D03*
X025849Y016980D03*
X024637Y016980D03*
X023849Y016980D03*
X024049Y019430D03*
X024837Y019430D03*
X018837Y017930D03*
X018049Y017930D03*
D22*
X022730Y019680D03*
D23*
X021234Y019109D03*
X021234Y020251D03*
D24*
X009193Y013574D03*
X009193Y012786D03*
X009193Y009574D03*
X009193Y008786D03*
D25*
X011863Y003320D02*
X012463Y003320D01*
X014423Y003320D02*
X015023Y003320D01*
X016863Y003320D02*
X017463Y003320D01*
X019423Y003320D02*
X020023Y003320D01*
X021863Y003320D02*
X022463Y003320D01*
X024423Y003320D02*
X025023Y003320D01*
X025023Y001540D02*
X024423Y001540D01*
X022463Y001540D02*
X021863Y001540D01*
X020023Y001540D02*
X019423Y001540D01*
X017463Y001540D02*
X016863Y001540D01*
X015023Y001540D02*
X014423Y001540D01*
X012463Y001540D02*
X011863Y001540D01*
X028863Y001540D02*
X029463Y001540D01*
X031423Y001540D02*
X032023Y001540D01*
X032023Y003320D02*
X031423Y003320D01*
X029463Y003320D02*
X028863Y003320D01*
X028863Y005040D02*
X029463Y005040D01*
X031423Y005040D02*
X032023Y005040D01*
X032023Y006820D02*
X031423Y006820D01*
X029463Y006820D02*
X028863Y006820D01*
D26*
X002292Y006273D03*
X001938Y001076D03*
D27*
X007450Y003280D03*
X007450Y005643D03*
D28*
X003434Y005485D03*
X003434Y005918D03*
X003276Y005052D03*
X003434Y004619D03*
X003276Y004186D03*
X003434Y003753D03*
X003591Y003320D03*
X003434Y002887D03*
D29*
X012913Y016680D03*
X012913Y017180D03*
X012913Y017680D03*
X012913Y018180D03*
X014973Y018180D03*
X014973Y017680D03*
X014973Y017180D03*
X014973Y016680D03*
D30*
X015193Y015160D03*
X015693Y015160D03*
X016193Y015160D03*
X016693Y015160D03*
X017193Y015160D03*
X014693Y015160D03*
X014193Y015160D03*
X013693Y015160D03*
X013193Y015160D03*
X012693Y015160D03*
X012193Y015160D03*
X011693Y015160D03*
X011193Y015160D03*
X010693Y015160D03*
X010693Y011200D03*
X011193Y011200D03*
X011693Y011200D03*
X012193Y011200D03*
X012693Y011200D03*
X013193Y011200D03*
X013693Y011200D03*
X014193Y011200D03*
X014693Y011200D03*
X015193Y011200D03*
X015693Y011200D03*
X016193Y011200D03*
X016693Y011200D03*
X017193Y011200D03*
D31*
X017931Y012806D03*
X017931Y013180D03*
X017931Y013554D03*
X018955Y013554D03*
X018955Y012806D03*
D32*
X030343Y019786D03*
X030343Y020574D03*
D33*
X008193Y010210D03*
X007693Y010210D03*
X007193Y010210D03*
X006693Y010210D03*
X006693Y008150D03*
X007193Y008150D03*
X007693Y008150D03*
X008193Y008150D03*
D34*
X008233Y008170D01*
X008583Y008170D01*
X009143Y008730D01*
X009193Y008786D01*
X009213Y008730D01*
X009773Y009290D01*
X009773Y009360D01*
X010053Y009640D01*
X010089Y009680D01*
X010123Y009640D01*
X010473Y009290D01*
X010963Y009290D01*
X011173Y009500D01*
X011313Y009640D01*
X011523Y009640D01*
X011589Y009680D01*
X011593Y009710D01*
X011733Y009710D01*
X012713Y010690D01*
X012923Y010690D01*
X012923Y011670D01*
X012993Y011740D01*
X013973Y011740D01*
X014253Y011460D01*
X014193Y011200D01*
X014253Y011250D01*
X014253Y011460D01*
X014533Y011740D01*
X015373Y011740D01*
X015653Y011460D01*
X015693Y011200D01*
X015653Y010970D01*
X015933Y010690D01*
X016703Y010690D01*
X016703Y010550D01*
X016773Y010480D01*
X016773Y009710D01*
X016797Y009680D01*
X017193Y009680D01*
X017473Y009220D02*
X017473Y011600D01*
X017333Y011740D01*
X016493Y011740D01*
X016213Y011460D01*
X016213Y011250D01*
X016193Y011200D01*
X016693Y011200D02*
X016703Y011180D01*
X016703Y010690D01*
X016983Y010620D02*
X017193Y010830D01*
X017193Y011200D01*
X017963Y011600D02*
X017963Y008940D01*
X018593Y008940D01*
X019388Y009735D01*
X019368Y009735D01*
X019313Y009680D01*
X019388Y009735D02*
X019503Y009850D01*
X019503Y010900D01*
X019549Y010930D01*
X019573Y010970D01*
X019573Y011880D01*
X019549Y011930D01*
X018943Y012230D02*
X018243Y011530D01*
X018523Y011600D02*
X018523Y009220D01*
X017963Y008940D02*
X016843Y008940D01*
X016843Y008100D01*
X014743Y006000D01*
X010943Y006000D01*
X009493Y006000D01*
X009353Y006140D01*
X009337Y006180D01*
X009283Y006210D01*
X009283Y006700D01*
X008373Y007610D01*
X006483Y007610D01*
X006413Y007680D01*
X006273Y007540D01*
X002703Y007540D01*
X001793Y006630D01*
X001793Y003900D01*
X004663Y001030D01*
X008793Y001030D01*
X009143Y001380D01*
X009283Y001380D01*
X009337Y001430D01*
X009353Y001450D01*
X009353Y002430D01*
X009337Y002430D01*
X008933Y002710D02*
X008933Y001800D01*
X008583Y001450D01*
X008549Y001430D01*
X008513Y001450D01*
X005503Y001450D01*
X003613Y003340D01*
X003591Y003320D01*
X003473Y003690D02*
X003434Y003753D01*
X003473Y003690D02*
X003823Y003690D01*
X005083Y002430D01*
X008549Y002430D01*
X008583Y002430D01*
X008583Y003480D01*
X008723Y003620D01*
X009493Y003620D01*
X009913Y004040D01*
X014113Y004040D01*
X018383Y008310D01*
X018523Y008310D01*
X019433Y008870D02*
X019463Y008910D01*
X021443Y010930D01*
X021443Y011180D01*
X021393Y011810D02*
X020693Y011110D01*
X020693Y010590D01*
X019533Y009430D01*
X019293Y009430D01*
X015583Y005720D01*
X010443Y005720D01*
X008893Y005720D01*
X008549Y005130D01*
X008163Y005090D02*
X008163Y005790D01*
X008513Y006140D01*
X008549Y006180D01*
X008473Y006700D02*
X008373Y006700D01*
X007463Y005790D01*
X007463Y005650D01*
X007450Y005643D01*
X008163Y005090D02*
X007603Y004530D01*
X007603Y004390D01*
X007463Y004250D01*
X003333Y004250D01*
X003276Y004186D01*
X003434Y004619D02*
X003473Y004670D01*
X003613Y004810D01*
X007533Y004810D01*
X007883Y004460D02*
X008163Y004180D01*
X008513Y004180D01*
X008549Y004130D01*
X008163Y003830D02*
X007603Y004390D01*
X008163Y003830D02*
X008163Y003270D01*
X008189Y003230D01*
X008897Y003230D02*
X008933Y003270D01*
X009283Y003270D01*
X009843Y003130D02*
X010473Y003760D01*
X015163Y003760D01*
X019753Y008420D01*
X020233Y008940D01*
X021143Y009850D01*
X021393Y010130D01*
X021443Y010180D01*
X021953Y010690D02*
X022443Y011180D01*
X021953Y010690D02*
X021953Y007960D01*
X022163Y007750D01*
X022163Y003320D01*
X026443Y006930D02*
X029053Y006930D01*
X029163Y006820D01*
X026443Y006930D02*
X023193Y010180D01*
X022443Y010180D01*
X022443Y009180D02*
X023303Y009180D01*
X029163Y003320D01*
X019433Y008870D02*
X014463Y003900D01*
X010263Y003900D01*
X009213Y002850D01*
X009073Y002850D01*
X008933Y002710D01*
X009337Y004130D02*
X009353Y004180D01*
X009353Y005090D01*
X009337Y005130D01*
X009353Y005160D01*
X009493Y005160D01*
X009243Y005230D01*
X009443Y005180D01*
X010943Y005180D01*
X006413Y007680D02*
X006413Y008590D01*
X007253Y009430D01*
X007463Y009220D01*
X009493Y009220D01*
X009633Y009360D01*
X009633Y009780D01*
X009913Y010060D01*
X010263Y010060D01*
X010613Y009710D01*
X010753Y009710D01*
X010797Y009680D01*
X010193Y010550D02*
X009983Y010760D01*
X009943Y010826D01*
X009913Y010830D01*
X009493Y010830D01*
X009493Y009920D01*
X009213Y009640D01*
X009193Y009574D01*
X009213Y010060D02*
X009003Y010060D01*
X008583Y009640D01*
X008023Y009640D01*
X007743Y009920D01*
X007743Y010200D01*
X007693Y010210D01*
X007393Y010410D02*
X007193Y010210D01*
X007393Y010410D02*
X007393Y011250D01*
X007397Y011280D01*
X007463Y011250D01*
X008293Y011250D01*
X010683Y011250D01*
X010693Y011200D01*
X011193Y011200D02*
X011243Y011180D01*
X011243Y010970D01*
X011523Y010690D01*
X011873Y010690D01*
X011943Y010760D01*
X011943Y012300D01*
X011523Y012720D01*
X013693Y014890D01*
X013693Y015160D01*
X013203Y015170D02*
X013193Y015160D01*
X013203Y015170D02*
X013203Y015870D01*
X013483Y016150D01*
X013553Y016150D01*
X013763Y016360D01*
X013763Y017550D01*
X013133Y018180D01*
X012913Y018180D01*
X013343Y018460D02*
X014253Y017550D01*
X014253Y017480D01*
X014533Y017200D01*
X014953Y017200D01*
X014973Y017180D01*
X015023Y017130D01*
X015263Y017130D01*
X016353Y016040D01*
X016633Y015720D01*
X016633Y015170D01*
X016693Y015160D01*
X016703Y015100D01*
X016703Y014960D01*
X017333Y014330D01*
X017893Y014330D01*
X017943Y014326D01*
X017963Y014260D01*
X018173Y014260D01*
X018453Y013980D01*
X018453Y013210D01*
X018103Y012860D01*
X017963Y012860D01*
X017931Y012806D01*
X017893Y012790D01*
X016983Y012790D01*
X015653Y011460D01*
X015653Y011250D01*
X015693Y011200D01*
X015653Y011180D01*
X015653Y010970D01*
X015303Y010620D01*
X015303Y009710D01*
X015297Y009680D01*
X015443Y009290D02*
X015093Y009290D01*
X015023Y009360D01*
X015023Y011040D01*
X014883Y011180D01*
X014743Y011180D01*
X014693Y011200D01*
X015023Y011040D02*
X015163Y011180D01*
X015193Y011200D01*
X013833Y011040D02*
X013693Y011180D01*
X013693Y011200D01*
X013833Y011040D02*
X013833Y009780D01*
X013837Y009730D01*
X013903Y009710D01*
X014533Y009710D01*
X014589Y009680D01*
X014603Y009640D01*
X014603Y008940D01*
X015303Y008240D01*
X015343Y008180D01*
X015443Y009290D02*
X015793Y009640D01*
X016073Y009640D01*
X016089Y009680D01*
X016143Y009640D01*
X016843Y008940D01*
X020337Y010930D02*
X020343Y010970D01*
X020343Y011110D01*
X020973Y011740D01*
X021393Y011810D02*
X021393Y012160D01*
X021443Y012180D01*
X020343Y011950D02*
X020343Y012860D01*
X020063Y013140D02*
X018523Y011600D01*
X018313Y011950D02*
X017963Y011600D01*
X018313Y011950D02*
X018313Y012720D01*
X018943Y013350D01*
X018943Y013490D01*
X018955Y013554D01*
X018943Y013560D01*
X018943Y014050D01*
X017963Y015030D01*
X017943Y015034D01*
X017893Y015100D01*
X017193Y015100D01*
X017193Y015160D01*
X016213Y015100D02*
X016213Y014960D01*
X016983Y014190D01*
X017123Y014190D01*
X016703Y013910D02*
X018173Y013910D01*
X017893Y013210D02*
X017931Y013180D01*
X017893Y013210D02*
X015933Y013210D01*
X014253Y014890D01*
X014253Y015100D01*
X014193Y015160D01*
X014673Y015170D02*
X014693Y015160D01*
X014673Y015170D02*
X014673Y015380D01*
X014253Y015800D01*
X013483Y015800D01*
X013483Y016290D02*
X013623Y016430D01*
X013623Y017200D01*
X013203Y017620D01*
X012923Y017620D01*
X012913Y017680D01*
X012913Y017180D02*
X012923Y017130D01*
X013203Y017130D01*
X013483Y016850D01*
X013483Y016500D01*
X013413Y016430D01*
X013273Y016430D01*
X012223Y015380D01*
X012223Y015170D01*
X012193Y015160D01*
X011733Y015170D02*
X011693Y015160D01*
X011733Y015170D02*
X011733Y015520D01*
X012853Y016640D01*
X012913Y016680D01*
X013413Y016290D02*
X013483Y016290D01*
X013413Y016290D02*
X012713Y015590D01*
X012713Y015170D01*
X012693Y015160D01*
X011243Y015170D02*
X011243Y016120D01*
X011243Y016780D01*
X012363Y017900D01*
X012363Y018390D01*
X012433Y018460D01*
X013343Y018460D01*
X012853Y018740D02*
X011173Y018740D01*
X009703Y017270D01*
X009703Y015590D01*
X008513Y014400D01*
X008513Y013770D01*
X006203Y011460D01*
X006133Y011740D02*
X006273Y011740D01*
X008373Y013840D01*
X008373Y014470D01*
X009563Y015660D01*
X009563Y020140D01*
X009592Y020180D01*
X009073Y020350D02*
X009073Y018390D01*
X009283Y018180D01*
X009283Y017200D01*
X006273Y014190D01*
X005503Y014190D01*
X005443Y014180D01*
X004943Y013920D02*
X004943Y016640D01*
X004453Y017130D01*
X004443Y017180D01*
X003963Y017410D02*
X004243Y017690D01*
X005083Y017690D01*
X007533Y020140D01*
X007592Y020180D01*
X007113Y020000D02*
X004943Y017830D01*
X004173Y017830D01*
X003823Y017480D01*
X003823Y008100D01*
X004243Y007680D01*
X005643Y007680D01*
X006133Y008170D01*
X006133Y008730D01*
X005713Y009150D01*
X005503Y009150D01*
X005443Y009180D01*
X004943Y008940D02*
X004943Y011670D01*
X004453Y012160D01*
X004443Y012180D01*
X005923Y011530D02*
X005923Y010620D01*
X005503Y010200D01*
X005443Y010180D01*
X006693Y010210D02*
X006693Y011250D01*
X006689Y011280D01*
X006693Y011320D01*
X008653Y013280D01*
X008793Y013280D01*
X008793Y013910D01*
X009633Y014750D01*
X009913Y014470D01*
X009913Y014330D01*
X009943Y014326D01*
X009983Y014260D01*
X011523Y012720D01*
X012633Y012090D02*
X012633Y011740D01*
X012643Y011460D01*
X012643Y011250D01*
X012693Y011200D01*
X013063Y011110D02*
X013133Y011180D01*
X013193Y011200D01*
X013063Y011110D02*
X013063Y009780D01*
X013049Y009730D01*
X012993Y009710D01*
X012363Y009710D01*
X012297Y009680D01*
X012293Y009640D01*
X012293Y008940D01*
X011593Y008240D01*
X011543Y008180D01*
X009213Y010410D02*
X009073Y010270D01*
X008233Y010270D01*
X008193Y010210D01*
X009193Y010826D02*
X009213Y010830D01*
X009493Y010830D01*
X010193Y010550D02*
X011943Y010550D01*
X012153Y010760D01*
X012153Y011180D01*
X012193Y011200D01*
X011693Y011200D02*
X011663Y011250D01*
X011663Y011460D01*
X011383Y011740D01*
X010123Y011740D01*
X009983Y011600D01*
X009943Y011534D01*
X009913Y011530D01*
X009633Y011530D01*
X009633Y013000D01*
X009213Y013420D01*
X009213Y013560D01*
X009193Y013574D01*
X008793Y013280D02*
X009143Y012930D01*
X009143Y012790D01*
X009193Y012786D01*
X007593Y013660D02*
X005203Y013660D01*
X004943Y013920D01*
X006133Y011740D02*
X005923Y011530D01*
X006693Y010210D02*
X006693Y009990D01*
X007253Y009430D01*
X005853Y008660D02*
X005223Y008660D01*
X004943Y008940D01*
X005013Y008660D02*
X005433Y008240D01*
X005443Y008180D01*
X005013Y008660D02*
X004243Y008660D01*
X003963Y008940D01*
X003963Y017410D01*
X006943Y018700D02*
X007953Y017690D01*
X008723Y017690D01*
X008762Y017680D01*
X009843Y017760D02*
X012083Y020000D01*
X012083Y020350D01*
X012433Y020700D01*
X015793Y020700D01*
X016283Y020210D01*
X016563Y020210D01*
X016592Y020180D01*
X016633Y020840D02*
X017263Y020210D01*
X017543Y020210D01*
X017592Y020180D01*
X017963Y020490D02*
X017473Y020980D01*
X007393Y020980D01*
X006623Y020210D01*
X006592Y020180D01*
X007113Y020000D02*
X007113Y020420D01*
X007393Y020700D01*
X007743Y020700D01*
X008233Y020210D01*
X008583Y020210D01*
X008592Y020180D01*
X009073Y020350D02*
X009563Y020840D01*
X016633Y020840D01*
X017753Y021120D02*
X018103Y020770D01*
X018173Y020490D02*
X017963Y020490D01*
X018173Y020490D02*
X018523Y020840D01*
X021393Y020840D01*
X022513Y019720D01*
X022723Y019720D01*
X022730Y019680D01*
X023003Y019090D02*
X023563Y019650D01*
X023563Y019790D01*
X023773Y020000D01*
X024333Y020000D01*
X024893Y019440D01*
X024837Y019430D01*
X025033Y019230D01*
X024303Y018500D01*
X024303Y017870D01*
X023913Y017480D01*
X023913Y016990D01*
X023849Y016980D01*
X023843Y016920D01*
X023843Y015520D01*
X023849Y015480D01*
X023913Y015450D01*
X024323Y015010D01*
X024323Y013870D01*
X025103Y013140D01*
X025873Y013910D01*
X025873Y014190D01*
X025889Y014230D01*
X025883Y014020D02*
X026083Y013850D01*
X027013Y013850D01*
X026643Y014260D02*
X026597Y014230D01*
X026643Y014260D02*
X028253Y014260D01*
X028274Y014261D01*
X028323Y014330D01*
X029063Y015070D01*
X029063Y017590D01*
X030283Y018810D01*
X030283Y019720D01*
X030343Y019786D01*
X030033Y020280D02*
X028003Y018250D01*
X028274Y018199D01*
X028003Y018250D02*
X026643Y018250D01*
X026597Y018230D01*
X026643Y018180D01*
X026643Y016990D01*
X026637Y016980D01*
X025849Y016980D02*
X025803Y016990D01*
X024823Y016990D01*
X024637Y016980D01*
X024683Y016990D01*
X024823Y016990D01*
X024823Y018180D01*
X024794Y018230D01*
X023983Y018530D02*
X023703Y018250D01*
X023692Y018230D01*
X023633Y018180D01*
X023353Y017900D01*
X023353Y017360D01*
X022693Y016680D01*
X020443Y016680D01*
X021393Y017130D02*
X019083Y017130D01*
X018243Y016290D01*
X018103Y016290D01*
X018069Y016247D01*
X018313Y015870D02*
X017753Y015870D01*
X016983Y016640D01*
X016943Y016629D01*
X016983Y016640D02*
X017403Y017060D01*
X017403Y018040D01*
X017683Y018320D01*
X018313Y018320D01*
X018453Y018180D01*
X018453Y017620D01*
X018523Y017550D01*
X019643Y017550D01*
X021183Y019090D01*
X021234Y019109D01*
X021253Y019090D01*
X023003Y019090D01*
X023983Y019370D02*
X023983Y018530D01*
X023983Y019370D02*
X024049Y019430D01*
X024837Y019430D02*
X024893Y019370D01*
X025033Y019230D01*
X025873Y018390D01*
X025889Y018230D01*
X025873Y018250D01*
X025873Y018390D01*
X026083Y018600D01*
X027013Y018600D01*
X030033Y020280D02*
X030283Y020560D01*
X030343Y020574D01*
X026637Y015480D02*
X026643Y015450D01*
X026643Y014260D01*
X025849Y015480D02*
X025803Y015450D01*
X024823Y015450D01*
X024637Y015480D01*
X024683Y015450D01*
X024823Y015450D01*
X024823Y014260D01*
X024794Y014230D01*
X023983Y013910D02*
X023703Y014190D01*
X023692Y014230D01*
X023193Y014680D01*
X020443Y014680D01*
X020833Y014120D02*
X021393Y014120D01*
X021443Y014180D01*
X020833Y014120D02*
X019853Y013140D01*
X019083Y013140D01*
X018955Y012806D02*
X018943Y012790D01*
X018943Y012230D01*
X020337Y011930D02*
X020343Y011950D01*
X020063Y013140D02*
X021393Y013140D01*
X021443Y013180D01*
X022443Y013140D02*
X022443Y013180D01*
X022443Y013140D02*
X023633Y011950D01*
X023983Y012930D02*
X024049Y012930D01*
X023983Y012930D02*
X023983Y013910D01*
X024893Y012930D02*
X025103Y013140D01*
X024893Y012930D02*
X024837Y012930D01*
X022443Y015170D02*
X022443Y015180D01*
X022443Y015170D02*
X021953Y015680D01*
X020753Y015680D01*
X020443Y015430D01*
X018817Y016247D02*
X018803Y016220D01*
X018663Y016220D01*
X018313Y015870D01*
X018443Y017113D02*
X018383Y017130D01*
X018103Y017410D01*
X018103Y017900D01*
X018049Y017930D01*
X017403Y018040D02*
X017193Y018250D01*
X016003Y018250D01*
X015943Y018284D01*
X015513Y018390D02*
X015513Y017620D01*
X015933Y017620D01*
X015943Y017576D01*
X016003Y017620D01*
X016073Y017690D01*
X016913Y017690D01*
X016943Y017731D01*
X016083Y016800D02*
X015443Y017410D01*
X014533Y017410D01*
X014393Y017550D01*
X014393Y017830D01*
X014743Y018180D01*
X014973Y018180D01*
X014973Y017680D02*
X015023Y017620D01*
X015513Y017620D01*
X015513Y018390D02*
X015303Y018600D01*
X012363Y018600D01*
X011453Y017690D01*
X011173Y017690D01*
X011124Y017680D01*
X012853Y018740D02*
X014253Y020140D01*
X014533Y020140D01*
X014592Y020180D01*
X017753Y021120D02*
X006833Y021120D01*
X005923Y020210D01*
X005643Y020210D01*
X005592Y020180D01*
X009633Y015310D02*
X010543Y015310D01*
X010693Y015160D01*
X011173Y015100D02*
X011173Y014960D01*
X010823Y014610D01*
X010543Y014610D01*
X010123Y015030D01*
X009983Y015030D01*
X009943Y015034D01*
X009633Y015310D02*
X009563Y015240D01*
X009563Y014820D01*
X009633Y014750D01*
X011173Y015100D02*
X011193Y015160D01*
X011243Y015170D01*
X014943Y015930D02*
X014973Y016680D01*
X015653Y015800D02*
X016143Y015800D01*
X015653Y015800D02*
X015233Y015380D01*
X015233Y015170D01*
X015193Y015160D01*
X015693Y015160D02*
X015723Y015100D01*
X015723Y014890D01*
X016703Y013910D01*
X016213Y015100D02*
X016193Y015160D01*
X018837Y017930D02*
X018873Y017970D01*
X018873Y019440D01*
X019573Y020140D01*
X019592Y020180D01*
X019783Y020700D02*
X019083Y020700D01*
X018593Y020210D01*
X018592Y020180D01*
X019783Y020700D02*
X020203Y020280D01*
X021183Y020280D01*
X021234Y020251D01*
X021443Y017180D02*
X021393Y017130D01*
X009633Y011530D02*
X009213Y011530D01*
X009193Y011534D01*
X008163Y008170D02*
X007743Y008170D01*
X007693Y008150D01*
X007673Y008170D01*
X007253Y008170D01*
X007193Y008150D01*
X007183Y008170D01*
X006693Y008170D01*
X006693Y008150D01*
X008163Y008170D02*
X008193Y008150D01*
X004713Y005720D02*
X003983Y005720D01*
X003693Y005430D01*
X003434Y005485D01*
X003263Y005090D02*
X003276Y005052D01*
X003263Y005090D02*
X003123Y004980D01*
X003053Y005230D01*
X002703Y005580D01*
X002353Y005930D01*
X002353Y006210D01*
X002292Y006273D01*
X001933Y001100D02*
X001938Y001076D01*
D35*
X002943Y001180D03*
X007883Y004460D03*
X007533Y004810D03*
X009283Y003270D03*
X009843Y003130D03*
X010943Y005180D03*
X010443Y005720D03*
X010943Y006000D03*
X010193Y006430D03*
X010193Y007180D03*
X008473Y006700D03*
X005853Y008660D03*
X009213Y010060D03*
X009213Y010410D03*
X008293Y011250D03*
X006203Y011460D03*
X006193Y013180D03*
X006943Y013180D03*
X007593Y013660D03*
X011243Y016120D03*
X013483Y015800D03*
X014943Y015930D03*
X016143Y015800D03*
X016083Y016800D03*
X017123Y014190D03*
X018173Y013910D03*
X019083Y013140D03*
X020343Y012860D03*
X020973Y011740D03*
X023633Y011950D03*
X027013Y013850D03*
X020443Y014680D03*
X020443Y015430D03*
X020443Y016680D03*
X018103Y020770D03*
X009843Y017760D03*
X006943Y018700D03*
X012633Y012090D03*
X011173Y009500D03*
X016983Y010620D03*
X017193Y009680D03*
X017473Y009220D03*
X018523Y009220D03*
X019313Y009680D03*
X018523Y008310D03*
X018243Y011530D03*
X027013Y018600D03*
X004713Y005720D03*
X002703Y005580D03*
D36*
X002943Y001180D02*
X002193Y001180D01*
X001938Y001076D01*
X010193Y006430D02*
X010193Y007180D01*
X006943Y013180D02*
X006193Y013180D01*
M02*
